<?xml version="1.0" encoding="UTF-8" standalone="no"?>
<svg
   width="800"
   height="100"
   version="1.1"
   id="svg1"
   xmlns="http://www.w3.org/2000/svg"
   xmlns:svg="http://www.w3.org/2000/svg">
  <defs
     id="defs1" />
  <rect
     width="100%"
     height="100%"
     fill="#FFF"
     id="rect1" />
  <path
     d="M 21.28125,30 V 18.546875 h 1.515625 V 23.25 H 28.75 v -4.703125 h 1.515625 V 30 H 28.75 V 24.601562 H 22.796875 V 30 Z m 17.007812,-2.671875 1.453125,0.179687 q -0.34375,1.273438 -1.273437,1.976563 -0.929688,0.703125 -2.375,0.703125 -1.820313,0 -2.890625,-1.117188 -1.0625,-1.125 -1.0625,-3.148437 0,-2.09375 1.078125,-3.25 1.078125,-1.15625 2.796875,-1.15625 1.664062,0 2.71875,1.132812 1.054687,1.132813 1.054687,3.1875 0,0.125 -0.0078,0.375 h -6.1875 q 0.07813,1.367188 0.773437,2.09375 0.695313,0.726563 1.734375,0.726563 0.773438,0 1.320313,-0.40625 0.546875,-0.40625 0.867187,-1.296875 z m -4.617187,-2.273438 h 4.632812 q -0.09375,-1.046875 -0.53125,-1.570312 -0.671875,-0.8125 -1.742187,-0.8125 -0.96875,0 -1.632813,0.648437 -0.65625,0.648438 -0.726562,1.734375 z M 41.476562,30 V 18.546875 h 1.40625 V 30 Z m 3.554688,0 V 18.546875 H 46.4375 V 30 Z m 3.0625,-4.148438 q 0,-2.304687 1.28125,-3.414062 1.070312,-0.921875 2.609375,-0.921875 1.710937,0 2.796875,1.125 1.085937,1.117187 1.085937,3.09375 0,1.601562 -0.484375,2.523437 -0.476562,0.914063 -1.398437,1.421875 -0.914063,0.507813 -2,0.507813 -1.742188,0 -2.820313,-1.117188 -1.070312,-1.117187 -1.070312,-3.21875 z m 1.445312,0 q 0,1.59375 0.695313,2.390625 0.695312,0.789063 1.75,0.789063 1.046875,0 1.742187,-0.796875 0.695313,-0.796875 0.695313,-2.429688 0,-1.539062 -0.703125,-2.328125 -0.695313,-0.796875 -1.734375,-0.796875 -1.054688,0 -1.75,0.789063 -0.695313,0.789062 -0.695313,2.382812 z M 57.882812,30 v -1.601563 h 1.601563 V 30 q 0,0.882812 -0.3125,1.421875 -0.3125,0.546875 -0.992188,0.84375 L 57.789062,31.664062 Q 58.234375,31.46875 58.445312,31.085937 58.65625,30.710937 58.679687,30 Z m 8.523438,0 V 18.546875 h 1.40625 v 4.109375 q 0.984375,-1.140625 2.484375,-1.140625 0.921875,0 1.601562,0.367187 0.679688,0.359375 0.96875,1 0.296875,0.640625 0.296875,1.859375 V 30 h -1.40625 v -5.257813 q 0,-1.054687 -0.460937,-1.53125 -0.453125,-0.484375 -1.289063,-0.484375 -0.625,0 -1.179687,0.328125 -0.546875,0.320313 -0.78125,0.875 -0.234375,0.554688 -0.234375,1.53125 V 30 Z m 14.578125,-2.671875 1.453125,0.179687 q -0.34375,1.273438 -1.273438,1.976563 -0.929687,0.703125 -2.375,0.703125 -1.820312,0 -2.890625,-1.117188 -1.0625,-1.125 -1.0625,-3.148437 0,-2.09375 1.078125,-3.25 1.078125,-1.15625 2.796875,-1.15625 1.664063,0 2.71875,1.132812 1.054688,1.132813 1.054688,3.1875 0,0.125 -0.0078,0.375 h -6.1875 q 0.07813,1.367188 0.773438,2.09375 0.695312,0.726563 1.734375,0.726563 0.773437,0 1.320312,-0.40625 0.546875,-0.40625 0.867188,-1.296875 z M 76.367187,25.054687 H 81 q -0.09375,-1.046875 -0.53125,-1.570312 -0.671875,-0.8125 -1.742188,-0.8125 -0.96875,0 -1.632812,0.648437 -0.65625,0.648438 -0.726563,1.734375 z M 84.171875,30 V 18.546875 h 1.40625 V 30 Z m 3.554687,0 V 18.546875 h 1.40625 V 30 Z m 3.0625,-4.148438 q 0,-2.304687 1.28125,-3.414062 1.070313,-0.921875 2.609375,-0.921875 1.710938,0 2.796875,1.125 1.085938,1.117187 1.085938,3.09375 0,1.601562 -0.484375,2.523437 -0.476563,0.914063 -1.398438,1.421875 -0.914062,0.507813 -2,0.507813 -1.742187,0 -2.820312,-1.117188 -1.070313,-1.117187 -1.070313,-3.21875 z m 1.445313,0 q 0,1.59375 0.695312,2.390625 0.695313,0.789063 1.75,0.789063 1.046875,0 1.742188,-0.796875 0.695312,-0.796875 0.695312,-2.429688 0,-1.539062 -0.703125,-2.328125 -0.695312,-0.796875 -1.734375,-0.796875 -1.054687,0 -1.75,0.789063 -0.695312,0.789062 -0.695312,2.382812 z M 100.57813,30 v -1.601563 h 1.60156 V 30 q 0,0.882812 -0.3125,1.421875 -0.3125,0.546875 -0.99219,0.84375 l -0.39062,-0.601563 q 0.44531,-0.195312 0.65625,-0.578125 0.21093,-0.375 0.23437,-1.085937 z m 8.52343,0 V 18.546875 h 1.40625 v 4.109375 q 0.98438,-1.140625 2.48438,-1.140625 0.92187,0 1.60156,0.367187 0.67969,0.359375 0.96875,1 0.29688,0.640625 0.29688,1.859375 V 30 h -1.40625 v -5.257813 q 0,-1.054687 -0.46094,-1.53125 -0.45313,-0.484375 -1.28906,-0.484375 -0.625,0 -1.17969,0.328125 -0.54688,0.320313 -0.78125,0.875 -0.23438,0.554688 -0.23438,1.53125 V 30 Z m 14.57813,-2.671875 1.45312,0.179687 q -0.34375,1.273438 -1.27343,1.976563 -0.92969,0.703125 -2.375,0.703125 -1.82032,0 -2.89063,-1.117188 -1.0625,-1.125 -1.0625,-3.148437 0,-2.09375 1.07813,-3.25 1.07812,-1.15625 2.79687,-1.15625 1.66406,0 2.71875,1.132812 1.05469,1.132813 1.05469,3.1875 0,0.125 -0.008,0.375 h -6.1875 q 0.0781,1.367188 0.77343,2.09375 0.69532,0.726563 1.73438,0.726563 0.77344,0 1.32031,-0.40625 0.54688,-0.40625 0.86719,-1.296875 z m -4.61719,-2.273438 h 4.63281 q -0.0937,-1.046875 -0.53125,-1.570312 -0.67187,-0.8125 -1.74218,-0.8125 -0.96875,0 -1.63282,0.648437 -0.65625,0.648438 -0.72656,1.734375 z M 126.86719,30 V 18.546875 h 1.40625 V 30 Z m 3.55468,0 V 18.546875 h 1.40625 V 30 Z m 3.0625,-4.148438 q 0,-2.304687 1.28125,-3.414062 1.07032,-0.921875 2.60938,-0.921875 1.71094,0 2.79687,1.125 1.08594,1.117187 1.08594,3.09375 0,1.601562 -0.48437,2.523437 -0.47657,0.914063 -1.39844,1.421875 -0.91406,0.507813 -2,0.507813 -1.74219,0 -2.82031,-1.117188 -1.07032,-1.117187 -1.07032,-3.21875 z m 1.44532,0 q 0,1.59375 0.69531,2.390625 0.69531,0.789063 1.75,0.789063 1.04687,0 1.74219,-0.796875 0.69531,-0.796875 0.69531,-2.429688 0,-1.539062 -0.70313,-2.328125 -0.69531,-0.796875 -1.73437,-0.796875 -1.05469,0 -1.75,0.789063 -0.69531,0.789062 -0.69531,2.382812 z M 143.27344,30 V 28.398437 H 144.875 V 30 q 0,0.882812 -0.3125,1.421875 -0.3125,0.546875 -0.99219,0.84375 l -0.39062,-0.601563 q 0.44531,-0.195312 0.65625,-0.578125 0.21093,-0.375 0.23437,-1.085937 z m 8.52343,0 V 18.546875 h 1.40625 v 4.109375 q 0.98438,-1.140625 2.48438,-1.140625 0.92187,0 1.60156,0.367187 0.67969,0.359375 0.96875,1 0.29688,0.640625 0.29688,1.859375 V 30 h -1.40625 v -5.257813 q 0,-1.054687 -0.46094,-1.53125 -0.45313,-0.484375 -1.28906,-0.484375 -0.625,0 -1.17969,0.328125 -0.54688,0.320313 -0.78125,0.875 -0.23438,0.554688 -0.23438,1.53125 V 30 Z m 14.57813,-2.671875 1.45312,0.179687 q -0.34375,1.273438 -1.27343,1.976563 -0.92969,0.703125 -2.375,0.703125 -1.82032,0 -2.89063,-1.117188 -1.0625,-1.125 -1.0625,-3.148437 0,-2.09375 1.07813,-3.25 1.07812,-1.15625 2.79687,-1.15625 1.66406,0 2.71875,1.132812 1.05469,1.132813 1.05469,3.1875 0,0.125 -0.008,0.375 h -6.1875 q 0.0781,1.367188 0.77343,2.09375 0.69532,0.726563 1.73438,0.726563 0.77344,0 1.32031,-0.40625 0.54688,-0.40625 0.86719,-1.296875 z m -4.61719,-2.273438 h 4.63281 q -0.0937,-1.046875 -0.53125,-1.570312 -0.67187,-0.8125 -1.74218,-0.8125 -0.96875,0 -1.63282,0.648437 -0.65625,0.648438 -0.72656,1.734375 z M 169.5625,30 V 18.546875 h 1.40625 V 30 Z m 3.55469,0 V 18.546875 h 1.40625 V 30 Z m 3.0625,-4.148438 q 0,-2.304687 1.28125,-3.414062 1.07031,-0.921875 2.60937,-0.921875 1.71094,0 2.79688,1.125 1.08593,1.117187 1.08593,3.09375 0,1.601562 -0.48437,2.523437 -0.47656,0.914063 -1.39844,1.421875 -0.91406,0.507813 -2,0.507813 -1.74219,0 -2.82031,-1.117188 -1.07031,-1.117187 -1.07031,-3.21875 z m 1.44531,0 q 0,1.59375 0.69531,2.390625 0.69531,0.789063 1.75,0.789063 1.04688,0 1.74219,-0.796875 0.69531,-0.796875 0.69531,-2.429688 0,-1.539062 -0.70312,-2.328125 -0.69532,-0.796875 -1.73438,-0.796875 -1.05469,0 -1.75,0.789063 -0.69531,0.789062 -0.69531,2.382812 z M 185.96875,30 v -1.601563 h 1.60156 V 30 q 0,0.882812 -0.3125,1.421875 -0.3125,0.546875 -0.99219,0.84375 L 185.875,31.664062 q 0.44531,-0.195312 0.65625,-0.578125 0.21094,-0.375 0.23437,-1.085937 z m 8.52344,0 V 18.546875 h 1.40625 v 4.109375 q 0.98437,-1.140625 2.48437,-1.140625 0.92188,0 1.60156,0.367187 0.67969,0.359375 0.96875,1 0.29688,0.640625 0.29688,1.859375 V 30 h -1.40625 v -5.257813 q 0,-1.054687 -0.46094,-1.53125 -0.45312,-0.484375 -1.28906,-0.484375 -0.625,0 -1.17969,0.328125 -0.54687,0.320313 -0.78125,0.875 -0.23437,0.554688 -0.23437,1.53125 V 30 Z m 14.57812,-2.671875 1.45313,0.179687 q -0.34375,1.273438 -1.27344,1.976563 -0.92969,0.703125 -2.375,0.703125 -1.82031,0 -2.89063,-1.117188 -1.0625,-1.125 -1.0625,-3.148437 0,-2.09375 1.07813,-3.25 1.07812,-1.15625 2.79687,-1.15625 1.66407,0 2.71875,1.132812 1.05469,1.132813 1.05469,3.1875 0,0.125 -0.008,0.375 h -6.1875 q 0.0781,1.367188 0.77344,2.09375 0.69531,0.726563 1.73437,0.726563 0.77344,0 1.32031,-0.40625 0.54688,-0.40625 0.86719,-1.296875 z m -4.61719,-2.273438 h 4.63282 q -0.0937,-1.046875 -0.53125,-1.570312 -0.67188,-0.8125 -1.74219,-0.8125 -0.96875,0 -1.63281,0.648437 -0.65625,0.648438 -0.72657,1.734375 z M 212.25781,30 V 18.546875 h 1.40625 V 30 Z m 3.55469,0 V 18.546875 h 1.40625 V 30 Z m 3.0625,-4.148438 q 0,-2.304687 1.28125,-3.414062 1.07031,-0.921875 2.60937,-0.921875 1.71094,0 2.79688,1.125 1.08594,1.117187 1.08594,3.09375 0,1.601562 -0.48438,2.523437 -0.47656,0.914063 -1.39844,1.421875 -0.91406,0.507813 -2,0.507813 -1.74218,0 -2.82031,-1.117188 -1.07031,-1.117187 -1.07031,-3.21875 z m 1.44531,0 q 0,1.59375 0.69531,2.390625 0.69532,0.789063 1.75,0.789063 1.04688,0 1.74219,-0.796875 0.69531,-0.796875 0.69531,-2.429688 0,-1.539062 -0.70312,-2.328125 -0.69531,-0.796875 -1.73438,-0.796875 -1.05468,0 -1.75,0.789063 -0.69531,0.789062 -0.69531,2.382812 z M 228.66406,30 v -1.601563 h 1.60156 V 30 q 0,0.882812 -0.3125,1.421875 -0.3125,0.546875 -0.99218,0.84375 l -0.39063,-0.601563 q 0.44531,-0.195312 0.65625,-0.578125 0.21094,-0.375 0.23438,-1.085937 z m 8.52344,0 V 18.546875 h 1.40625 v 4.109375 q 0.98437,-1.140625 2.48437,-1.140625 0.92188,0 1.60157,0.367187 0.67968,0.359375 0.96875,1 0.29687,0.640625 0.29687,1.859375 V 30 h -1.40625 v -5.257813 q 0,-1.054687 -0.46094,-1.53125 -0.45312,-0.484375 -1.28906,-0.484375 -0.625,0 -1.17969,0.328125 -0.54687,0.320313 -0.78125,0.875 -0.23437,0.554688 -0.23437,1.53125 V 30 Z m 14.57812,-2.671875 1.45313,0.179687 q -0.34375,1.273438 -1.27344,1.976563 -0.92969,0.703125 -2.375,0.703125 -1.82031,0 -2.89062,-1.117188 -1.0625,-1.125 -1.0625,-3.148437 0,-2.09375 1.07812,-3.25 1.07813,-1.15625 2.79688,-1.15625 1.66406,0 2.71875,1.132812 1.05468,1.132813 1.05468,3.1875 0,0.125 -0.008,0.375 h -6.1875 q 0.0781,1.367188 0.77344,2.09375 0.69531,0.726563 1.73437,0.726563 0.77344,0 1.32032,-0.40625 0.54687,-0.40625 0.86718,-1.296875 z m -4.61718,-2.273438 h 4.63281 q -0.0937,-1.046875 -0.53125,-1.570312 -0.67188,-0.8125 -1.74219,-0.8125 -0.96875,0 -1.63281,0.648437 -0.65625,0.648438 -0.72656,1.734375 z M 254.95312,30 V 18.546875 h 1.40625 V 30 Z m 3.55469,0 V 18.546875 h 1.40625 V 30 Z m 3.0625,-4.148438 q 0,-2.304687 1.28125,-3.414062 1.07031,-0.921875 2.60938,-0.921875 1.71093,0 2.79687,1.125 1.08594,1.117187 1.08594,3.09375 0,1.601562 -0.48438,2.523437 -0.47656,0.914063 -1.39843,1.421875 -0.91407,0.507813 -2,0.507813 -1.74219,0 -2.82032,-1.117188 -1.07031,-1.117187 -1.07031,-3.21875 z m 1.44531,0 q 0,1.59375 0.69532,2.390625 0.69531,0.789063 1.75,0.789063 1.04687,0 1.74218,-0.796875 0.69532,-0.796875 0.69532,-2.429688 0,-1.539062 -0.70313,-2.328125 -0.69531,-0.796875 -1.73437,-0.796875 -1.05469,0 -1.75,0.789063 -0.69532,0.789062 -0.69532,2.382812 z M 271.39062,30 v -1.601563 h 1.60157 V 30 Z"
     id="text1"
     style="font-size:16px;font-family:Arial"
     aria-label="Hello, hello, hello, hello, hello, hello." />
</svg>
