<?xml version="1.0" encoding="UTF-8" standalone="no"?>
<svg
   width="800"
   height="100"
   version="1.1"
   id="svg1"
   xmlns="http://www.w3.org/2000/svg"
   xmlns:svg="http://www.w3.org/2000/svg">
  <defs
     id="defs1" />
  <rect
     width="100%"
     height="100%"
     fill="#FFF"
     id="rect1" />
  <path
     d="M 21.28125,30 V 18.546875 h 1.515625 V 23.25 H 28.75 v -4.703125 h 1.515625 V 30 H 28.75 V 24.601562 H 22.796875 V 30 Z m 17.007812,-2.671875 1.453125,0.179687 q -0.34375,1.273438 -1.273437,1.976563 -0.929688,0.703125 -2.375,0.703125 -1.820313,0 -2.890625,-1.117188 -1.0625,-1.125 -1.0625,-3.148437 0,-2.09375 1.078125,-3.25 1.078125,-1.15625 2.796875,-1.15625 1.664062,0 2.71875,1.132812 1.054687,1.132813 1.054687,3.1875 0,0.125 -0.0078,0.375 h -6.1875 q 0.07813,1.367188 0.773437,2.09375 0.695313,0.726563 1.734375,0.726563 0.773438,0 1.320313,-0.40625 0.546875,-0.40625 0.867187,-1.296875 z m -4.617187,-2.273438 h 4.632812 q -0.09375,-1.046875 -0.53125,-1.570312 -0.671875,-0.8125 -1.742187,-0.8125 -0.96875,0 -1.632813,0.648437 -0.65625,0.648438 -0.726562,1.734375 z M 41.476562,30 V 18.546875 h 1.40625 V 30 Z m 3.554688,0 V 18.546875 H 46.4375 V 30 Z m 3.0625,-4.148438 q 0,-2.304687 1.28125,-3.414062 1.070312,-0.921875 2.609375,-0.921875 1.710937,0 2.796875,1.125 1.085937,1.117187 1.085937,3.09375 0,1.601562 -0.484375,2.523437 -0.476562,0.914063 -1.398437,1.421875 -0.914063,0.507813 -2,0.507813 -1.742188,0 -2.820313,-1.117188 -1.070312,-1.117187 -1.070312,-3.21875 z m 1.445312,0 q 0,1.59375 0.695313,2.390625 0.695312,0.789063 1.75,0.789063 1.046875,0 1.742187,-0.796875 0.695313,-0.796875 0.695313,-2.429688 0,-1.539062 -0.703125,-2.328125 -0.695313,-0.796875 -1.734375,-0.796875 -1.054688,0 -1.75,0.789063 -0.695313,0.789062 -0.695313,2.382812 z M 57.914062,30 v -1.601563 h 1.601563 V 30 Z m 8.71875,0 V 18.546875 h 1.515625 V 23.25 h 5.953125 v -4.703125 h 1.515625 V 30 H 74.101562 V 24.601562 H 68.148437 V 30 Z m 17.007813,-2.671875 1.453125,0.179687 q -0.34375,1.273438 -1.273438,1.976563 -0.929687,0.703125 -2.375,0.703125 -1.820312,0 -2.890625,-1.117188 -1.0625,-1.125 -1.0625,-3.148437 0,-2.09375 1.078125,-3.25 1.078125,-1.15625 2.796875,-1.15625 1.664063,0 2.71875,1.132812 1.054688,1.132813 1.054688,3.1875 0,0.125 -0.0078,0.375 h -6.1875 q 0.07813,1.367188 0.773438,2.09375 0.695312,0.726563 1.734375,0.726563 0.773437,0 1.320312,-0.40625 0.546875,-0.40625 0.867188,-1.296875 z M 79.023437,25.054687 H 83.65625 Q 83.5625,24.007812 83.125,23.484375 q -0.671875,-0.8125 -1.742188,-0.8125 -0.96875,0 -1.632812,0.648437 -0.65625,0.648438 -0.726563,1.734375 z M 86.828125,30 V 18.546875 h 1.40625 V 30 Z m 3.554687,0 V 18.546875 h 1.40625 V 30 Z m 3.0625,-4.148438 q 0,-2.304687 1.28125,-3.414062 1.070313,-0.921875 2.609375,-0.921875 1.710938,0 2.796873,1.125 1.08594,1.117187 1.08594,3.09375 0,1.601562 -0.48437,2.523437 -0.47657,0.914063 -1.398443,1.421875 -0.914062,0.507813 -2,0.507813 -1.742187,0 -2.820312,-1.117188 -1.070313,-1.117187 -1.070313,-3.21875 z m 1.445313,0 q 0,1.59375 0.695312,2.390625 0.695313,0.789063 1.75,0.789063 1.046875,0 1.742188,-0.796875 0.695312,-0.796875 0.695312,-2.429688 0,-1.539062 -0.703125,-2.328125 -0.695312,-0.796875 -1.734375,-0.796875 -1.054687,0 -1.75,0.789063 -0.695312,0.789062 -0.695312,2.382812 z M 103.26563,30 v -1.601563 h 1.60156 V 30 Z m 8.71875,0 V 18.546875 H 113.5 V 23.25 h 5.95313 v -4.703125 h 1.51562 V 30 h -1.51562 V 24.601562 H 113.5 V 30 Z m 17.00781,-2.671875 1.45312,0.179687 q -0.34375,1.273438 -1.27344,1.976563 -0.92968,0.703125 -2.37499,0.703125 -1.82032,0 -2.89063,-1.117188 -1.0625,-1.125 -1.0625,-3.148437 0,-2.09375 1.07813,-3.25 1.07812,-1.15625 2.79687,-1.15625 1.66406,0 2.71875,1.132812 1.05469,1.132813 1.05469,3.1875 0,0.125 -0.008,0.375 h -6.18749 q 0.0781,1.367188 0.77343,2.09375 0.69532,0.726563 1.73438,0.726563 0.77344,0 1.32031,-0.40625 0.54687,-0.40625 0.86719,-1.296875 z M 124.375,25.054687 h 4.63281 q -0.0937,-1.046875 -0.53125,-1.570312 -0.67187,-0.8125 -1.74218,-0.8125 -0.96875,0 -1.63282,0.648437 -0.65625,0.648438 -0.72656,1.734375 z M 132.17969,30 V 18.546875 h 1.40625 V 30 Z m 3.55468,0 V 18.546875 h 1.40625 V 30 Z m 3.0625,-4.148438 q 0,-2.304687 1.28125,-3.414062 1.07032,-0.921875 2.60938,-0.921875 1.71094,0 2.79687,1.125 1.08594,1.117187 1.08594,3.09375 0,1.601562 -0.48437,2.523437 -0.47657,0.914063 -1.39844,1.421875 -0.91406,0.507813 -2,0.507813 -1.74219,0 -2.82031,-1.117188 -1.07032,-1.117187 -1.07032,-3.21875 z m 1.44532,0 q 0,1.59375 0.69531,2.390625 0.69531,0.789063 1.75,0.789063 1.04687,0 1.74219,-0.796875 0.69531,-0.796875 0.69531,-2.429688 0,-1.539062 -0.70313,-2.328125 -0.69531,-0.796875 -1.73437,-0.796875 -1.05469,0 -1.75,0.789063 -0.69531,0.789062 -0.69531,2.382812 z M 148.61719,30 v -1.601563 h 1.60156 V 30 Z m 8.71875,0 V 18.546875 h 1.51562 V 23.25 h 5.95313 v -4.703125 h 1.51562 V 30 h -1.51562 v -5.398438 h -5.95313 V 30 Z m 17.00781,-2.671875 1.45312,0.179687 q -0.34375,1.273438 -1.27343,1.976563 -0.92969,0.703125 -2.375,0.703125 -1.82032,0 -2.89063,-1.117188 -1.0625,-1.125 -1.0625,-3.148437 0,-2.09375 1.07813,-3.25 1.07812,-1.15625 2.79687,-1.15625 1.66406,0 2.71875,1.132812 1.05469,1.132813 1.05469,3.1875 0,0.125 -0.008,0.375 h -6.1875 q 0.0781,1.367188 0.77343,2.09375 0.69532,0.726563 1.73438,0.726563 0.77344,0 1.32031,-0.40625 0.54688,-0.40625 0.86719,-1.296875 z m -4.61719,-2.273438 h 4.63281 q -0.0937,-1.046875 -0.53125,-1.570312 -0.67187,-0.8125 -1.74218,-0.8125 -0.96875,0 -1.63282,0.648437 -0.65625,0.648438 -0.72656,1.734375 z M 177.53125,30 V 18.546875 h 1.40625 V 30 Z m 3.55469,0 V 18.546875 h 1.40625 V 30 Z m 3.0625,-4.148438 q 0,-2.304687 1.28125,-3.414062 1.07031,-0.921875 2.60937,-0.921875 1.71094,0 2.79688,1.125 1.08593,1.117187 1.08593,3.09375 0,1.601562 -0.48437,2.523437 -0.47656,0.914063 -1.39844,1.421875 -0.91406,0.507813 -2,0.507813 -1.74219,0 -2.82031,-1.117188 -1.07031,-1.117187 -1.07031,-3.21875 z m 1.44531,0 q 0,1.59375 0.69531,2.390625 0.69531,0.789063 1.75,0.789063 1.04688,0 1.74219,-0.796875 0.69531,-0.796875 0.69531,-2.429688 0,-1.539062 -0.70312,-2.328125 -0.69532,-0.796875 -1.73438,-0.796875 -1.05469,0 -1.75,0.789063 -0.69531,0.789062 -0.69531,2.382812 z M 193.96875,30 v -1.601563 h 1.60156 V 30 Z M 208,25.507812 v -1.34375 l 4.85156,-0.0078 v 4.25 q -1.11719,0.890625 -2.30469,1.34375 -1.1875,0.445312 -2.4375,0.445312 -1.6875,0 -3.07031,-0.71875 -1.375,-0.726562 -2.07812,-2.09375 -0.70313,-1.367187 -0.70313,-3.054687 0,-1.671875 0.69531,-3.117188 0.70313,-1.453125 2.01563,-2.15625 1.3125,-0.703125 3.02344,-0.703125 1.24218,0 2.24218,0.40625 1.00782,0.398438 1.57813,1.117188 0.57031,0.71875 0.86719,1.875 l -1.36719,0.375 q -0.25781,-0.875 -0.64063,-1.375 -0.38281,-0.5 -1.09375,-0.796875 -0.71093,-0.304688 -1.57812,-0.304688 -1.03906,0 -1.79688,0.320313 -0.75781,0.3125 -1.22656,0.828125 -0.46094,0.515625 -0.71875,1.132812 -0.4375,1.0625 -0.4375,2.304688 0,1.53125 0.52344,2.5625 0.53125,1.03125 1.53906,1.53125 1.00781,0.5 2.14063,0.5 0.98437,0 1.92187,-0.375 0.9375,-0.382813 1.42188,-0.8125 v -2.132813 z m 6.38281,0.34375 q 0,-2.304687 1.28125,-3.414062 1.07031,-0.921875 2.60938,-0.921875 1.71093,0 2.79687,1.125 1.08594,1.117187 1.08594,3.09375 0,1.601562 -0.48438,2.523437 -0.47656,0.914063 -1.39843,1.421875 -0.91407,0.507813 -2,0.507813 -1.74219,0 -2.82032,-1.117188 -1.07031,-1.117187 -1.07031,-3.21875 z m 1.44531,0 q 0,1.59375 0.69532,2.390625 0.69531,0.789063 1.75,0.789063 1.04687,0 1.74218,-0.796875 0.69532,-0.796875 0.69532,-2.429688 0,-1.539062 -0.70313,-2.328125 -0.69531,-0.796875 -1.73437,-0.796875 -1.05469,0 -1.75,0.789063 -0.69532,0.789062 -0.69532,2.382812 z m 7.45313,0 q 0,-2.304687 1.28125,-3.414062 1.07031,-0.921875 2.60937,-0.921875 1.71094,0 2.79688,1.125 1.08594,1.117187 1.08594,3.09375 0,1.601562 -0.48438,2.523437 -0.47656,0.914063 -1.39844,1.421875 -0.91406,0.507813 -2,0.507813 -1.74218,0 -2.82031,-1.117188 -1.07031,-1.117187 -1.07031,-3.21875 z m 1.44531,0 q 0,1.59375 0.69531,2.390625 0.69532,0.789063 1.75,0.789063 1.04688,0 1.74219,-0.796875 0.69531,-0.796875 0.69531,-2.429688 0,-1.539062 -0.70312,-2.328125 -0.69531,-0.796875 -1.73438,-0.796875 -1.05468,0 -1.75,0.789063 -0.69531,0.789062 -0.69531,2.382812 z M 238.08594,30 v -1.046875 q -0.78907,1.234375 -2.32032,1.234375 -0.99218,0 -1.82812,-0.546875 -0.82813,-0.546875 -1.28906,-1.523438 -0.45313,-0.984375 -0.45313,-2.257812 0,-1.242188 0.41406,-2.25 0.41407,-1.015625 1.24219,-1.554688 0.82813,-0.539062 1.85156,-0.539062 0.75,0 1.33594,0.320312 0.58594,0.3125 0.95313,0.820313 v -4.109375 h 1.39843 V 30 Z m -4.44532,-4.140625 q 0,1.59375 0.67188,2.382812 0.67187,0.789063 1.58594,0.789063 0.92187,0 1.5625,-0.75 0.64843,-0.757813 0.64843,-2.304688 0,-1.703125 -0.65625,-2.5 -0.65625,-0.796875 -1.61718,-0.796875 -0.9375,0 -1.57032,0.765625 -0.625,0.765625 -0.625,2.414063 z m 15.47657,2.882812 0.20312,1.242188 q -0.59375,0.125 -1.0625,0.125 -0.76562,0 -1.1875,-0.242188 -0.42187,-0.242187 -0.59375,-0.632812 -0.17187,-0.398438 -0.17187,-1.664063 v -4.773437 h -1.03125 v -1.09375 h 1.03125 v -2.054688 l 1.39843,-0.84375 v 2.898438 h 1.41407 v 1.09375 h -1.41407 v 4.851562 q 0,0.601563 0.0703,0.773438 0.0781,0.171875 0.24218,0.273437 0.17188,0.101563 0.48438,0.101563 0.23437,0 0.61719,-0.05469 z m 0.85156,-2.890625 q 0,-2.304687 1.28125,-3.414062 1.07031,-0.921875 2.60937,-0.921875 1.71094,0 2.79688,1.125 1.08594,1.117187 1.08594,3.09375 0,1.601562 -0.48438,2.523437 -0.47656,0.914063 -1.39844,1.421875 -0.91406,0.507813 -2,0.507813 -1.74218,0 -2.82031,-1.117188 -1.07031,-1.117187 -1.07031,-3.21875 z m 1.44531,0 q 0,1.59375 0.69531,2.390625 0.69532,0.789063 1.75,0.789063 1.04688,0 1.74219,-0.796875 0.69531,-0.796875 0.69531,-2.429688 0,-1.539062 -0.70312,-2.328125 -0.69531,-0.796875 -1.73438,-0.796875 -1.05468,0 -1.75,0.789063 -0.69531,0.789062 -0.69531,2.382812 z M 259.78906,30 v -1.601563 h 1.60156 V 30 Z m 8.71875,0 V 18.546875 h 1.51563 V 23.25 h 5.95312 v -4.703125 h 1.51563 V 30 h -1.51563 v -5.398438 h -5.95312 V 30 Z m 17.00781,-2.671875 1.45313,0.179687 q -0.34375,1.273438 -1.27344,1.976563 -0.92969,0.703125 -2.375,0.703125 -1.82031,0 -2.89062,-1.117188 -1.0625,-1.125 -1.0625,-3.148437 0,-2.09375 1.07812,-3.25 1.07813,-1.15625 2.79688,-1.15625 1.66406,0 2.71875,1.132812 1.05468,1.132813 1.05468,3.1875 0,0.125 -0.008,0.375 h -6.1875 q 0.0781,1.367188 0.77344,2.09375 0.69531,0.726563 1.73437,0.726563 0.77344,0 1.32032,-0.40625 0.54687,-0.40625 0.86718,-1.296875 z m -4.61718,-2.273438 h 4.63281 Q 285.4375,24.007812 285,23.484375 q -0.67188,-0.8125 -1.74219,-0.8125 -0.96875,0 -1.63281,0.648437 -0.65625,0.648438 -0.72656,1.734375 z M 288.70312,30 V 18.546875 h 1.40625 V 30 Z m 3.55469,0 V 18.546875 h 1.40625 V 30 Z m 3.0625,-4.148438 q 0,-2.304687 1.28125,-3.414062 1.07031,-0.921875 2.60938,-0.921875 1.71093,0 2.79687,1.125 1.08594,1.117187 1.08594,3.09375 0,1.601562 -0.48438,2.523437 -0.47656,0.914063 -1.39843,1.421875 -0.91407,0.507813 -2,0.507813 -1.74219,0 -2.82032,-1.117188 -1.07031,-1.117187 -1.07031,-3.21875 z m 1.44531,0 q 0,1.59375 0.69532,2.390625 0.69531,0.789063 1.75,0.789063 1.04687,0 1.74218,-0.796875 0.69532,-0.796875 0.69532,-2.429688 0,-1.539062 -0.70313,-2.328125 -0.69531,-0.796875 -1.73437,-0.796875 -1.05469,0 -1.75,0.789063 -0.69532,0.789062 -0.69532,2.382812 z M 305.14062,30 v -1.601563 h 1.60157 V 30 Z"
     id="text1"
     style="font-size:16px;font-family:Arial"
     aria-label="Hello. Hello. Hello. Hello. Good to. Hello." />
</svg>
