<?xml version="1.0" encoding="UTF-8" standalone="no"?>
<svg
   width="800"
   height="100"
   version="1.1"
   id="svg1"
   xmlns="http://www.w3.org/2000/svg"
   xmlns:svg="http://www.w3.org/2000/svg">
  <defs
     id="defs1" />
  <rect
     width="100%"
     height="100%"
     fill="#FFF"
     id="rect1" />
  <path
     d="M 23.234375,30 20.195312,18.546875 H 21.75 l 1.742187,7.507812 q 0.28125,1.179688 0.484375,2.34375 0.4375,-1.835937 0.515625,-2.117187 l 2.179688,-7.734375 H 28.5 l 1.640625,5.796875 Q 30.757812,26.5 31.03125,28.398437 31.25,27.3125 31.601562,25.90625 l 1.796875,-7.359375 h 1.523438 L 31.78125,30 H 30.320312 L 27.90625,21.273437 q -0.304688,-1.09375 -0.359375,-1.34375 -0.179688,0.789063 -0.335938,1.34375 L 24.78125,30 Z M 41.546875,27.328125 43,27.507812 q -0.34375,1.273438 -1.273438,1.976563 -0.929687,0.703125 -2.375,0.703125 -1.820312,0 -2.890625,-1.117188 -1.0625,-1.125 -1.0625,-3.148437 0,-2.09375 1.078125,-3.25 1.078125,-1.15625 2.796875,-1.15625 1.664063,0 2.71875,1.132812 1.054688,1.132813 1.054688,3.1875 0,0.125 -0.0078,0.375 h -6.1875 q 0.07813,1.367188 0.773438,2.09375 0.695312,0.726563 1.734375,0.726563 0.773437,0 1.320312,-0.40625 0.546875,-0.40625 0.867188,-1.296875 z M 36.929687,25.054687 H 41.5625 q -0.09375,-1.046875 -0.53125,-1.570312 -0.671875,-0.8125 -1.742188,-0.8125 -0.96875,0 -1.632812,0.648437 Q 37,23.96875 36.929687,25.054687 Z m 7.84375,-2.453125 -0.359375,-2.140625 v -1.914062 h 1.601563 v 1.914062 l -0.375,2.140625 z M 47.804687,30 v -8.296875 h 1.265625 v 1.257812 q 0.484375,-0.882812 0.890625,-1.164062 0.414063,-0.28125 0.90625,-0.28125 0.710938,0 1.445313,0.453125 l -0.484375,1.304687 Q 51.3125,22.96875 50.796875,22.96875 q -0.460938,0 -0.828125,0.28125 -0.367188,0.273437 -0.523438,0.765625 -0.234375,0.75 -0.234375,1.640625 V 30 Z m 11.023438,-2.671875 1.453125,0.179687 q -0.34375,1.273438 -1.273438,1.976563 -0.929687,0.703125 -2.375,0.703125 -1.820312,0 -2.890625,-1.117188 -1.0625,-1.125 -1.0625,-3.148437 0,-2.09375 1.078125,-3.25 1.078125,-1.15625 2.796875,-1.15625 1.664063,0 2.71875,1.132812 1.054688,1.132813 1.054688,3.1875 0,0.125 -0.0078,0.375 h -6.1875 q 0.07813,1.367188 0.773438,2.09375 0.695312,0.726563 1.734375,0.726563 0.773437,0 1.320312,-0.40625 0.546875,-0.40625 0.867188,-1.296875 z M 54.210937,25.054687 H 58.84375 Q 58.75,24.007812 58.3125,23.484375 q -0.671875,-0.8125 -1.742188,-0.8125 -0.96875,0 -1.632812,0.648437 -0.65625,0.648438 -0.726563,1.734375 z m 17.695313,1.90625 1.382812,0.179688 Q 73.0625,28.570312 72.125,29.382812 71.195312,30.1875 69.835937,30.1875 q -1.703125,0 -2.742187,-1.109375 -1.03125,-1.117188 -1.03125,-3.195313 0,-1.34375 0.445312,-2.351562 0.445313,-1.007813 1.351563,-1.507813 0.914062,-0.507812 1.984375,-0.507812 1.351562,0 2.210937,0.6875 0.859375,0.679687 1.101563,1.9375 l -1.367188,0.210937 Q 71.59375,23.515625 71.09375,23.09375 q -0.492188,-0.421875 -1.195313,-0.421875 -1.0625,0 -1.726562,0.765625 -0.664063,0.757812 -0.664063,2.40625 0,1.671875 0.640625,2.429687 0.640625,0.757813 1.671875,0.757813 0.828125,0 1.382813,-0.507813 0.554687,-0.507812 0.703125,-1.5625 z M 74.476562,30 v -8.296875 h 1.265625 v 1.257812 q 0.484375,-0.882812 0.890625,-1.164062 0.414063,-0.28125 0.90625,-0.28125 0.710938,0 1.445313,0.453125 L 78.5,23.273437 q -0.515625,-0.304687 -1.03125,-0.304687 -0.460938,0 -0.828125,0.28125 -0.367188,0.273437 -0.523438,0.765625 -0.234375,0.75 -0.234375,1.640625 V 30 Z m 10.757813,-1.023438 q -0.78125,0.664063 -1.507813,0.9375 -0.71875,0.273438 -1.546875,0.273438 -1.367187,0 -2.101562,-0.664063 -0.734375,-0.671875 -0.734375,-1.710937 0,-0.609375 0.273437,-1.109375 0.28125,-0.507813 0.726563,-0.8125 0.453125,-0.304688 1.015625,-0.460938 0.414062,-0.109375 1.25,-0.210937 1.703125,-0.203125 2.507812,-0.484375 0.0078,-0.289063 0.0078,-0.367188 0,-0.859375 -0.398438,-1.210937 Q 84.1875,22.679687 83.125,22.679687 q -0.992188,0 -1.46875,0.351563 -0.46875,0.34375 -0.695313,1.226562 l -1.375,-0.1875 q 0.1875,-0.882812 0.617188,-1.421875 0.429687,-0.546875 1.242187,-0.835937 0.8125,-0.296875 1.882813,-0.296875 1.0625,0 1.726562,0.25 0.664063,0.25 0.976563,0.632812 0.3125,0.375 0.4375,0.953125 0.07031,0.359375 0.07031,1.296875 v 1.875 q 0,1.960938 0.08594,2.484375 Q 86.71875,29.523437 86.984375,30 h -1.46875 q -0.21875,-0.4375 -0.28125,-1.023438 z m -0.117188,-3.140625 q -0.765625,0.3125 -2.296875,0.53125 -0.867187,0.125 -1.226562,0.28125 -0.359375,0.15625 -0.554688,0.460938 -0.195312,0.296875 -0.195312,0.664062 0,0.5625 0.421875,0.9375 0.429687,0.375 1.25,0.375 0.8125,0 1.445312,-0.351562 0.632813,-0.359375 0.929688,-0.976563 0.226562,-0.476562 0.226562,-1.40625 z m 9.015625,1.125 1.382813,0.179688 q -0.226563,1.429687 -1.164063,2.242187 -0.929687,0.804688 -2.289062,0.804688 -1.703125,0 -2.742188,-1.109375 -1.03125,-1.117188 -1.03125,-3.195313 0,-1.34375 0.445313,-2.351562 0.445312,-1.007813 1.351562,-1.507813 Q 91,21.515625 92.070312,21.515625 q 1.351563,0 2.210938,0.6875 0.859375,0.679687 1.101562,1.9375 l -1.367187,0.210937 Q 93.820312,23.515625 93.320312,23.09375 92.828125,22.671875 92.125,22.671875 q -1.0625,0 -1.726563,0.765625 -0.664062,0.757812 -0.664062,2.40625 0,1.671875 0.640625,2.429687 0.640625,0.757813 1.671875,0.757813 0.828125,0 1.382812,-0.507813 0.554688,-0.507812 0.703125,-1.5625 z M 96.726562,30 V 18.546875 h 1.40625 v 6.53125 l 3.328128,-3.375 h 1.82031 L 100.10938,24.78125 103.60156,30 h -1.73437 L 99.125,25.757812 98.132812,26.710937 V 30 Z m 7.999998,-9.835938 v -1.617187 h 1.40625 v 1.617187 z m 0,9.835938 v -8.296875 h 1.40625 V 30 Z m 3.54688,0 v -8.296875 h 1.26562 v 1.179687 q 0.91407,-1.367187 2.64063,-1.367187 0.75,0 1.375,0.273437 0.63281,0.265625 0.94531,0.703125 0.3125,0.4375 0.4375,1.039063 0.0781,0.390625 0.0781,1.367187 V 30 h -1.40625 v -5.046875 q 0,-0.859375 -0.16407,-1.28125 -0.16406,-0.429688 -0.58593,-0.679688 -0.41407,-0.257812 -0.97657,-0.257812 -0.89843,0 -1.55468,0.570312 -0.64844,0.570313 -0.64844,2.164063 V 30 Z m 8.64062,0.6875 1.36719,0.203125 q 0.0859,0.632812 0.47656,0.921875 0.52344,0.390625 1.42969,0.390625 0.97656,0 1.50781,-0.390625 0.53125,-0.390625 0.71875,-1.09375 0.10938,-0.429688 0.10157,-1.804688 Q 121.59375,30 120.21875,30 q -1.71094,0 -2.64844,-1.234375 -0.9375,-1.234375 -0.9375,-2.960938 0,-1.1875 0.42969,-2.1875 0.42969,-1.007812 1.24219,-1.554687 0.82031,-0.546875 1.92187,-0.546875 1.46875,0 2.42188,1.1875 v -1 h 1.29687 V 28.875 q 0,1.9375 -0.39843,2.742187 -0.39063,0.8125 -1.25,1.28125 -0.85157,0.46875 -2.10157,0.46875 -1.48437,0 -2.39843,-0.671875 -0.91407,-0.664062 -0.88282,-2.007812 z m 1.16407,-4.984375 q 0,1.632812 0.64843,2.382812 0.64844,0.75 1.625,0.75 0.96875,0 1.625,-0.742187 0.65625,-0.75 0.65625,-2.34375 0,-1.523438 -0.67968,-2.296875 -0.67188,-0.773438 -1.625,-0.773438 -0.9375,0 -1.59375,0.765625 -0.65625,0.757813 -0.65625,2.257813 z m 11.87499,1.820312 1.39063,-0.21875 q 0.11719,0.835938 0.64844,1.28125 0.53906,0.445313 1.5,0.445313 0.96875,0 1.4375,-0.390625 0.46875,-0.398438 0.46875,-0.929688 0,-0.476562 -0.41407,-0.75 -0.28906,-0.1875 -1.4375,-0.476562 Q 132,26.09375 131.39844,25.8125 q -0.59375,-0.289063 -0.90625,-0.789063 -0.30469,-0.507812 -0.30469,-1.117187 0,-0.554688 0.25,-1.023438 0.25781,-0.476562 0.69531,-0.789062 0.32813,-0.242188 0.89063,-0.40625 0.57031,-0.171875 1.21875,-0.171875 0.97656,0 1.71093,0.28125 0.74219,0.28125 1.09375,0.765625 0.35157,0.476562 0.48438,1.28125 l -1.375,0.1875 q -0.0937,-0.640625 -0.54688,-1 -0.44531,-0.359375 -1.26562,-0.359375 -0.96875,0 -1.38281,0.320312 -0.41407,0.320313 -0.41407,0.75 0,0.273438 0.17188,0.492188 0.17187,0.226562 0.53906,0.375 0.21094,0.07813 1.24219,0.359375 1.49219,0.398437 2.07812,0.65625 0.59375,0.25 0.92969,0.734375 0.33594,0.484375 0.33594,1.203125 0,0.703125 -0.41406,1.328125 -0.40625,0.617187 -1.17969,0.960937 -0.77344,0.335938 -1.75,0.335938 -1.61719,0 -2.46875,-0.671875 -0.84375,-0.671875 -1.07813,-1.992188 z m 8.03907,-1.671875 q 0,-2.304687 1.28125,-3.414062 1.07031,-0.921875 2.60937,-0.921875 1.71094,0 2.79688,1.125 1.08593,1.117187 1.08593,3.09375 0,1.601562 -0.48437,2.523437 -0.47656,0.914063 -1.39844,1.421875 -0.91406,0.507813 -2,0.507813 -1.74219,0 -2.82031,-1.117188 -1.07031,-1.117187 -1.07031,-3.21875 z m 1.44531,0 q 0,1.59375 0.69531,2.390625 0.69531,0.789063 1.75,0.789063 1.04688,0 1.74219,-0.796875 0.69531,-0.796875 0.69531,-2.429688 0,-1.539062 -0.70312,-2.328125 -0.69532,-0.796875 -1.73438,-0.796875 -1.05469,0 -1.75,0.789063 -0.69531,0.789062 -0.69531,2.382812 z M 147.41406,30 v -8.296875 h 1.25781 v 1.164062 q 0.39063,-0.609375 1.03907,-0.976562 0.64843,-0.375 1.47656,-0.375 0.92187,0 1.50781,0.382812 0.59375,0.382813 0.83594,1.070313 0.98437,-1.453125 2.5625,-1.453125 1.23437,0 1.89844,0.6875 0.66406,0.679687 0.66406,2.101562 V 30 h -1.39844 v -5.226563 q 0,-0.84375 -0.14062,-1.210937 -0.13282,-0.375 -0.49219,-0.601563 -0.35938,-0.226562 -0.84375,-0.226562 -0.875,0 -1.45313,0.585937 Q 153.75,23.898437 153.75,25.179687 V 30 h -1.40625 v -5.390625 q 0,-0.9375 -0.34375,-1.40625 -0.34375,-0.46875 -1.125,-0.46875 -0.59375,0 -1.10156,0.3125 -0.5,0.3125 -0.72657,0.914062 -0.22656,0.601563 -0.22656,1.734375 V 30 Z m 19.00781,-2.671875 1.45313,0.179687 q -0.34375,1.273438 -1.27344,1.976563 -0.92969,0.703125 -2.375,0.703125 -1.82031,0 -2.89062,-1.117188 -1.0625,-1.125 -1.0625,-3.148437 0,-2.09375 1.07812,-3.25 1.07813,-1.15625 2.79688,-1.15625 1.66406,0 2.71875,1.132812 1.05468,1.132813 1.05468,3.1875 0,0.125 -0.008,0.375 h -6.1875 q 0.0781,1.367188 0.77344,2.09375 0.69531,0.726563 1.73437,0.726563 0.77344,0 1.32032,-0.40625 0.54687,-0.40625 0.86718,-1.296875 z m -4.61718,-2.273438 h 4.63281 q -0.0937,-1.046875 -0.53125,-1.570312 -0.67188,-0.8125 -1.74219,-0.8125 -0.96875,0 -1.63281,0.648437 -0.65625,0.648438 -0.72656,1.734375 z m 11.75781,0.796875 q 0,-2.304687 1.28125,-3.414062 1.07031,-0.921875 2.60937,-0.921875 1.71094,0 2.79688,1.125 1.08594,1.117187 1.08594,3.09375 0,1.601562 -0.48438,2.523437 -0.47656,0.914063 -1.39844,1.421875 -0.91406,0.507813 -2,0.507813 -1.74218,0 -2.82031,-1.117188 -1.07031,-1.117187 -1.07031,-3.21875 z m 1.44531,0 q 0,1.59375 0.69531,2.390625 0.69532,0.789063 1.75,0.789063 1.04688,0 1.74219,-0.796875 0.69531,-0.796875 0.69531,-2.429688 0,-1.539062 -0.70312,-2.328125 -0.69531,-0.796875 -1.73438,-0.796875 -1.05468,0 -1.75,0.789063 -0.69531,0.789062 -0.69531,2.382812 z M 183.32031,30 v -7.203125 h -1.24219 v -1.09375 h 1.24219 v -0.882813 q 0,-0.835937 0.14844,-1.242187 0.20312,-0.546875 0.71094,-0.882813 0.51562,-0.34375 1.4375,-0.34375 0.59375,0 1.3125,0.140625 l -0.21094,1.226563 q -0.4375,-0.07813 -0.82813,-0.07813 -0.64062,0 -0.90625,0.273437 -0.26562,0.273438 -0.26562,1.023438 v 0.765625 h 1.61719 v 1.09375 h -1.61719 V 30 Z m 11.625,-1.257813 0.20313,1.242188 q -0.59375,0.125 -1.0625,0.125 -0.76563,0 -1.1875,-0.242188 -0.42188,-0.242187 -0.59375,-0.632812 -0.17188,-0.398438 -0.17188,-1.664063 v -4.773437 h -1.03125 v -1.09375 h 1.03125 v -2.054688 l 1.39844,-0.84375 v 2.898438 h 1.41406 v 1.09375 h -1.41406 v 4.851562 q 0,0.601563 0.0703,0.773438 0.0781,0.171875 0.24219,0.273437 0.17187,0.101563 0.48437,0.101563 0.23438,0 0.61719,-0.05469 z M 196.32031,30 V 18.546875 h 1.40625 v 4.109375 q 0.98438,-1.140625 2.48438,-1.140625 0.92187,0 1.60156,0.367187 0.67969,0.359375 0.96875,1 0.29687,0.640625 0.29687,1.859375 V 30 h -1.40625 v -5.257813 q 0,-1.054687 -0.46093,-1.53125 -0.45313,-0.484375 -1.28907,-0.484375 -0.625,0 -1.17968,0.328125 -0.54688,0.320313 -0.78125,0.875 -0.23438,0.554688 -0.23438,1.53125 V 30 Z m 8.375,-4.148438 q 0,-2.304687 1.28125,-3.414062 1.07031,-0.921875 2.60938,-0.921875 1.71093,0 2.79687,1.125 1.08594,1.117187 1.08594,3.09375 0,1.601562 -0.48438,2.523437 -0.47656,0.914063 -1.39843,1.421875 -0.91407,0.507813 -2,0.507813 -1.74219,0 -2.82032,-1.117188 -1.07031,-1.117187 -1.07031,-3.21875 z m 1.44531,0 q 0,1.59375 0.69532,2.390625 0.69531,0.789063 1.75,0.789063 1.04687,0 1.74218,-0.796875 0.69532,-0.796875 0.69532,-2.429688 0,-1.539062 -0.70313,-2.328125 -0.69531,-0.796875 -1.73437,-0.796875 -1.05469,0 -1.75,0.789063 -0.69532,0.789062 -0.69532,2.382812 z m 7.41407,1.671875 1.39062,-0.21875 q 0.11719,0.835938 0.64844,1.28125 0.53906,0.445313 1.5,0.445313 0.96875,0 1.4375,-0.390625 Q 219,28.242187 219,27.710937 q 0,-0.476562 -0.41406,-0.75 -0.28907,-0.1875 -1.4375,-0.476562 Q 215.60156,26.09375 215,25.8125 q -0.59375,-0.289063 -0.90625,-0.789063 -0.30469,-0.507812 -0.30469,-1.117187 0,-0.554688 0.25,-1.023438 0.25781,-0.476562 0.69531,-0.789062 0.32813,-0.242188 0.89063,-0.40625 0.57031,-0.171875 1.21875,-0.171875 0.97656,0 1.71094,0.28125 0.74218,0.28125 1.09375,0.765625 0.35156,0.476562 0.48437,1.28125 l -1.375,0.1875 q -0.0937,-0.640625 -0.54687,-1 -0.44532,-0.359375 -1.26563,-0.359375 -0.96875,0 -1.38281,0.320312 -0.41406,0.320313 -0.41406,0.75 0,0.273438 0.17187,0.492188 0.17188,0.226562 0.53906,0.375 0.21094,0.07813 1.24219,0.359375 1.49219,0.398437 2.07813,0.65625 0.59375,0.25 0.92968,0.734375 0.33594,0.484375 0.33594,1.203125 0,0.703125 -0.41406,1.328125 -0.40625,0.617187 -1.17969,0.960937 -0.77344,0.335938 -1.75,0.335938 -1.61719,0 -2.46875,-0.671875 -0.84375,-0.671875 -1.07812,-1.992188 z m 14.24218,-0.195312 1.45313,0.179687 q -0.34375,1.273438 -1.27344,1.976563 -0.92969,0.703125 -2.375,0.703125 -1.82031,0 -2.89062,-1.117188 -1.0625,-1.125 -1.0625,-3.148437 0,-2.09375 1.07812,-3.25 1.07813,-1.15625 2.79688,-1.15625 1.66406,0 2.71875,1.132812 1.05468,1.132813 1.05468,3.1875 0,0.125 -0.008,0.375 h -6.1875 q 0.0781,1.367188 0.77344,2.09375 0.69531,0.726563 1.73437,0.726563 0.77344,0 1.32032,-0.40625 0.54687,-0.40625 0.86718,-1.296875 z m -4.61718,-2.273438 h 4.63281 q -0.0937,-1.046875 -0.53125,-1.570312 -0.67188,-0.8125 -1.74219,-0.8125 -0.96875,0 -1.63281,0.648437 -0.65625,0.648438 -0.72656,1.734375 z m 17.69531,1.90625 1.38281,0.179688 q -0.22656,1.429687 -1.16406,2.242187 -0.92969,0.804688 -2.28906,0.804688 -1.70313,0 -2.74219,-1.109375 -1.03125,-1.117188 -1.03125,-3.195313 0,-1.34375 0.44531,-2.351562 0.44531,-1.007813 1.35156,-1.507813 0.91407,-0.507812 1.98438,-0.507812 1.35156,0 2.21094,0.6875 0.85937,0.679687 1.10156,1.9375 l -1.36719,0.210937 q -0.19531,-0.835937 -0.69531,-1.257812 -0.49219,-0.421875 -1.19531,-0.421875 -1.0625,0 -1.72657,0.765625 -0.66406,0.757812 -0.66406,2.40625 0,1.671875 0.64063,2.429687 0.64062,0.757813 1.67187,0.757813 0.82813,0 1.38281,-0.507813 0.55469,-0.507812 0.70313,-1.5625 z M 243.42969,30 V 18.546875 h 1.40625 V 30 Z m 3.0625,-4.148438 q 0,-2.304687 1.28125,-3.414062 1.07031,-0.921875 2.60937,-0.921875 1.71094,0 2.79688,1.125 1.08593,1.117187 1.08593,3.09375 0,1.601562 -0.48437,2.523437 -0.47656,0.914063 -1.39844,1.421875 -0.91406,0.507813 -2,0.507813 -1.74219,0 -2.82031,-1.117188 -1.07031,-1.117187 -1.07031,-3.21875 z m 1.44531,0 q 0,1.59375 0.69531,2.390625 0.69531,0.789063 1.75,0.789063 1.04688,0 1.74219,-0.796875 0.69531,-0.796875 0.69531,-2.429688 0,-1.539062 -0.70312,-2.328125 -0.69532,-0.796875 -1.73438,-0.796875 -1.05469,0 -1.75,0.789063 -0.69531,0.789062 -0.69531,2.382812 z m 7.41406,1.671875 1.39063,-0.21875 q 0.11718,0.835938 0.64843,1.28125 0.53907,0.445313 1.5,0.445313 0.96875,0 1.4375,-0.390625 0.46875,-0.398438 0.46875,-0.929688 0,-0.476562 -0.41406,-0.75 -0.28906,-0.1875 -1.4375,-0.476562 -1.54687,-0.390625 -2.14844,-0.671875 -0.59375,-0.289063 -0.90625,-0.789063 -0.30468,-0.507812 -0.30468,-1.117187 0,-0.554688 0.25,-1.023438 0.25781,-0.476562 0.69531,-0.789062 0.32812,-0.242188 0.89062,-0.40625 0.57032,-0.171875 1.21875,-0.171875 0.97657,0 1.71094,0.28125 0.74219,0.28125 1.09375,0.765625 0.35156,0.476562 0.48438,1.28125 l -1.375,0.1875 q -0.0937,-0.640625 -0.54688,-1 -0.44531,-0.359375 -1.26562,-0.359375 -0.96875,0 -1.38282,0.320312 -0.41406,0.320313 -0.41406,0.75 0,0.273438 0.17188,0.492188 0.17187,0.226562 0.53906,0.375 0.21094,0.07813 1.24219,0.359375 1.49218,0.398437 2.07812,0.65625 0.59375,0.25 0.92969,0.734375 0.33594,0.484375 0.33594,1.203125 0,0.703125 -0.41407,1.328125 -0.40625,0.617187 -1.17968,0.960937 -0.77344,0.335938 -1.75,0.335938 -1.61719,0 -2.46875,-0.671875 -0.84375,-0.671875 -1.07813,-1.992188 z m 14.24219,-0.195312 1.45312,0.179687 q -0.34375,1.273438 -1.27343,1.976563 -0.92969,0.703125 -2.375,0.703125 -1.82032,0 -2.89063,-1.117188 -1.0625,-1.125 -1.0625,-3.148437 0,-2.09375 1.07813,-3.25 1.07812,-1.15625 2.79687,-1.15625 1.66406,0 2.71875,1.132812 1.05469,1.132813 1.05469,3.1875 0,0.125 -0.008,0.375 h -6.1875 q 0.0781,1.367188 0.77343,2.09375 0.69532,0.726563 1.73438,0.726563 0.77344,0 1.32031,-0.40625 0.54688,-0.40625 0.86719,-1.296875 z m -4.61719,-2.273438 h 4.63281 q -0.0937,-1.046875 -0.53125,-1.570312 -0.67187,-0.8125 -1.74218,-0.8125 -0.96875,0 -1.63282,0.648437 -0.65625,0.648438 -0.72656,1.734375 z M 278.19531,30 v -1.046875 q -0.78906,1.234375 -2.32031,1.234375 -0.99219,0 -1.82813,-0.546875 -0.82812,-0.546875 -1.28906,-1.523438 -0.45312,-0.984375 -0.45312,-2.257812 0,-1.242188 0.41406,-2.25 0.41406,-1.015625 1.24219,-1.554688 0.82812,-0.539062 1.85156,-0.539062 0.75,0 1.33594,0.320312 0.58593,0.3125 0.95312,0.820313 V 18.546875 H 279.5 V 30 Z M 273.75,25.859375 q 0,1.59375 0.67187,2.382812 0.67188,0.789063 1.58594,0.789063 0.92188,0 1.5625,-0.75 0.64844,-0.757813 0.64844,-2.304688 0,-1.703125 -0.65625,-2.5 -0.65625,-0.796875 -1.61719,-0.796875 -0.9375,0 -1.57031,0.765625 -0.625,0.765625 -0.625,2.414063 z M 287.45312,30 h -1.30468 V 18.546875 h 1.40625 v 4.085937 q 0.89062,-1.117187 2.27343,-1.117187 0.76563,0 1.44532,0.3125 0.6875,0.304687 1.125,0.867187 0.44531,0.554688 0.69531,1.34375 0.25,0.789063 0.25,1.6875 0,2.132813 -1.05469,3.296875 -1.05469,1.164063 -2.53125,1.164063 -1.46875,0 -2.30469,-1.226563 z m -0.0156,-4.210938 q 0,1.492188 0.40625,2.15625 0.66406,1.085938 1.79687,1.085938 0.92188,0 1.59375,-0.796875 0.67188,-0.804688 0.67188,-2.390625 0,-1.625 -0.64844,-2.398438 -0.64062,-0.773437 -1.55469,-0.773437 -0.92187,0 -1.59375,0.804687 -0.67187,0.796875 -0.67187,2.3125 z m 13.03125,3.1875 q -0.78125,0.664063 -1.50781,0.9375 -0.71875,0.273438 -1.54688,0.273438 -1.36719,0 -2.10156,-0.664063 -0.73438,-0.671875 -0.73438,-1.710937 0,-0.609375 0.27344,-1.109375 0.28125,-0.507813 0.72656,-0.8125 0.45313,-0.304688 1.01563,-0.460938 0.41406,-0.109375 1.25,-0.210937 1.70312,-0.203125 2.50781,-0.484375 0.008,-0.289063 0.008,-0.367188 0,-0.859375 -0.39843,-1.210937 -0.53907,-0.476563 -1.60157,-0.476563 -0.99218,0 -1.46875,0.351563 -0.46875,0.34375 -0.69531,1.226562 l -1.375,-0.1875 q 0.1875,-0.882812 0.61719,-1.421875 0.42969,-0.546875 1.24219,-0.835937 0.8125,-0.296875 1.88281,-0.296875 1.0625,0 1.72656,0.25 0.66406,0.25 0.97656,0.632812 0.3125,0.375 0.4375,0.953125 0.0703,0.359375 0.0703,1.296875 v 1.875 q 0,1.960938 0.0859,2.484375 0.0937,0.515625 0.35938,0.992188 H 300.75 q -0.21875,-0.4375 -0.28125,-1.023438 z m -0.11719,-3.140625 q -0.76562,0.3125 -2.29687,0.53125 -0.86719,0.125 -1.22657,0.28125 -0.35937,0.15625 -0.55468,0.460938 -0.19532,0.296875 -0.19532,0.664062 0,0.5625 0.42188,0.9375 0.42969,0.375 1.25,0.375 0.8125,0 1.44531,-0.351562 0.63281,-0.359375 0.92969,-0.976563 0.22656,-0.476562 0.22656,-1.40625 z m 3.34375,4.851563 1.36719,0.203125 q 0.0859,0.632812 0.47656,0.921875 0.52344,0.390625 1.42969,0.390625 0.97656,0 1.50781,-0.390625 0.53125,-0.390625 0.71875,-1.09375 0.10938,-0.429688 0.10156,-1.804688 Q 308.375,30 307,30 q -1.71094,0 -2.64844,-1.234375 -0.9375,-1.234375 -0.9375,-2.960938 0,-1.1875 0.42969,-2.1875 0.42969,-1.007812 1.24219,-1.554687 0.82031,-0.546875 1.92187,-0.546875 1.46875,0 2.42188,1.1875 v -1 h 1.29687 V 28.875 q 0,1.9375 -0.39844,2.742187 -0.39062,0.8125 -1.25,1.28125 -0.85156,0.46875 -2.10156,0.46875 -1.48437,0 -2.39844,-0.671875 -0.91406,-0.664062 -0.88281,-2.007812 z m 1.16406,-4.984375 q 0,1.632812 0.64844,2.382812 0.64844,0.75 1.625,0.75 0.96875,0 1.625,-0.742187 0.65625,-0.75 0.65625,-2.34375 0,-1.523438 -0.67969,-2.296875 -0.67187,-0.773438 -1.625,-0.773438 -0.9375,0 -1.59375,0.765625 -0.65625,0.757813 -0.65625,2.257813 z m 7.42969,1.820312 1.39063,-0.21875 q 0.11718,0.835938 0.64843,1.28125 0.53907,0.445313 1.5,0.445313 0.96875,0 1.4375,-0.390625 0.46875,-0.398438 0.46875,-0.929688 0,-0.476562 -0.41406,-0.75 -0.28906,-0.1875 -1.4375,-0.476562 -1.54687,-0.390625 -2.14844,-0.671875 -0.59375,-0.289063 -0.90625,-0.789063 -0.30468,-0.507812 -0.30468,-1.117187 0,-0.554688 0.25,-1.023438 0.25781,-0.476562 0.69531,-0.789062 0.32812,-0.242188 0.89062,-0.40625 0.57032,-0.171875 1.21875,-0.171875 0.97657,0 1.71094,0.28125 0.74219,0.28125 1.09375,0.765625 0.35156,0.476562 0.48438,1.28125 l -1.375,0.1875 q -0.0937,-0.640625 -0.54688,-1 -0.44531,-0.359375 -1.26562,-0.359375 -0.96875,0 -1.38282,0.320312 -0.41406,0.320313 -0.41406,0.75 0,0.273438 0.17188,0.492188 0.17187,0.226562 0.53906,0.375 0.21094,0.07813 1.24219,0.359375 1.49218,0.398437 2.07812,0.65625 0.59375,0.25 0.92969,0.734375 0.33594,0.484375 0.33594,1.203125 0,0.703125 -0.41407,1.328125 -0.40625,0.617187 -1.17968,0.960937 -0.77344,0.335938 -1.75,0.335938 -1.61719,0 -2.46875,-0.671875 -0.84375,-0.671875 -1.07813,-1.992188 z M 321.25,30 v -1.601563 h 1.60156 V 30 Z m 11.29687,0 V 19.898437 h -3.77343 v -1.351562 h 9.07812 v 1.351562 H 334.0625 V 30 Z m 10.58594,-2.671875 1.45313,0.179687 q -0.34375,1.273438 -1.27344,1.976563 -0.92969,0.703125 -2.375,0.703125 -1.82031,0 -2.89063,-1.117188 -1.0625,-1.125 -1.0625,-3.148437 0,-2.09375 1.07813,-3.25 1.07812,-1.15625 2.79687,-1.15625 1.66407,0 2.71875,1.132812 1.05469,1.132813 1.05469,3.1875 0,0.125 -0.008,0.375 h -6.1875 q 0.0781,1.367188 0.77344,2.09375 0.69531,0.726563 1.73437,0.726563 0.77344,0 1.32031,-0.40625 0.54688,-0.40625 0.86719,-1.296875 z m -4.61719,-2.273438 h 4.63282 q -0.0937,-1.046875 -0.53125,-1.570312 -0.67188,-0.8125 -1.74219,-0.8125 -0.96875,0 -1.63281,0.648437 -0.65625,0.648438 -0.72657,1.734375 z m 7.27344,2.46875 1.39063,-0.21875 q 0.11718,0.835938 0.64843,1.28125 0.53907,0.445313 1.5,0.445313 0.96875,0 1.4375,-0.390625 0.46875,-0.398438 0.46875,-0.929688 0,-0.476562 -0.41406,-0.75 -0.28906,-0.1875 -1.4375,-0.476562 -1.54687,-0.390625 -2.14844,-0.671875 -0.59375,-0.289063 -0.90625,-0.789063 -0.30468,-0.507812 -0.30468,-1.117187 0,-0.554688 0.25,-1.023438 0.25781,-0.476562 0.69531,-0.789062 0.32812,-0.242188 0.89062,-0.40625 0.57032,-0.171875 1.21875,-0.171875 0.97657,0 1.71094,0.28125 0.74219,0.28125 1.09375,0.765625 0.35156,0.476562 0.48438,1.28125 l -1.375,0.1875 q -0.0937,-0.640625 -0.54688,-1 -0.44531,-0.359375 -1.26562,-0.359375 -0.96875,0 -1.38282,0.320312 -0.41406,0.320313 -0.41406,0.75 0,0.273438 0.17188,0.492188 0.17187,0.226562 0.53906,0.375 0.21094,0.07813 1.24219,0.359375 1.49218,0.398437 2.07812,0.65625 0.59375,0.25 0.92969,0.734375 0.33594,0.484375 0.33594,1.203125 0,0.703125 -0.41407,1.328125 -0.40625,0.617187 -1.17968,0.960937 -0.77344,0.335938 -1.75,0.335938 -1.61719,0 -2.46875,-0.671875 -0.84375,-0.671875 -1.07813,-1.992188 z m 11.63281,1.21875 0.20313,1.242188 q -0.59375,0.125 -1.0625,0.125 -0.76563,0 -1.1875,-0.242188 -0.42188,-0.242187 -0.59375,-0.632812 -0.17188,-0.398438 -0.17188,-1.664063 v -4.773437 h -1.03125 v -1.09375 h 1.03125 v -2.054688 l 1.39844,-0.84375 v 2.898438 h 1.41406 v 1.09375 h -1.41406 v 4.851562 q 0,0.601563 0.0703,0.773438 0.0781,0.171875 0.24219,0.273437 0.17188,0.101563 0.48438,0.101563 0.23437,0 0.61718,-0.05469 z m 1.38282,-8.578125 v -1.617187 h 1.40625 v 1.617187 z m 0,9.835938 v -8.296875 h 1.40625 V 30 Z m 3.54687,0 v -8.296875 h 1.26563 v 1.179687 q 0.91406,-1.367187 2.64062,-1.367187 0.75,0 1.375,0.273437 0.63281,0.265625 0.94531,0.703125 0.3125,0.4375 0.4375,1.039063 0.0781,0.390625 0.0781,1.367187 V 30 h -1.40625 v -5.046875 q 0,-0.859375 -0.16406,-1.28125 -0.16407,-0.429688 -0.58594,-0.679688 -0.41406,-0.257812 -0.97656,-0.257812 -0.89844,0 -1.55469,0.570312 -0.64844,0.570313 -0.64844,2.164063 V 30 Z m 8.64063,0.6875 1.36718,0.203125 q 0.0859,0.632812 0.47657,0.921875 0.52343,0.390625 1.42968,0.390625 0.97657,0 1.50782,-0.390625 0.53125,-0.390625 0.71875,-1.09375 0.10937,-0.429688 0.10156,-1.804688 Q 375.67187,30 374.29687,30 q -1.71093,0 -2.64843,-1.234375 -0.9375,-1.234375 -0.9375,-2.960938 0,-1.1875 0.42968,-2.1875 0.42969,-1.007812 1.24219,-1.554687 0.82031,-0.546875 1.92188,-0.546875 1.46875,0 2.42187,1.1875 v -1 h 1.29688 V 28.875 q 0,1.9375 -0.39844,2.742187 -0.39063,0.8125 -1.25,1.28125 -0.85156,0.46875 -2.10156,0.46875 -1.48438,0 -2.39844,-0.671875 -0.91406,-0.664062 -0.88281,-2.007812 z m 1.16406,-4.984375 q 0,1.632812 0.64844,2.382812 0.64843,0.75 1.625,0.75 0.96875,0 1.625,-0.742187 0.65625,-0.75 0.65625,-2.34375 0,-1.523438 -0.67969,-2.296875 -0.67188,-0.773438 -1.625,-0.773438 -0.9375,0 -1.59375,0.765625 -0.65625,0.757813 -0.65625,2.257813 z m 15.50781,3.039062 0.20313,1.242188 q -0.59375,0.125 -1.0625,0.125 -0.76563,0 -1.1875,-0.242188 -0.42188,-0.242187 -0.59375,-0.632812 -0.17188,-0.398438 -0.17188,-1.664063 v -4.773437 h -1.03125 v -1.09375 h 1.03125 v -2.054688 l 1.39844,-0.84375 v 2.898438 h 1.41406 v 1.09375 H 386.25 v 4.851562 q 0,0.601563 0.0703,0.773438 0.0781,0.171875 0.24219,0.273437 0.17187,0.101563 0.48437,0.101563 0.23438,0 0.61719,-0.05469 z m 7.05469,-1.414062 1.45312,0.179687 q -0.34375,1.273438 -1.27343,1.976563 -0.92969,0.703125 -2.375,0.703125 -1.82032,0 -2.89063,-1.117188 -1.0625,-1.125 -1.0625,-3.148437 0,-2.09375 1.07813,-3.25 1.07812,-1.15625 2.79687,-1.15625 1.66406,0 2.71875,1.132812 1.05469,1.132813 1.05469,3.1875 0,0.125 -0.008,0.375 h -6.1875 q 0.0781,1.367188 0.77343,2.09375 0.69532,0.726563 1.73438,0.726563 0.77344,0 1.32031,-0.40625 0.54688,-0.40625 0.86719,-1.296875 z m -4.61719,-2.273438 h 4.63281 q -0.0937,-1.046875 -0.53125,-1.570312 -0.67187,-0.8125 -1.74218,-0.8125 -0.96875,0 -1.63282,0.648437 -0.65625,0.648438 -0.72656,1.734375 z m 7.27344,2.46875 1.39062,-0.21875 q 0.11719,0.835938 0.64844,1.28125 0.53906,0.445313 1.5,0.445313 0.96875,0 1.4375,-0.390625 0.46875,-0.398438 0.46875,-0.929688 0,-0.476562 -0.41406,-0.75 -0.28906,-0.1875 -1.4375,-0.476562 -1.54688,-0.390625 -2.14844,-0.671875 -0.59375,-0.289063 -0.90625,-0.789063 -0.30469,-0.507812 -0.30469,-1.117187 0,-0.554688 0.25,-1.023438 0.25782,-0.476562 0.69532,-0.789062 0.32812,-0.242188 0.89062,-0.40625 0.57031,-0.171875 1.21875,-0.171875 0.97656,0 1.71094,0.28125 0.74219,0.28125 1.09375,0.765625 0.35156,0.476562 0.48437,1.28125 l -1.375,0.1875 q -0.0937,-0.640625 -0.54687,-1 -0.44531,-0.359375 -1.26563,-0.359375 -0.96875,0 -1.38281,0.320312 -0.41406,0.320313 -0.41406,0.75 0,0.273438 0.17187,0.492188 0.17188,0.226562 0.53907,0.375 0.21093,0.07813 1.24218,0.359375 1.49219,0.398437 2.07813,0.65625 0.59375,0.25 0.92969,0.734375 0.33593,0.484375 0.33593,1.203125 0,0.703125 -0.41406,1.328125 -0.40625,0.617187 -1.17969,0.960937 -0.77343,0.335938 -1.75,0.335938 -1.61718,0 -2.46875,-0.671875 -0.84375,-0.671875 -1.07812,-1.992188 z m 11.63281,1.21875 0.20313,1.242188 q -0.59375,0.125 -1.0625,0.125 -0.76563,0 -1.1875,-0.242188 -0.42188,-0.242187 -0.59375,-0.632812 -0.17188,-0.398438 -0.17188,-1.664063 v -4.773437 h -1.03125 v -1.09375 h 1.03125 v -2.054688 l 1.39844,-0.84375 v 2.898438 h 1.41406 v 1.09375 h -1.41406 v 4.851562 q 0,0.601563 0.0703,0.773438 0.0781,0.171875 0.24219,0.273437 0.17187,0.101563 0.48437,0.101563 0.23438,0 0.61719,-0.05469 z m 1.38281,-8.578125 v -1.617187 h 1.40625 v 1.617187 z m 0,9.835938 v -8.296875 h 1.40625 V 30 Z m 3.54688,0 v -8.296875 h 1.26562 v 1.179687 q 0.91407,-1.367187 2.64063,-1.367187 0.75,0 1.375,0.273437 0.63281,0.265625 0.94531,0.703125 0.3125,0.4375 0.4375,1.039063 0.0781,0.390625 0.0781,1.367187 V 30 h -1.40625 v -5.046875 q 0,-0.859375 -0.16407,-1.28125 -0.16406,-0.429688 -0.58593,-0.679688 -0.41407,-0.257812 -0.97657,-0.257812 -0.89843,0 -1.55468,0.570312 -0.64844,0.570313 -0.64844,2.164063 V 30 Z m 8.64062,0.6875 1.36719,0.203125 q 0.0859,0.632812 0.47656,0.921875 0.52344,0.390625 1.42969,0.390625 0.97656,0 1.50781,-0.390625 0.53125,-0.390625 0.71875,-1.09375 0.10938,-0.429688 0.10157,-1.804688 Q 427.25781,30 425.88281,30 q -1.71094,0 -2.64844,-1.234375 -0.9375,-1.234375 -0.9375,-2.960938 0,-1.1875 0.42969,-2.1875 0.42969,-1.007812 1.24219,-1.554687 0.82031,-0.546875 1.92187,-0.546875 1.46875,0 2.42188,1.1875 v -1 h 1.29687 V 28.875 q 0,1.9375 -0.39843,2.742187 -0.39063,0.8125 -1.25,1.28125 -0.85157,0.46875 -2.10157,0.46875 -1.48437,0 -2.39843,-0.671875 -0.91407,-0.664062 -0.88282,-2.007812 z m 1.16407,-4.984375 q 0,1.632812 0.64843,2.382812 0.64844,0.75 1.625,0.75 0.96875,0 1.625,-0.742187 0.65625,-0.75 0.65625,-2.34375 0,-1.523438 -0.67968,-2.296875 -0.67188,-0.773438 -1.625,-0.773438 -0.9375,0 -1.59375,0.765625 -0.65625,0.757813 -0.65625,2.257813 z M 432.13281,30 v -1.601563 h 1.60156 V 30 Z"
     id="text1"
     style="font-size:16px;font-family:Arial"
     aria-label="We're cracking some of those closed bags. Testing testing." />
</svg>
