<?xml version="1.0" encoding="UTF-8" standalone="no"?>
<svg
   width="800"
   height="100"
   version="1.1"
   id="svg1"
   xmlns="http://www.w3.org/2000/svg"
   xmlns:svg="http://www.w3.org/2000/svg">
  <defs
     id="defs1" />
  <rect
     width="100%"
     height="100%"
     fill="#FFF"
     id="rect1" />
  <path
     d="m 20.492187,27.523437 1.390625,-0.21875 Q 22,28.140625 22.53125,28.585937 q 0.539062,0.445313 1.5,0.445313 0.96875,0 1.4375,-0.390625 0.46875,-0.398438 0.46875,-0.929688 0,-0.476562 -0.414063,-0.75 -0.289062,-0.1875 -1.4375,-0.476562 Q 22.539062,26.09375 21.9375,25.8125 21.34375,25.523437 21.03125,25.023437 20.726562,24.515625 20.726562,23.90625 q 0,-0.554688 0.25,-1.023438 Q 21.234375,22.40625 21.671875,22.09375 22,21.851562 22.5625,21.6875 q 0.570312,-0.171875 1.21875,-0.171875 0.976562,0 1.710937,0.28125 0.742188,0.28125 1.09375,0.765625 0.351563,0.476562 0.484375,1.28125 l -1.375,0.1875 q -0.09375,-0.640625 -0.546875,-1 -0.445312,-0.359375 -1.265625,-0.359375 -0.96875,0 -1.382812,0.320312 -0.414063,0.320313 -0.414063,0.75 0,0.273438 0.171875,0.492188 0.171875,0.226562 0.539063,0.375 0.210937,0.07813 1.242187,0.359375 1.492188,0.398437 2.078125,0.65625 0.59375,0.25 0.929688,0.734375 0.335937,0.484375 0.335937,1.203125 0,0.703125 -0.414062,1.328125 -0.40625,0.617187 -1.179688,0.960937 -0.773437,0.335938 -1.75,0.335938 -1.617187,0 -2.46875,-0.671875 -0.84375,-0.671875 -1.078125,-1.992188 z m 8.039063,-1.671875 q 0,-2.304687 1.28125,-3.414062 1.070312,-0.921875 2.609375,-0.921875 1.710937,0 2.796875,1.125 1.085937,1.117187 1.085937,3.09375 0,1.601562 -0.484375,2.523437 -0.476562,0.914063 -1.398437,1.421875 -0.914063,0.507813 -2,0.507813 -1.742188,0 -2.820313,-1.117188 -1.070312,-1.117187 -1.070312,-3.21875 z m 1.445312,0 q 0,1.59375 0.695313,2.390625 0.695312,0.789063 1.75,0.789063 1.046875,0 1.742187,-0.796875 0.695313,-0.796875 0.695313,-2.429688 0,-1.539062 -0.703125,-2.328125 -0.695313,-0.796875 -1.734375,-0.796875 -1.054688,0 -1.75,0.789063 -0.695313,0.789062 -0.695313,2.382812 z"
     id="text1"
     style="font-size:16px;font-family:Arial"
     aria-label="so" />
</svg>
