<?xml version="1.0" encoding="UTF-8" standalone="no"?>
<svg
   width="800"
   height="100"
   version="1.1"
   id="svg1"
   xmlns="http://www.w3.org/2000/svg"
   xmlns:svg="http://www.w3.org/2000/svg">
  <defs
     id="defs1" />
  <rect
     width="100%"
     height="100%"
     fill="#FFF"
     id="rect1" />
  <path
     d="m 101.74219,26.390625 q 0,0.453125 -0.28125,1.007812 Q 101.15625,28 100.85156,28 q -0.32031,0 -1.19531,-0.40625 -0.804688,-0.375 -1.359375,-0.734375 -0.90625,0.515625 -1.320313,0.664062 -0.523437,0.1875 -1.234375,0.1875 h -0.703125 v -1.359375 h 0.703125 q 0.320313,0 0.617188,-0.04687 0.296875,-0.05469 0.804687,-0.1875 -0.203125,-0.148437 -0.40625,-0.304687 -0.21875,-0.195313 -0.21875,-0.382813 0,-0.132812 0.0078,-0.195312 Q 96.5625,25.171875 96.65625,25 l 0.773437,-1.351563 q 0.15625,-0.273437 0.28125,-0.375 0.132813,-0.109375 0.359375,-0.171875 -0.539062,-0.367187 -0.539062,-0.523437 0,-0.15625 0.34375,-0.804688 0.117187,-0.21875 0.359375,-0.648437 0.5,0.476562 1.257812,1.382812 0.960943,1.140625 1.515623,2.039063 0.73438,1.1875 0.73438,1.84375 z m -2.750003,-1.695313 q 0,-0.335937 -0.140625,-0.53125 -0.164062,-0.234375 -0.523437,-0.234375 -0.359375,0 -0.671875,0.242188 -0.3125,0.234375 -0.3125,0.570312 0,0.320313 0.953125,0.84375 0.335937,-0.21875 0.5,-0.421875 0.195312,-0.234375 0.195312,-0.46875 z m 1.882813,1.789063 q 0,-0.273438 -0.4375,-0.851563 -0.27344,-0.367187 -0.671875,-0.78125 0,0.382813 -0.164063,0.71875 -0.15625,0.328125 -0.445312,0.507813 0.46875,0.242187 0.94531,0.476562 0.39063,0.171875 0.55469,0.171875 0.0937,0 0.15625,-0.07031 0.0625,-0.07031 0.0625,-0.171875 z m -5.289063,0.257812 q 0,1.25 -0.585937,1.984375 -0.523438,0.648438 -1.539063,0.929688 -0.859375,0.234375 -2.179687,0.234375 -1.507813,0 -2.335938,-0.554688 -0.90625,-0.609375 -0.90625,-1.820312 0,-0.671875 0.195313,-1.398438 0.164062,-0.617187 0.5,-1.351562 0.242187,-0.53125 0.65625,-1.28125 l 0.25,0.148437 Q 89.351562,24.15625 89.15625,24.570312 88.898437,25.125 88.773437,25.5625 88.625,26.09375 88.625,26.59375 q 0,0.960937 0.695312,1.453125 0.703125,0.492187 1.945313,0.492187 1.320312,0 2.445312,-0.453125 1.234375,-0.5 1.234375,-1.195312 0,-0.757813 -0.242187,-2.570313 -0.1875,-1.390625 -0.460938,-3.109375 L 93.984375,19.695312 93.625,19.507812 q 0,-1.046875 0.429687,-1.90625 H 94.1875 q 0.03125,0.296875 0.109375,0.445313 0.07813,0.140625 0.257812,0.210937 0.242188,0.101563 0.53125,0.242188 0.210938,0.101562 0.367188,0.179687 0,0.546875 -0.03906,0.796875 -0.03906,0.25 -0.15625,0.703125 L 94.8125,20.039062 q 0.01563,0.171875 0.226562,1.570313 0.242188,1.632812 0.359375,2.648437 0.1875,1.625 0.1875,2.484375 z m -13.59375,-0.351562 q 0,0.453125 -0.28125,1.007812 Q 81.40625,28 81.101562,28 80.78125,28 79.90625,27.59375 q -0.804688,-0.375 -1.359375,-0.734375 -0.90625,0.515625 -1.320313,0.664062 -0.523437,0.1875 -1.234375,0.1875 h -0.703125 v -1.359375 h 0.703125 q 0.320313,0 0.617188,-0.04687 0.296875,-0.05469 0.804687,-0.1875 -0.203125,-0.148437 -0.40625,-0.304687 -0.21875,-0.195313 -0.21875,-0.382813 0,-0.132812 0.0078,-0.195312 Q 76.8125,25.171875 76.90625,25 l 0.773437,-1.351563 q 0.15625,-0.273437 0.28125,-0.375 0.132813,-0.109375 0.359375,-0.171875 -0.539062,-0.367187 -0.539062,-0.523437 0,-0.15625 0.34375,-0.804688 0.117187,-0.21875 0.359375,-0.648437 0.5,0.476562 1.257812,1.382812 0.960938,1.140625 1.515625,2.039063 0.734375,1.1875 0.734375,1.84375 z m -2.75,-1.695313 q 0,-0.335937 -0.140625,-0.53125 -0.164062,-0.234375 -0.523437,-0.234375 -0.359375,0 -0.671875,0.242188 -0.3125,0.234375 -0.3125,0.570312 0,0.320313 0.953125,0.84375 0.335937,-0.21875 0.5,-0.421875 0.195312,-0.234375 0.195312,-0.46875 z M 81.125,26.484375 q 0,-0.273438 -0.4375,-0.851563 -0.273438,-0.367187 -0.671875,-0.78125 0,0.382813 -0.164063,0.71875 -0.15625,0.328125 -0.445312,0.507813 0.46875,0.242187 0.945312,0.476562 0.390625,0.171875 0.554688,0.171875 0.09375,0 0.15625,-0.07031 0.0625,-0.07031 0.0625,-0.171875 z m -5.289063,0.257812 q 0,1.25 -0.585937,1.984375 -0.523438,0.648438 -1.539063,0.929688 -0.859375,0.234375 -2.179687,0.234375 -1.507813,0 -2.335938,-0.554688 -0.90625,-0.609375 -0.90625,-1.820312 0,-0.671875 0.195313,-1.398438 0.164062,-0.617187 0.5,-1.351562 0.242187,-0.53125 0.65625,-1.28125 l 0.25,0.148437 Q 69.601562,24.15625 69.40625,24.570312 69.148437,25.125 69.023437,25.5625 68.875,26.09375 68.875,26.59375 q 0,0.960937 0.695312,1.453125 0.703125,0.492187 1.945313,0.492187 1.320312,0 2.445312,-0.453125 1.234375,-0.5 1.234375,-1.195312 0,-0.757813 -0.242187,-2.570313 -0.1875,-1.390625 -0.460938,-3.109375 L 74.234375,19.695312 73.875,19.507812 q 0,-1.046875 0.429687,-1.90625 H 74.4375 q 0.03125,0.296875 0.109375,0.445313 0.07813,0.140625 0.257812,0.210937 0.242188,0.101563 0.53125,0.242188 0.210938,0.101562 0.367188,0.179687 0,0.546875 -0.03906,0.796875 -0.03906,0.25 -0.15625,0.703125 L 75.0625,20.039062 q 0.01563,0.171875 0.226562,1.570313 0.242188,1.632812 0.359375,2.648437 0.1875,1.625 0.1875,2.484375 z m -13.59375,-0.351562 q 0,0.453125 -0.28125,1.007812 Q 61.65625,28 61.351562,28 61.03125,28 60.15625,27.59375 q -0.804688,-0.375 -1.359375,-0.734375 -0.90625,0.515625 -1.320313,0.664062 -0.523437,0.1875 -1.234375,0.1875 h -0.703125 v -1.359375 h 0.703125 q 0.320313,0 0.617188,-0.04687 0.296875,-0.05469 0.804687,-0.1875 -0.203125,-0.148437 -0.40625,-0.304687 -0.21875,-0.195313 -0.21875,-0.382813 0,-0.132812 0.0078,-0.195312 Q 57.0625,25.171875 57.15625,25 l 0.773437,-1.351563 q 0.15625,-0.273437 0.28125,-0.375 0.132813,-0.109375 0.359375,-0.171875 -0.539062,-0.367187 -0.539062,-0.523437 0,-0.15625 0.34375,-0.804688 0.117187,-0.21875 0.359375,-0.648437 0.5,0.476562 1.257812,1.382812 0.960938,1.140625 1.515625,2.039063 0.734375,1.1875 0.734375,1.84375 z m -2.75,-1.695313 q 0,-0.335937 -0.140625,-0.53125 -0.164062,-0.234375 -0.523437,-0.234375 -0.359375,0 -0.671875,0.242188 -0.3125,0.234375 -0.3125,0.570312 0,0.320313 0.953125,0.84375 0.335937,-0.21875 0.5,-0.421875 0.195312,-0.234375 0.195312,-0.46875 z M 61.375,26.484375 q 0,-0.273438 -0.4375,-0.851563 -0.273438,-0.367187 -0.671875,-0.78125 0,0.382813 -0.164063,0.71875 -0.15625,0.328125 -0.445312,0.507813 0.46875,0.242187 0.945312,0.476562 0.390625,0.171875 0.554688,0.171875 0.09375,0 0.15625,-0.07031 0.0625,-0.07031 0.0625,-0.171875 z m -5.289063,1.226562 H 54.71875 q -1.203125,0 -1.8125,0.0625 -0.601563,0.0625 -0.601563,0.25 0,0.257813 0.726563,0.257813 0.320312,0 0.507812,0.01563 0.1875,0.01563 0.820313,0.08594 0.375,0.04687 0.515625,0.117188 0.226562,0.117187 0.226562,0.40625 0,1.460937 -0.960937,2.125 -1.046875,0.726562 -3.460938,0.726562 -1.679687,0 -2.671875,-0.570312 -1.054687,-0.609375 -1.054687,-1.734375 0,-0.90625 0.5,-1.921875 0.179687,-0.367188 0.945312,-1.570313 l 0.3125,0.15625 Q 48.414062,26.625 48.125,27.125 q -0.445313,0.859375 -0.445313,1.40625 0,0.960937 1,1.460937 0.953125,0.476563 2.617188,0.476563 1.117187,0 1.96875,-0.171875 1.046875,-0.210938 1.046875,-0.578125 0,-0.132813 -0.117188,-0.195313 -0.117187,-0.07031 -0.390625,-0.07031 -0.210937,-0.02344 -0.664062,-0.04687 -0.445313,-0.03125 -0.585938,-0.03125 -0.492187,0 -0.703125,-0.125 -0.210937,-0.132813 -0.210937,-0.390625 0,-0.96875 0.570312,-1.585938 0.46875,-0.5 1.257813,-0.742187 0.59375,-0.179688 1.25,-0.179688 h 1.367187 z M 52.851562,32.71875 52.125,33.390625 51.25,32.835937 51.953125,32.101562 Z m -1.617187,0 -0.710938,0.671875 -0.90625,-0.554688 0.726563,-0.734375 z m -9.007813,-5.007813 h -0.8125 q -0.523437,0 -1.179687,-0.234375 -0.757813,-0.273437 -1.335938,-0.75 Q 38.445312,27.28125 37.96875,27.5 37.5,27.710937 36.59375,27.710937 H 35.375 v -1.359375 h 1.195312 q 0.710938,0 1.265625,-0.359375 0.429688,-0.28125 0.78125,-0.789062 0.476563,-0.6875 1.171875,-1.195313 0.625,-0.453125 1.148438,-0.578125 0.539062,0.820313 0.859375,1.476563 0.429687,0.890625 0.429687,1.445312 z m -0.898437,-1.539062 q -0.101563,-0.453125 -0.3125,-0.890625 -0.179688,-0.367188 -0.476563,-0.757813 -0.375,0.09375 -0.632812,0.351563 -0.171875,0.164062 -0.40625,0.554687 0.28125,0.304688 0.789062,0.546875 0.515625,0.242188 0.96875,0.296875 z m -5.40625,1.070312 q 0,1.289063 -0.953125,2.5625 -1.0625,1.421875 -2.453125,1.421875 -0.515625,0 -1.0625,-0.117187 Q 31.054687,31.023437 30.414062,30.8125 29.90625,30.632812 29.398437,30.460937 L 29.53125,30.1875 q 0.4375,0.101562 0.914062,0.210937 0.484375,0.117188 0.867188,0.117188 0.953125,0 1.804687,-0.484375 0.664063,-0.382813 1.328125,-1.109375 0.335938,-0.367188 0.953125,-1.195313 -1.054687,0 -1.578125,-0.335937 -0.59375,-0.382813 -0.59375,-1.257813 0,-0.804687 0.375,-1.492187 0.4375,-0.796875 1.109375,-0.796875 0.679688,0 0.976563,0.789062 0.234375,0.617188 0.234375,1.71875 z m -0.492188,-0.851562 q -0.171875,-0.75 -0.414062,-1.039063 -0.210938,-0.25 -0.515625,-0.25 -0.21875,0 -0.382813,0.148438 -0.15625,0.140625 -0.15625,0.359375 0,0.382812 0.34375,0.585937 0.34375,0.195313 1.125,0.195313 z M 26.046875,27.945312 25.382812,29.125 24.15625,28.421875 24.757812,27.289062 Z M 23.78125,24.5625 q -0.15625,0 -0.453125,-0.02344 -0.296875,-0.02344 -0.445313,-0.02344 -0.5,0 -1.125,0.09375 -0.40625,0.0625 -1.109375,0.203125 0.3125,-0.882813 0.585938,-1.148438 0.585937,-0.578125 1.96875,-0.578125 0.515625,0 2.109375,0.21875 0.742187,0.101563 1.28125,0.101563 0.226562,0 0.664062,-0.05469 0.4375,-0.05469 0.65625,-0.05469 L 27.625,24.617187 q -1.648438,0.28125 -2.804688,0.640625 -1.71875,0.53125 -2.679687,1.296875 -1.195313,0.953125 -1.195313,2.25 0,1.679688 1.75,2.523438 1.523438,0.734375 4.070313,0.734375 h 1.4375 l 0.04687,0.08594 -1.765625,1.242188 H 26.03125 q -1.6875,0 -2.804688,-0.3125 -1.335937,-0.375 -2.023437,-1.203125 -0.78125,-0.945313 -0.78125,-2.5 0,-1.3125 0.617187,-2.359375 0.46875,-0.796875 1.367188,-1.507813 0.273437,-0.21875 1.375,-0.945312 z M 108.28906,30 v -8.296875 h 1.25782 v 1.164062 q 0.39062,-0.609375 1.03906,-0.976562 0.64844,-0.375 1.47656,-0.375 0.92188,0 1.50781,0.382812 0.59375,0.382813 0.83594,1.070313 0.98438,-1.453125 2.5625,-1.453125 1.23438,0 1.89844,0.6875 0.66406,0.679687 0.66406,2.101562 V 30 h -1.39844 v -5.226563 q 0,-0.84375 -0.14062,-1.210937 -0.13281,-0.375 -0.49219,-0.601563 -0.35937,-0.226562 -0.84375,-0.226562 -0.875,0 -1.45312,0.585937 -0.57813,0.578125 -0.57813,1.859375 V 30 h -1.40625 v -5.390625 q 0,-0.9375 -0.34375,-1.40625 -0.34375,-0.46875 -1.125,-0.46875 -0.59375,0 -1.10156,0.3125 -0.5,0.3125 -0.72656,0.914062 -0.22657,0.601563 -0.22657,1.734375 V 30 Z m 19.00782,-2.671875 1.45312,0.179687 q -0.34375,1.273438 -1.27344,1.976563 -0.92968,0.703125 -2.375,0.703125 -1.82031,0 -2.89062,-1.117188 -1.0625,-1.125 -1.0625,-3.148437 0,-2.09375 1.07812,-3.25 1.07813,-1.15625 2.79688,-1.15625 1.66406,0 2.71875,1.132812 1.05468,1.132813 1.05468,3.1875 0,0.125 -0.008,0.375 h -6.1875 q 0.0781,1.367188 0.77344,2.09375 0.69531,0.726563 1.73438,0.726563 0.77343,0 1.32031,-0.40625 0.54687,-0.40625 0.86719,-1.296875 z m -4.61719,-2.273438 h 4.63281 q -0.0937,-1.046875 -0.53125,-1.570312 -0.67187,-0.8125 -1.74219,-0.8125 -0.96875,0 -1.63281,0.648437 -0.65625,0.648438 -0.72656,1.734375 z M 135.89844,30 v -1.046875 q -0.78907,1.234375 -2.32032,1.234375 -0.99218,0 -1.82812,-0.546875 -0.82813,-0.546875 -1.28906,-1.523438 -0.45313,-0.984375 -0.45313,-2.257812 0,-1.242188 0.41406,-2.25 0.41407,-1.015625 1.24219,-1.554688 0.82813,-0.539062 1.85156,-0.539062 0.75,0 1.33594,0.320312 0.58594,0.3125 0.95313,0.820313 v -4.109375 h 1.39843 V 30 Z m -4.44532,-4.140625 q 0,1.59375 0.67188,2.382812 0.67187,0.789063 1.58594,0.789063 0.92187,0 1.5625,-0.75 0.64843,-0.757813 0.64843,-2.304688 0,-1.703125 -0.65625,-2.5 -0.65625,-0.796875 -1.61718,-0.796875 -0.9375,0 -1.57032,0.765625 -0.625,0.765625 -0.625,2.414063 z m 7.96875,-5.695313 v -1.617187 h 1.40625 v 1.617187 z m 0,9.835938 v -8.296875 h 1.40625 V 30 Z m 3.02344,-4.148438 q 0,-2.304687 1.28125,-3.414062 1.07031,-0.921875 2.60938,-0.921875 1.71093,0 2.79687,1.125 1.08594,1.117187 1.08594,3.09375 0,1.601562 -0.48438,2.523437 -0.47656,0.914063 -1.39843,1.421875 -0.91407,0.507813 -2,0.507813 -1.74219,0 -2.82032,-1.117188 -1.07031,-1.117187 -1.07031,-3.21875 z m 1.44531,0 q 0,1.59375 0.69532,2.390625 0.69531,0.789063 1.75,0.789063 1.04687,0 1.74218,-0.796875 0.69532,-0.796875 0.69532,-2.429688 0,-1.539062 -0.70313,-2.328125 -0.69531,-0.796875 -1.73437,-0.796875 -1.05469,0 -1.75,0.789063 -0.69532,0.789062 -0.69532,2.382812 z m 69.00782,-0.132812 q 0,0.625 -0.22657,1.210937 -0.11718,0.3125 -0.50781,0.992188 l -0.14062,-0.07813 q 0.0234,-0.226563 0.0391,-0.523438 0.0234,-0.296875 0.0234,-0.398437 0,-0.8125 -0.13282,-2.265625 -0.125,-1.460938 -0.30468,-3.046875 -0.10938,-0.960938 -0.24219,-1.960938 0.15625,-0.34375 0.35156,-0.742187 0.20313,-0.398438 0.38281,-0.75 0.125,0.890625 0.3125,2.4375 0.19532,1.546875 0.30469,2.789062 0.14063,1.546875 0.14063,2.335938 z m -6.3125,-5.101563 -0.60938,1.125 -1.26562,-0.671875 0.58593,-1.117187 z m -1.79688,0.703125 -0.59375,1.132813 -1.26562,-0.65625 0.57812,-1.132813 z m 5.46875,6.390625 h -7.45312 q -1.5,0 -2.39063,-0.523437 -1.11719,-0.65625 -1.11719,-2.054688 0,-0.726562 0.32813,-1.484375 0.11719,-0.273437 0.5625,-1.039062 l 0.23437,0.148437 q -0.17187,0.359375 -0.33593,0.71875 -0.22657,0.554688 -0.22657,0.992188 0,0.921875 0.96875,1.429687 0.86719,0.453125 2.19532,0.453125 h 6.61718 v -0.210937 q 0,-0.875 -0.21093,-1.421875 -0.21094,-0.554688 -0.71875,-0.945313 L 209.3125,22.5 q 0.34375,0.429687 0.41406,0.539062 0.53125,0.875 0.53125,2.546875 z m -15.85937,0 h -0.8125 q -0.52344,0 -1.17969,-0.234375 -0.75781,-0.273437 -1.33594,-0.75 -0.45312,0.554688 -0.92969,0.773438 -0.46875,0.210937 -1.375,0.210937 h -1.21875 v -1.359375 h 1.19532 q 0.71093,0 1.26562,-0.359375 0.42969,-0.28125 0.78125,-0.789062 0.47656,-0.6875 1.17188,-1.195313 0.625,-0.453125 1.14843,-0.578125 0.53907,0.820313 0.85938,1.476563 0.42969,0.890625 0.42969,1.445312 z M 193.5,26.171875 q -0.10156,-0.453125 -0.3125,-0.890625 -0.17969,-0.367188 -0.47656,-0.757813 -0.375,0.09375 -0.63282,0.351563 -0.17187,0.164062 -0.40625,0.554687 0.28125,0.304688 0.78907,0.546875 0.51562,0.242188 0.96875,0.296875 z m -4.83594,5.96875 -1.57812,1.25 q -1.46094,0 -2.29688,-0.132813 -1.51562,-0.242187 -2.375,-0.9375 -1.10156,-0.898437 -1.10156,-2.515625 0,-1.070312 0.41406,-1.984375 0.32813,-0.726562 0.98438,-1.460937 0.3125,-0.351563 1.14843,-1.132813 -0.0781,-0.265625 -0.22656,-0.390625 -0.14062,-0.125 -0.30469,-0.125 -0.20312,0 -0.39843,0.273438 h -0.13282 q 0.16407,-0.820313 0.34375,-1.132813 0.4375,-0.75 1.4375,-0.75 0.67188,0 1.15625,0.328125 0.53907,0.367188 0.53907,0.953125 0,0.382813 -0.29688,0.648438 -0.27344,0.21875 -0.44531,0.359375 0.4375,0.523437 0.83594,0.742187 0.40625,0.21875 1.00781,0.21875 h 0.71875 v 1.359375 H 187.375 q -1.19531,0 -1.85938,-0.359375 -0.65625,-0.359375 -1.05468,-1.1875 -0.57032,0.367188 -1.03125,0.757813 -0.625,0.53125 -0.97657,1.039062 -0.4375,0.632813 -0.4375,1.21875 0,1.320313 1.32032,2.046875 1.01562,0.554688 2.78906,0.75 0.9375,0.101563 2.50781,0.101563 z M 175.77344,25.71875 q 0,0.625 -0.22657,1.210937 -0.11718,0.3125 -0.50781,0.992188 l -0.14062,-0.07813 q 0.0234,-0.226563 0.0391,-0.523438 0.0234,-0.296875 0.0234,-0.398437 0,-0.8125 -0.13282,-2.265625 -0.125,-1.460938 -0.30468,-3.046875 -0.10938,-0.960938 -0.24219,-1.960938 0.15625,-0.34375 0.35156,-0.742187 0.20313,-0.398438 0.38281,-0.75 0.125,0.890625 0.3125,2.4375 0.19532,1.546875 0.30469,2.789062 0.14063,1.546875 0.14063,2.335938 z m -2.64063,1.992187 h -3.85937 v -1.359375 h 3.07031 l -0.92969,-6.625 -0.40625,-0.195312 q 0,-0.539063 0.0937,-1.007813 0.0937,-0.476562 0.28125,-0.921875 L 171.5,17.6875 q 0,0.453125 0.50781,0.679687 0.39063,0.15625 0.78906,0.3125 0,0.390625 -0.0625,0.835938 -0.0625,0.445312 -0.14843,0.664062 l -0.375,-0.125 0.92187,6.125 z m -3.3125,0 h -0.60156 q -0.5,0 -0.85938,-0.132812 Q 168,27.4375 167.70312,27.1875 q -0.36718,0.289062 -0.64062,0.382812 -0.39844,0.140625 -1.09375,0.140625 h -0.50781 q -0.40625,0 -0.8125,-0.15625 -0.26563,-0.101562 -0.65625,-0.335937 -0.375,0.28125 -0.6875,0.390625 -0.3125,0.101562 -1.01563,0.101562 h -1.50781 v -1.359375 h 1.50781 q 0.63281,0 0.90625,-0.109375 0.45313,-0.179687 0.45313,-0.71875 0,-0.226562 -0.0234,-0.453125 -0.0234,-0.226562 -0.0859,-0.507812 l 0.32031,-0.46875 q 0.21875,0.71875 0.35938,1.046875 0.25,0.570312 0.54687,0.859375 0.35938,0.351562 0.85938,0.351562 h 0.52344 q 0.58593,0 0.86718,-0.179687 0.3125,-0.203125 0.3125,-0.648438 0,-0.242187 -0.0312,-0.46875 -0.0312,-0.226562 -0.0859,-0.492187 l 0.32812,-0.46875 0.16406,0.734375 q 0.21094,0.867187 0.51563,1.203125 0.26562,0.296875 0.71875,0.296875 0.21094,0 0.33594,-0.125 0.13281,-0.132813 0.13281,-0.335938 0,-0.4375 -0.32031,-0.921875 -0.0547,-0.07813 -0.38282,-0.507812 l 0.50782,-0.851563 q 0.32031,0.484375 0.4375,0.835938 0.17187,0.53125 0.17187,1.414062 z m -8.49219,0 h -3.85937 v -1.359375 h 3.07031 l -0.92969,-6.625 -0.40625,-0.195312 q 0,-0.539063 0.0937,-1.007813 0.0937,-0.476562 0.28125,-0.921875 l 0.11719,0.08594 q 0,0.453125 0.50781,0.679687 0.39063,0.15625 0.78907,0.3125 0,0.390625 -0.0625,0.835938 -0.0625,0.445312 -0.14844,0.664062 l -0.375,-0.125 0.92187,6.125 z m -5.83593,-7.273437 -0.59375,1.132812 -1.26563,-0.65625 0.58594,-1.140625 z m 3.09375,11.703125 -1.57813,1.25 q -1.46094,0 -2.29687,-0.132813 -1.51563,-0.242187 -2.375,-0.9375 -1.10157,-0.898437 -1.10157,-2.515625 0,-1.070312 0.41407,-1.984375 0.32812,-0.726562 0.98437,-1.460937 0.3125,-0.351563 1.14844,-1.132813 -0.0781,-0.265625 -0.22656,-0.390625 -0.14063,-0.125 -0.30469,-0.125 -0.20313,0 -0.39844,0.273438 h -0.13281 q 0.16406,-0.820313 0.34375,-1.132813 0.4375,-0.75 1.4375,-0.75 0.67187,0 1.15625,0.328125 0.53906,0.367188 0.53906,0.953125 0,0.382813 -0.29687,0.648438 -0.27344,0.21875 -0.44532,0.359375 0.4375,0.523437 0.83594,0.742187 0.40625,0.21875 1.00781,0.21875 h 0.71875 v 1.359375 h -0.71875 q -1.19531,0 -1.85937,-0.359375 -0.65625,-0.359375 -1.05469,-1.1875 -0.57031,0.367188 -1.03125,0.757813 -0.625,0.53125 -0.97656,1.039062 -0.4375,0.632813 -0.4375,1.21875 0,1.320313 1.32031,2.046875 1.01563,0.554688 2.78906,0.75 0.9375,0.101563 2.50782,0.101563 z m 58.67187,-4.960938 q -0.008,-0.28125 -0.008,-0.421875 0,-0.828125 0.23437,-1.429687 0.17188,-0.453125 0.55469,-0.914063 0.28125,-0.335937 1.00781,-0.976562 0.73438,-0.648438 0.95313,-1.03125 0.21875,-0.382813 0.21875,-0.835938 0,-0.820312 -0.64063,-1.4375 -0.64062,-0.625 -1.57031,-0.625 -0.89844,0 -1.5,0.5625 -0.60156,0.5625 -0.78906,1.757813 l -1.44531,-0.171875 q 0.19531,-1.601563 1.15625,-2.453125 0.96875,-0.851563 2.55468,-0.851563 1.67969,0 2.67969,0.914063 1,0.914062 1,2.210937 0,0.75 -0.35156,1.382813 -0.35156,0.632812 -1.375,1.539062 -0.6875,0.609375 -0.89844,0.898438 -0.21094,0.289062 -0.3125,0.664062 -0.10156,0.375 -0.11719,1.21875 z M 217.17187,30 v -1.601563 h 1.60157 V 30 Z"
     id="text1"
     style="font-size:16px;font-family:Arial"
     aria-label="هل هل هي موج medioات مع السلغ?" />
</svg>
