<?xml version="1.0" encoding="UTF-8" standalone="no"?>
<svg
   width="800"
   height="100"
   version="1.1"
   id="svg1"
   xmlns="http://www.w3.org/2000/svg"
   xmlns:svg="http://www.w3.org/2000/svg">
  <defs
     id="defs1" />
  <rect
     width="100%"
     height="100%"
     fill="#FFF"
     id="rect1" />
  <path
     d="m 23.984375,31.648437 v -1.40625 q -1.054688,-0.132812 -1.71875,-0.46875 -0.65625,-0.34375 -1.140625,-1.101562 -0.476563,-0.757813 -0.554688,-1.851563 l 1.414063,-0.265625 q 0.164062,1.132813 0.578125,1.664063 0.59375,0.75 1.421875,0.835937 V 24.578125 Q 23.117187,24.414062 22.210937,23.90625 21.539062,23.53125 21.171875,22.867187 20.8125,22.203125 20.8125,21.359375 q 0,-1.5 1.0625,-2.429688 0.710937,-0.625 2.109375,-0.765625 V 17.492187 H 24.8125 v 0.671875 q 1.226562,0.117188 1.945312,0.71875 0.921875,0.765625 1.109375,2.101563 l -1.453125,0.21875 Q 26.289062,20.375 25.890625,19.9375 25.5,19.492187 24.8125,19.351562 v 4.054688 q 1.0625,0.265625 1.40625,0.414062 0.65625,0.289063 1.070312,0.703125 0.414063,0.414063 0.632813,0.984375 0.226562,0.570313 0.226562,1.234375 0,1.460938 -0.929687,2.4375 -0.929688,0.976563 -2.40625,1.046875 v 1.421875 z m 0,-12.3125 q -0.820313,0.125 -1.296875,0.65625 -0.46875,0.53125 -0.46875,1.257813 0,0.71875 0.398437,1.203125 0.40625,0.484375 1.367188,0.773437 z m 0.828125,9.71875 q 0.820312,-0.101562 1.351562,-0.710937 0.539063,-0.609375 0.539063,-1.507813 0,-0.765625 -0.382813,-1.226562 -0.375,-0.46875 -1.507812,-0.835938 z M 34.070312,30 v -2.742188 h -4.96875 V 25.96875 l 5.226563,-7.421875 h 1.148437 v 7.421875 h 1.546875 v 1.289062 H 35.476562 V 30 Z m 0,-4.03125 v -5.164063 l -3.585937,5.164063 z m 4.390625,-1.617188 q 0,-2.03125 0.414063,-3.265625 0.421875,-1.242187 1.242187,-1.914062 Q 40.945312,18.5 42.195312,18.5 q 0.921875,0 1.617188,0.375 0.695312,0.367187 1.148437,1.070312 0.453125,0.695313 0.710938,1.703125 0.257812,1 0.257812,2.703125 0,2.015625 -0.414062,3.257813 -0.414063,1.234375 -1.242188,1.914062 -0.820312,0.671875 -2.078125,0.671875 -1.65625,0 -2.601562,-1.1875 -1.132813,-1.429687 -1.132813,-4.65625 z m 1.445313,0 q 0,2.820313 0.65625,3.757813 0.664062,0.929687 1.632812,0.929687 0.96875,0 1.625,-0.9375 0.664063,-0.9375 0.664063,-3.75 0,-2.828125 -0.664063,-3.757812 -0.65625,-0.929688 -1.640625,-0.929688 -0.96875,0 -1.546875,0.820313 -0.726562,1.046875 -0.726562,3.867187 z M 48.148437,30 V 28.398437 H 49.75 V 30 Z"
     id="text1"
     style="font-size:16px;font-family:Arial"
     aria-label="$40." />
</svg>
