<?xml version="1.0" encoding="UTF-8" standalone="no"?>
<svg
   width="800"
   height="100"
   version="1.1"
   id="svg1"
   xmlns="http://www.w3.org/2000/svg"
   xmlns:svg="http://www.w3.org/2000/svg">
  <defs
     id="defs1" />
  <rect
     width="100%"
     height="100%"
     fill="#FFF"
     id="rect1" />
  <path
     d="M 21.492187,30 V 18.546875 h 1.515625 V 30 Z m 13.867188,-3.039063 1.382812,0.179688 q -0.226562,1.429687 -1.164062,2.242187 -0.929688,0.804688 -2.289063,0.804688 -1.703125,0 -2.742187,-1.109375 -1.03125,-1.117188 -1.03125,-3.195313 0,-1.34375 0.445312,-2.351562 0.445313,-1.007813 1.351563,-1.507813 0.914062,-0.507812 1.984375,-0.507812 1.351562,0 2.210937,0.6875 0.859375,0.679687 1.101563,1.9375 l -1.367188,0.210937 q -0.195312,-0.835937 -0.695312,-1.257812 -0.492188,-0.421875 -1.195313,-0.421875 -1.0625,0 -1.726562,0.765625 -0.664063,0.757812 -0.664063,2.40625 0,1.671875 0.640625,2.429687 0.640625,0.757813 1.671875,0.757813 0.828125,0 1.382813,-0.507813 0.554687,-0.507812 0.703125,-1.5625 z m 2.0625,-1.109375 q 0,-2.304687 1.28125,-3.414062 1.070312,-0.921875 2.609375,-0.921875 1.710937,0 2.796875,1.125 1.085937,1.117187 1.085937,3.09375 0,1.601562 -0.484375,2.523437 -0.476562,0.914063 -1.398437,1.421875 -0.914063,0.507813 -2,0.507813 -1.742188,0 -2.820313,-1.117188 -1.070312,-1.117187 -1.070312,-3.21875 z m 1.445312,0 q 0,1.59375 0.695313,2.390625 0.695312,0.789063 1.75,0.789063 1.046875,0 1.742187,-0.796875 Q 43.75,27.4375 43.75,25.804687 q 0,-1.539062 -0.703125,-2.328125 -0.695313,-0.796875 -1.734375,-0.796875 -1.054688,0 -1.75,0.789063 -0.695313,0.789062 -0.695313,2.382812 z M 52.28125,30 v -1.21875 q -0.96875,1.40625 -2.632813,1.40625 -0.734375,0 -1.375,-0.28125 Q 47.640625,29.625 47.328125,29.203125 47.023437,28.773437 46.898437,28.15625 46.8125,27.742187 46.8125,26.84375 v -5.140625 h 1.40625 v 4.601562 q 0,1.101563 0.08594,1.484375 0.132813,0.554688 0.5625,0.875 0.429688,0.3125 1.0625,0.3125 0.632813,0 1.1875,-0.320312 0.554688,-0.328125 0.78125,-0.882813 0.234375,-0.5625 0.234375,-1.625 v -4.445312 h 1.40625 V 30 Z m 3.429687,0 V 18.546875 h 1.40625 V 30 Z m 8.96875,0 v -1.046875 q -0.789062,1.234375 -2.320312,1.234375 -0.992188,0 -1.828125,-0.546875 -0.828125,-0.546875 -1.289063,-1.523438 -0.453125,-0.984375 -0.453125,-2.257812 0,-1.242188 0.414063,-2.25 0.414062,-1.015625 1.242187,-1.554688 0.828125,-0.539062 1.851563,-0.539062 0.75,0 1.335937,0.320312 0.585938,0.3125 0.953125,0.820313 v -4.109375 h 1.398438 V 30 Z m -4.445312,-4.140625 q 0,1.59375 0.671875,2.382812 0.671875,0.789063 1.585937,0.789063 0.921875,0 1.5625,-0.75 0.648438,-0.757813 0.648438,-2.304688 0,-1.703125 -0.65625,-2.5 -0.65625,-0.796875 -1.617188,-0.796875 -0.9375,0 -1.570312,0.765625 -0.625,0.765625 -0.625,2.414063 z M 68.195312,30 v -8.296875 h 1.265625 v 1.179687 q 0.914063,-1.367187 2.640625,-1.367187 0.75,0 1.375,0.273437 0.632813,0.265625 0.945313,0.703125 0.3125,0.4375 0.4375,1.039063 0.07813,0.390625 0.07813,1.367187 V 30 h -1.40625 v -5.046875 q 0,-0.859375 -0.164063,-1.28125 -0.164062,-0.429688 -0.585937,-0.679688 -0.414063,-0.257812 -0.976563,-0.257812 -0.898437,0 -1.554687,0.570312 Q 69.601562,23.875 69.601562,25.46875 V 30 Z m 8.90625,-7.398438 -0.359375,-2.140625 v -1.914062 h 1.601563 v 1.914062 l -0.375,2.140625 z m 6.117188,6.140625 0.203125,1.242188 q -0.59375,0.125 -1.0625,0.125 -0.765625,0 -1.1875,-0.242188 Q 80.75,29.625 80.578125,29.234375 80.40625,28.835937 80.40625,27.570312 V 22.796875 H 79.375 v -1.09375 h 1.03125 v -2.054688 l 1.398437,-0.84375 v 2.898438 h 1.414063 v 1.09375 h -1.414063 v 4.851562 q 0,0.601563 0.07031,0.773438 0.07813,0.171875 0.242187,0.273437 0.171875,0.101563 0.484375,0.101563 0.234375,0 0.617188,-0.05469 z M 94.476562,30 v -1.21875 q -0.96875,1.40625 -2.632812,1.40625 -0.734375,0 -1.375,-0.28125 Q 89.835937,29.625 89.523437,29.203125 89.21875,28.773437 89.09375,28.15625 q -0.08594,-0.414063 -0.08594,-1.3125 v -5.140625 h 1.40625 v 4.601562 q 0,1.101563 0.08594,1.484375 0.132812,0.554688 0.5625,0.875 0.429687,0.3125 1.0625,0.3125 0.632812,0 1.1875,-0.320312 0.554687,-0.328125 0.78125,-0.882813 0.234375,-0.5625 0.234375,-1.625 v -4.445312 h 1.40625 V 30 Z m 3.460938,0 v -8.296875 h 1.265625 v 1.179687 q 0.914065,-1.367187 2.640625,-1.367187 0.75,0 1.375,0.273437 0.63281,0.265625 0.94531,0.703125 0.3125,0.4375 0.4375,1.039063 0.0781,0.390625 0.0781,1.367187 V 30 h -1.40625 v -5.046875 q 0,-0.859375 -0.16406,-1.28125 -0.16407,-0.429688 -0.58594,-0.679688 -0.41406,-0.257812 -0.97656,-0.257812 -0.89844,0 -1.554693,0.570312 Q 99.34375,23.875 99.34375,25.46875 V 30 Z m 14.28125,0 v -1.046875 q -0.78906,1.234375 -2.32031,1.234375 -0.99219,0 -1.82813,-0.546875 -0.82812,-0.546875 -1.28906,-1.523438 -0.45312,-0.984375 -0.45312,-2.257812 0,-1.242188 0.41406,-2.25 0.41406,-1.015625 1.24219,-1.554688 0.82812,-0.539062 1.85156,-0.539062 0.75,0 1.33594,0.320312 0.58593,0.3125 0.95312,0.820313 v -4.109375 h 1.39844 V 30 Z m -4.44531,-4.140625 q 0,1.59375 0.67187,2.382812 0.67188,0.789063 1.58594,0.789063 0.92188,0 1.5625,-0.75 0.64844,-0.757813 0.64844,-2.304688 0,-1.703125 -0.65625,-2.5 -0.65625,-0.796875 -1.61719,-0.796875 -0.9375,0 -1.57031,0.765625 -0.625,0.765625 -0.625,2.414063 z m 13.64062,1.46875 1.45313,0.179687 q -0.34375,1.273438 -1.27344,1.976563 -0.92969,0.703125 -2.375,0.703125 -1.82031,0 -2.89062,-1.117188 -1.0625,-1.125 -1.0625,-3.148437 0,-2.09375 1.07812,-3.25 1.07813,-1.15625 2.79688,-1.15625 1.66406,0 2.71875,1.132812 1.05468,1.132813 1.05468,3.1875 0,0.125 -0.008,0.375 h -6.1875 q 0.0781,1.367188 0.77344,2.09375 0.69531,0.726563 1.73437,0.726563 0.77344,0 1.32032,-0.40625 0.54687,-0.40625 0.86718,-1.296875 z m -4.61718,-2.273438 h 4.63281 q -0.0937,-1.046875 -0.53125,-1.570312 -0.67188,-0.8125 -1.74219,-0.8125 -0.96875,0 -1.63281,0.648437 -0.65625,0.648438 -0.72656,1.734375 z M 124.61719,30 v -8.296875 h 1.26562 v 1.257812 q 0.48438,-0.882812 0.89063,-1.164062 0.41406,-0.28125 0.90625,-0.28125 0.71093,0 1.44531,0.453125 l -0.48438,1.304687 q -0.51562,-0.304687 -1.03124,-0.304687 -0.46094,0 -0.82813,0.28125 -0.36719,0.273437 -0.52344,0.765625 -0.23437,0.75 -0.23437,1.640625 V 30 Z m 4.78125,-2.476563 1.39062,-0.21875 q 0.11719,0.835938 0.64844,1.28125 0.53906,0.445313 1.5,0.445313 0.96875,0 1.4375,-0.390625 0.46875,-0.398438 0.46875,-0.929688 0,-0.476562 -0.41406,-0.75 -0.28907,-0.1875 -1.4375,-0.476562 -1.54688,-0.390625 -2.14844,-0.671875 -0.59375,-0.289063 -0.90625,-0.789063 -0.30469,-0.507812 -0.30469,-1.117187 0,-0.554688 0.25,-1.023438 0.25781,-0.476562 0.69531,-0.789062 0.32813,-0.242188 0.89063,-0.40625 0.57031,-0.171875 1.21875,-0.171875 0.97656,0 1.71094,0.28125 0.74218,0.28125 1.09375,0.765625 0.35156,0.476562 0.48437,1.28125 l -1.375,0.1875 q -0.0937,-0.640625 -0.54687,-1 -0.44532,-0.359375 -1.26563,-0.359375 -0.96875,0 -1.38281,0.320312 -0.41406,0.320313 -0.41406,0.75 0,0.273438 0.17187,0.492188 0.17188,0.226562 0.53906,0.375 0.21094,0.07813 1.24219,0.359375 1.49219,0.398437 2.07813,0.65625 0.59375,0.25 0.92968,0.734375 0.33594,0.484375 0.33594,1.203125 0,0.703125 -0.41406,1.328125 -0.40625,0.617187 -1.17969,0.960937 -0.77344,0.335938 -1.75,0.335938 -1.61719,0 -2.46875,-0.671875 -0.84375,-0.671875 -1.07812,-1.992188 z m 11.63281,1.21875 0.20312,1.242188 q -0.59375,0.125 -1.0625,0.125 -0.76562,0 -1.1875,-0.242188 -0.42187,-0.242187 -0.59375,-0.632812 -0.17187,-0.398438 -0.17187,-1.664063 v -4.773437 h -1.03125 v -1.09375 h 1.03125 v -2.054688 l 1.39844,-0.84375 v 2.898438 h 1.41406 v 1.09375 h -1.41406 v 4.851562 q 0,0.601563 0.0703,0.773438 0.0781,0.171875 0.24219,0.273437 0.17187,0.101563 0.48437,0.101563 0.23438,0 0.61719,-0.05469 z m 6.78906,0.234375 q -0.78125,0.664063 -1.50781,0.9375 -0.71875,0.273438 -1.54688,0.273438 -1.36718,0 -2.10156,-0.664063 -0.73437,-0.671875 -0.73437,-1.710937 0,-0.609375 0.27343,-1.109375 0.28125,-0.507813 0.72657,-0.8125 0.45312,-0.304688 1.01562,-0.460938 0.41406,-0.109375 1.25,-0.210937 1.70313,-0.203125 2.50781,-0.484375 0.008,-0.289063 0.008,-0.367188 0,-0.859375 -0.39844,-1.210937 -0.53906,-0.476563 -1.60156,-0.476563 -0.99219,0 -1.46875,0.351563 -0.46875,0.34375 -0.69532,1.226562 l -1.375,-0.1875 q 0.1875,-0.882812 0.61719,-1.421875 0.42969,-0.546875 1.24219,-0.835937 0.8125,-0.296875 1.88281,-0.296875 1.0625,0 1.72656,0.25 0.66407,0.25 0.97657,0.632812 0.3125,0.375 0.4375,0.953125 0.0703,0.359375 0.0703,1.296875 v 1.875 q 0,1.960938 0.0859,2.484375 0.0937,0.515625 0.35937,0.992188 h -1.46875 q -0.21875,-0.4375 -0.28125,-1.023438 z m -0.11719,-3.140625 q -0.76562,0.3125 -2.29687,0.53125 -0.86719,0.125 -1.22656,0.28125 -0.35938,0.15625 -0.55469,0.460938 -0.19531,0.296875 -0.19531,0.664062 0,0.5625 0.42187,0.9375 0.42969,0.375 1.25,0.375 0.8125,0 1.44531,-0.351562 0.63282,-0.359375 0.92969,-0.976563 0.22656,-0.476562 0.22656,-1.40625 z M 151.30469,30 v -8.296875 h 1.26562 v 1.179687 q 0.91406,-1.367187 2.64063,-1.367187 0.75,0 1.375,0.273437 0.63281,0.265625 0.94531,0.703125 0.3125,0.4375 0.4375,1.039063 0.0781,0.390625 0.0781,1.367187 V 30 h -1.40625 v -5.046875 q 0,-0.859375 -0.16406,-1.28125 -0.16406,-0.429688 -0.58594,-0.679688 -0.41406,-0.257812 -0.97656,-0.257812 -0.89844,0 -1.55469,0.570312 -0.64843,0.570313 -0.64843,2.164063 V 30 Z m 14.28125,0 v -1.046875 q -0.78907,1.234375 -2.32032,1.234375 -0.99218,0 -1.82812,-0.546875 -0.82813,-0.546875 -1.28906,-1.523438 -0.45313,-0.984375 -0.45313,-2.257812 0,-1.242188 0.41406,-2.25 0.41407,-1.015625 1.24219,-1.554688 0.82813,-0.539062 1.85156,-0.539062 0.75,0 1.33594,0.320312 0.58594,0.3125 0.95313,0.820313 v -4.109375 h 1.39843 V 30 Z m -4.44532,-4.140625 q 0,1.59375 0.67188,2.382812 0.67187,0.789063 1.58594,0.789063 0.92187,0 1.5625,-0.75 0.64843,-0.757813 0.64843,-2.304688 0,-1.703125 -0.65625,-2.5 -0.65625,-0.796875 -1.61718,-0.796875 -0.9375,0 -1.57032,0.765625 -0.625,0.765625 -0.625,2.414063 z M 175.07812,30 172.53906,21.703125 h 1.45313 l 1.32031,4.789062 0.49219,1.78125 q 0.0312,-0.132812 0.42968,-1.710937 l 1.32032,-4.859375 H 179 l 1.24219,4.8125 0.41406,1.585937 0.47656,-1.601562 1.42188,-4.796875 h 1.36718 L 181.32812,30 h -1.46093 L 178.54687,25.03125 178.22656,23.617187 176.54687,30 Z m 10.02344,0 V 18.546875 h 1.40625 v 4.109375 q 0.98438,-1.140625 2.48438,-1.140625 0.92187,0 1.60156,0.367187 0.67969,0.359375 0.96875,1 0.29687,0.640625 0.29687,1.859375 V 30 h -1.40625 v -5.257813 q 0,-1.054687 -0.46093,-1.53125 -0.45313,-0.484375 -1.28907,-0.484375 -0.625,0 -1.17968,0.328125 -0.54688,0.320313 -0.78125,0.875 -0.23438,0.554688 -0.23438,1.53125 V 30 Z m 14.3125,-1.023438 q -0.78125,0.664063 -1.50781,0.9375 -0.71875,0.273438 -1.54688,0.273438 -1.36718,0 -2.10156,-0.664063 -0.73437,-0.671875 -0.73437,-1.710937 0,-0.609375 0.27343,-1.109375 0.28125,-0.507813 0.72657,-0.8125 0.45312,-0.304688 1.01562,-0.460938 0.41406,-0.109375 1.25,-0.210937 1.70313,-0.203125 2.50781,-0.484375 0.008,-0.289063 0.008,-0.367188 0,-0.859375 -0.39844,-1.210937 -0.53906,-0.476563 -1.60156,-0.476563 -0.99219,0 -1.46875,0.351563 -0.46875,0.34375 -0.69532,1.226562 l -1.375,-0.1875 q 0.1875,-0.882812 0.61719,-1.421875 0.42969,-0.546875 1.24219,-0.835937 0.8125,-0.296875 1.88281,-0.296875 1.0625,0 1.72656,0.25 0.66407,0.25 0.97657,0.632812 0.3125,0.375 0.4375,0.953125 0.0703,0.359375 0.0703,1.296875 v 1.875 q 0,1.960938 0.0859,2.484375 0.0937,0.515625 0.35937,0.992188 h -1.46875 q -0.21875,-0.4375 -0.28125,-1.023438 z m -0.11719,-3.140625 q -0.76562,0.3125 -2.29687,0.53125 -0.86719,0.125 -1.22656,0.28125 -0.35938,0.15625 -0.55469,0.460938 -0.19531,0.296875 -0.19531,0.664062 0,0.5625 0.42187,0.9375 0.42969,0.375 1.25,0.375 0.8125,0 1.44531,-0.351562 0.63282,-0.359375 0.92969,-0.976563 0.22656,-0.476562 0.22656,-1.40625 z m 6.67188,2.90625 0.20312,1.242188 q -0.59375,0.125 -1.0625,0.125 -0.76562,0 -1.1875,-0.242188 Q 203.5,29.625 203.32812,29.234375 203.15625,28.835937 203.15625,27.570312 V 22.796875 H 202.125 v -1.09375 h 1.03125 v -2.054688 l 1.39844,-0.84375 v 2.898438 h 1.41406 v 1.09375 h -1.41406 v 4.851562 q 0,0.601563 0.0703,0.773438 0.0781,0.171875 0.24219,0.273437 0.17187,0.101563 0.48437,0.101563 0.23438,0 0.61719,-0.05469 z M 213.32031,30 210.78125,21.703125 h 1.45312 l 1.32032,4.789062 0.49218,1.78125 q 0.0312,-0.132812 0.42969,-1.710937 l 1.32031,-4.859375 h 1.44532 l 1.24218,4.8125 0.41407,1.585937 L 219.375,26.5 l 1.42187,-4.796875 h 1.36719 L 219.57031,30 h -1.46094 L 216.78906,25.03125 216.46875,23.617187 214.78906,30 Z m 15.4375,-1.023438 q -0.78125,0.664063 -1.50781,0.9375 -0.71875,0.273438 -1.54688,0.273438 -1.36718,0 -2.10156,-0.664063 -0.73437,-0.671875 -0.73437,-1.710937 0,-0.609375 0.27343,-1.109375 0.28125,-0.507813 0.72657,-0.8125 0.45312,-0.304688 1.01562,-0.460938 0.41406,-0.109375 1.25,-0.210937 1.70313,-0.203125 2.50781,-0.484375 0.008,-0.289063 0.008,-0.367188 0,-0.859375 -0.39844,-1.210937 -0.53906,-0.476563 -1.60156,-0.476563 -0.99219,0 -1.46875,0.351563 -0.46875,0.34375 -0.69532,1.226562 l -1.375,-0.1875 q 0.1875,-0.882812 0.61719,-1.421875 0.42969,-0.546875 1.24219,-0.835937 0.8125,-0.296875 1.88281,-0.296875 1.0625,0 1.72656,0.25 0.66407,0.25 0.97657,0.632812 0.3125,0.375 0.4375,0.953125 0.0703,0.359375 0.0703,1.296875 v 1.875 q 0,1.960938 0.0859,2.484375 0.0937,0.515625 0.35937,0.992188 h -1.46875 q -0.21875,-0.4375 -0.28125,-1.023438 z m -0.11719,-3.140625 q -0.76562,0.3125 -2.29687,0.53125 -0.86719,0.125 -1.22656,0.28125 -0.35938,0.15625 -0.55469,0.460938 -0.19531,0.296875 -0.19531,0.664062 0,0.5625 0.42187,0.9375 0.42969,0.375 1.25,0.375 0.8125,0 1.44531,-0.351562 0.63282,-0.359375 0.92969,-0.976563 0.22656,-0.476562 0.22656,-1.40625 z m 3.03907,1.6875 1.39062,-0.21875 q 0.11719,0.835938 0.64844,1.28125 0.53906,0.445313 1.5,0.445313 0.96875,0 1.4375,-0.390625 0.46875,-0.398438 0.46875,-0.929688 0,-0.476562 -0.41406,-0.75 -0.28907,-0.1875 -1.4375,-0.476562 -1.54688,-0.390625 -2.14844,-0.671875 -0.59375,-0.289063 -0.90625,-0.789063 -0.30469,-0.507812 -0.30469,-1.117187 0,-0.554688 0.25,-1.023438 0.25781,-0.476562 0.69531,-0.789062 0.32813,-0.242188 0.89063,-0.40625 0.57031,-0.171875 1.21875,-0.171875 0.97656,0 1.71094,0.28125 0.74218,0.28125 1.09375,0.765625 0.35156,0.476562 0.48437,1.28125 l -1.375,0.1875 q -0.0937,-0.640625 -0.54687,-1 -0.44532,-0.359375 -1.26563,-0.359375 -0.96875,0 -1.38281,0.320312 -0.41406,0.320313 -0.41406,0.75 0,0.273438 0.17187,0.492188 0.17188,0.226562 0.53906,0.375 0.21094,0.07813 1.24219,0.359375 1.49219,0.398437 2.07813,0.65625 0.59375,0.25 0.92968,0.734375 0.33594,0.484375 0.33594,1.203125 0,0.703125 -0.41406,1.328125 -0.40625,0.617187 -1.17969,0.960937 -0.77344,0.335938 -1.75,0.335938 -1.61719,0 -2.46875,-0.671875 -0.84375,-0.671875 -1.07812,-1.992188 z m 12.44531,0 1.39062,-0.21875 q 0.11719,0.835938 0.64844,1.28125 0.53906,0.445313 1.5,0.445313 0.96875,0 1.4375,-0.390625 0.46875,-0.398438 0.46875,-0.929688 0,-0.476562 -0.41406,-0.75 -0.28906,-0.1875 -1.4375,-0.476562 -1.54688,-0.390625 -2.14844,-0.671875 -0.59375,-0.289063 -0.90625,-0.789063 -0.30469,-0.507812 -0.30469,-1.117187 0,-0.554688 0.25,-1.023438 0.25782,-0.476562 0.69532,-0.789062 0.32812,-0.242188 0.89062,-0.40625 0.57031,-0.171875 1.21875,-0.171875 0.97656,0 1.71094,0.28125 0.74219,0.28125 1.09375,0.765625 0.35156,0.476562 0.48437,1.28125 l -1.375,0.1875 q -0.0937,-0.640625 -0.54687,-1 -0.44531,-0.359375 -1.26563,-0.359375 -0.96875,0 -1.38281,0.320312 -0.41406,0.320313 -0.41406,0.75 0,0.273438 0.17187,0.492188 0.17188,0.226562 0.53907,0.375 0.21093,0.07813 1.24218,0.359375 1.49219,0.398437 2.07813,0.65625 0.59375,0.25 0.92969,0.734375 0.33593,0.484375 0.33593,1.203125 0,0.703125 -0.41406,1.328125 -0.40625,0.617187 -1.17969,0.960937 -0.77343,0.335938 -1.75,0.335938 -1.61718,0 -2.46875,-0.671875 -0.84375,-0.671875 -1.07812,-1.992188 z m 13.97656,1.453125 q -0.78125,0.664063 -1.50781,0.9375 -0.71875,0.273438 -1.54688,0.273438 -1.36718,0 -2.10156,-0.664063 -0.73437,-0.671875 -0.73437,-1.710937 0,-0.609375 0.27343,-1.109375 0.28125,-0.507813 0.72657,-0.8125 0.45312,-0.304688 1.01562,-0.460938 0.41406,-0.109375 1.25,-0.210937 1.70313,-0.203125 2.50781,-0.484375 0.008,-0.289063 0.008,-0.367188 0,-0.859375 -0.39844,-1.210937 -0.53906,-0.476563 -1.60156,-0.476563 -0.99219,0 -1.46875,0.351563 -0.46875,0.34375 -0.69532,1.226562 l -1.375,-0.1875 q 0.1875,-0.882812 0.61719,-1.421875 0.42969,-0.546875 1.24219,-0.835937 0.8125,-0.296875 1.88281,-0.296875 1.0625,0 1.72656,0.25 0.66407,0.25 0.97657,0.632812 0.3125,0.375 0.4375,0.953125 0.0703,0.359375 0.0703,1.296875 v 1.875 q 0,1.960938 0.0859,2.484375 0.0937,0.515625 0.35937,0.992188 h -1.46875 q -0.21875,-0.4375 -0.28125,-1.023438 z m -0.11719,-3.140625 q -0.76562,0.3125 -2.29687,0.53125 -0.86719,0.125 -1.22656,0.28125 -0.35938,0.15625 -0.55469,0.460938 -0.19531,0.296875 -0.19531,0.664062 0,0.5625 0.42187,0.9375 0.42969,0.375 1.25,0.375 0.8125,0 1.44531,-0.351562 0.63282,-0.359375 0.92969,-0.976563 0.22656,-0.476562 0.22656,-1.40625 z m 3.60938,-5.671875 V 18.546875 H 263 v 1.617187 z m 0,9.835938 V 21.703125 H 263 V 30 Z m 8.92969,0 v -1.046875 q -0.78907,1.234375 -2.32032,1.234375 -0.99218,0 -1.82812,-0.546875 -0.82813,-0.546875 -1.28906,-1.523438 -0.45313,-0.984375 -0.45313,-2.257812 0,-1.242188 0.41406,-2.25 0.41407,-1.015625 1.24219,-1.554688 0.82813,-0.539062 1.85156,-0.539062 0.75,0 1.33594,0.320312 0.58594,0.3125 0.95313,0.820313 v -4.109375 h 1.39843 V 30 Z m -4.44532,-4.140625 q 0,1.59375 0.67188,2.382812 0.67187,0.789063 1.58594,0.789063 0.92187,0 1.5625,-0.75 0.64843,-0.757813 0.64843,-2.304688 0,-1.703125 -0.65625,-2.5 -0.65625,-0.796875 -1.61718,-0.796875 -0.9375,0 -1.57032,0.765625 -0.625,0.765625 -0.625,2.414063 z"
     id="text1"
     style="font-size:16px;font-family:Arial"
     aria-label="I couldn't understand what was said" />
</svg>
