<?xml version="1.0" encoding="UTF-8" standalone="no"?>
<svg
   width="800"
   height="100"
   version="1.1"
   id="svg1"
   xmlns="http://www.w3.org/2000/svg"
   xmlns:svg="http://www.w3.org/2000/svg">
  <defs
     id="defs1" />
  <rect
     width="100%"
     height="100%"
     fill="#FFF"
     id="rect1" />
  <path
     d="m 20.773437,24.421875 q 0,-2.851563 1.53125,-4.460938 1.53125,-1.617187 3.953125,-1.617187 1.585938,0 2.859375,0.757812 1.273438,0.757813 1.9375,2.117188 0.671875,1.351562 0.671875,3.070312 0,1.742188 -0.703125,3.117188 -0.703125,1.375 -1.992187,2.085937 -1.289063,0.703125 -2.78125,0.703125 -1.617188,0 -2.890625,-0.78125 -1.273438,-0.78125 -1.929688,-2.132812 -0.65625,-1.351563 -0.65625,-2.859375 z m 1.5625,0.02344 q 0,2.070313 1.109375,3.265625 1.117188,1.1875 2.796875,1.1875 1.710938,0 2.8125,-1.203125 1.109375,-1.203125 1.109375,-3.414062 0,-1.398438 -0.476562,-2.4375 -0.46875,-1.046875 -1.382813,-1.617188 -0.90625,-0.578125 -2.039062,-0.578125 -1.609375,0 -2.773438,1.109375 -1.15625,1.101563 -1.15625,3.6875 z M 33.5,30 v -8.296875 h 1.265625 v 1.179687 q 0.914062,-1.367187 2.640625,-1.367187 0.75,0 1.375,0.273437 0.632812,0.265625 0.945312,0.703125 0.3125,0.4375 0.4375,1.039063 0.07813,0.390625 0.07813,1.367187 V 30 h -1.40625 v -5.046875 q 0,-0.859375 -0.164062,-1.28125 -0.164063,-0.429688 -0.585938,-0.679688 -0.414062,-0.257812 -0.976562,-0.257812 -0.898438,0 -1.554688,0.570312 Q 34.90625,23.875 34.90625,25.46875 V 30 Z m 14.578125,-2.671875 1.453125,0.179687 q -0.34375,1.273438 -1.273438,1.976563 -0.929687,0.703125 -2.375,0.703125 -1.820312,0 -2.890625,-1.117188 -1.0625,-1.125 -1.0625,-3.148437 0,-2.09375 1.078125,-3.25 1.078125,-1.15625 2.796875,-1.15625 1.664063,0 2.71875,1.132812 1.054688,1.132813 1.054688,3.1875 0,0.125 -0.0078,0.375 h -6.1875 q 0.07813,1.367188 0.773438,2.09375 0.695312,0.726563 1.734375,0.726563 0.773437,0 1.320312,-0.40625 0.546875,-0.40625 0.867188,-1.296875 z M 43.460937,25.054687 H 48.09375 Q 48,24.007812 47.5625,23.484375 q -0.671875,-0.8125 -1.742188,-0.8125 -0.96875,0 -1.632812,0.648437 -0.65625,0.648438 -0.726563,1.734375 z M 51.664062,30 v -1.601563 h 1.601563 V 30 q 0,0.882812 -0.3125,1.421875 -0.3125,0.546875 -0.992188,0.84375 L 51.570312,31.664062 Q 52.015625,31.46875 52.226562,31.085937 52.4375,30.710937 52.460937,30 Z m 11.59375,-1.257813 0.203125,1.242188 q -0.59375,0.125 -1.0625,0.125 -0.765625,0 -1.1875,-0.242188 -0.421875,-0.242187 -0.59375,-0.632812 -0.171875,-0.398438 -0.171875,-1.664063 v -4.773437 h -1.03125 v -1.09375 h 1.03125 v -2.054688 l 1.398438,-0.84375 v 2.898438 h 1.414062 v 1.09375 H 61.84375 v 4.851562 q 0,0.601563 0.07031,0.773438 0.07813,0.171875 0.242188,0.273437 0.171875,0.101563 0.484375,0.101563 0.234375,0 0.617187,-0.05469 z M 66.164062,30 63.625,21.703125 h 1.453125 l 1.320312,4.789062 0.492188,1.78125 q 0.03125,-0.132812 0.429687,-1.710937 l 1.320313,-4.859375 h 1.445312 l 1.242188,4.8125 0.414062,1.585937 L 72.21875,26.5 73.640625,21.703125 h 1.367187 L 72.414062,30 H 70.953125 L 69.632812,25.03125 69.3125,23.617187 67.632812,30 Z m 9.5,-4.148438 q 0,-2.304687 1.28125,-3.414062 1.070313,-0.921875 2.609375,-0.921875 1.710938,0 2.796875,1.125 1.085938,1.117187 1.085938,3.09375 0,1.601562 -0.484375,2.523437 -0.476563,0.914063 -1.398438,1.421875 -0.914062,0.507813 -2,0.507813 -1.742187,0 -2.820312,-1.117188 -1.070313,-1.117187 -1.070313,-3.21875 z m 1.445313,0 q 0,1.59375 0.695312,2.390625 0.695313,0.789063 1.75,0.789063 1.046875,0 1.742188,-0.796875 0.695312,-0.796875 0.695312,-2.429688 0,-1.539062 -0.703125,-2.328125 -0.695312,-0.796875 -1.734375,-0.796875 -1.054687,0 -1.75,0.789063 -0.695312,0.789062 -0.695312,2.382812 z M 85.453125,30 v -1.601563 h 1.601562 V 30 q 0,0.882812 -0.3125,1.421875 -0.3125,0.546875 -0.992187,0.84375 L 85.359375,31.664062 Q 85.804687,31.46875 86.015625,31.085937 86.226562,30.710937 86.25,30 Z m 8,-4.148438 q 0,-2.304687 1.28125,-3.414062 1.070312,-0.921875 2.609375,-0.921875 1.710937,0 2.79688,1.125 1.08593,1.117187 1.08593,3.09375 0,1.601562 -0.48437,2.523437 -0.47656,0.914063 -1.39844,1.421875 -0.914063,0.507813 -2,0.507813 -1.742188,0 -2.820313,-1.117188 -1.070312,-1.117187 -1.070312,-3.21875 z m 1.445312,0 q 0,1.59375 0.695313,2.390625 0.695312,0.789063 1.75,0.789063 1.046875,0 1.742187,-0.796875 0.695313,-0.796875 0.695313,-2.429688 0,-1.539062 -0.703125,-2.328125 -0.695313,-0.796875 -1.734375,-0.796875 -1.054688,0 -1.75,0.789063 -0.695313,0.789062 -0.695313,2.382812 z M 102.875,30 v -8.296875 h 1.26563 v 1.179687 q 0.91406,-1.367187 2.64062,-1.367187 0.75,0 1.375,0.273437 0.63281,0.265625 0.94531,0.703125 0.3125,0.4375 0.4375,1.039063 0.0781,0.390625 0.0781,1.367187 V 30 h -1.40625 v -5.046875 q 0,-0.859375 -0.16406,-1.28125 -0.16407,-0.429688 -0.58594,-0.679688 -0.41406,-0.257812 -0.97656,-0.257812 -0.89844,0 -1.55469,0.570312 -0.64844,0.570313 -0.64844,2.164063 V 30 Z m 14.57813,-2.671875 1.45312,0.179687 q -0.34375,1.273438 -1.27344,1.976563 -0.92968,0.703125 -2.375,0.703125 -1.82031,0 -2.89062,-1.117188 -1.0625,-1.125 -1.0625,-3.148437 0,-2.09375 1.07812,-3.25 1.07813,-1.15625 2.79688,-1.15625 1.66406,0 2.71875,1.132812 1.05469,1.132813 1.05469,3.1875 0,0.125 -0.008,0.375 h -6.1875 q 0.0781,1.367188 0.77344,2.09375 0.69531,0.726563 1.73438,0.726563 0.77343,0 1.32031,-0.40625 0.54687,-0.40625 0.86719,-1.296875 z m -4.61719,-2.273438 h 4.63281 q -0.0937,-1.046875 -0.53125,-1.570312 -0.67187,-0.8125 -1.74219,-0.8125 -0.96875,0 -1.63281,0.648437 -0.65625,0.648438 -0.72656,1.734375 z M 121.03906,30 v -1.601563 h 1.60157 V 30 q 0,0.882812 -0.3125,1.421875 -0.3125,0.546875 -0.99219,0.84375 l -0.39063,-0.601563 q 0.44532,-0.195312 0.65625,-0.578125 0.21094,-0.375 0.23438,-1.085937 z m 11.59375,-1.257813 0.20313,1.242188 q -0.59375,0.125 -1.0625,0.125 -0.76563,0 -1.1875,-0.242188 -0.42188,-0.242187 -0.59375,-0.632812 -0.17188,-0.398438 -0.17188,-1.664063 v -4.773437 h -1.03125 v -1.09375 h 1.03125 v -2.054688 l 1.39844,-0.84375 v 2.898438 h 1.41406 v 1.09375 h -1.41406 v 4.851562 q 0,0.601563 0.0703,0.773438 0.0781,0.171875 0.24219,0.273437 0.17187,0.101563 0.48437,0.101563 0.23438,0 0.61719,-0.05469 z M 135.53906,30 133,21.703125 h 1.45312 l 1.32032,4.789062 0.49218,1.78125 q 0.0312,-0.132812 0.42969,-1.710937 l 1.32031,-4.859375 h 1.44532 l 1.24218,4.8125 0.41407,1.585937 0.47656,-1.601562 1.42187,-4.796875 h 1.36719 L 141.78906,30 h -1.46094 L 139.00781,25.03125 138.6875,23.617187 137.00781,30 Z m 9.5,-4.148438 q 0,-2.304687 1.28125,-3.414062 1.07031,-0.921875 2.60938,-0.921875 1.71093,0 2.79687,1.125 1.08594,1.117187 1.08594,3.09375 0,1.601562 -0.48438,2.523437 -0.47656,0.914063 -1.39843,1.421875 -0.91407,0.507813 -2,0.507813 -1.74219,0 -2.82032,-1.117188 -1.07031,-1.117187 -1.07031,-3.21875 z m 1.44531,0 q 0,1.59375 0.69532,2.390625 0.69531,0.789063 1.75,0.789063 1.04687,0 1.74218,-0.796875 0.69532,-0.796875 0.69532,-2.429688 0,-1.539062 -0.70313,-2.328125 -0.69531,-0.796875 -1.73437,-0.796875 -1.05469,0 -1.75,0.789063 -0.69532,0.789062 -0.69532,2.382812 z M 154.82812,30 v -1.601563 h 1.60157 V 30 q 0,0.882812 -0.3125,1.421875 -0.3125,0.546875 -0.99219,0.84375 l -0.39063,-0.601563 q 0.44532,-0.195312 0.65625,-0.578125 0.21094,-0.375 0.23438,-1.085937 z m 8,-4.148438 q 0,-2.304687 1.28125,-3.414062 1.07032,-0.921875 2.60938,-0.921875 1.71094,0 2.79687,1.125 1.08594,1.117187 1.08594,3.09375 0,1.601562 -0.48437,2.523437 -0.47657,0.914063 -1.39844,1.421875 -0.91406,0.507813 -2,0.507813 -1.74219,0 -2.82031,-1.117188 -1.07032,-1.117187 -1.07032,-3.21875 z m 1.44532,0 q 0,1.59375 0.69531,2.390625 0.69531,0.789063 1.75,0.789063 1.04687,0 1.74219,-0.796875 0.69531,-0.796875 0.69531,-2.429688 0,-1.539062 -0.70313,-2.328125 -0.69531,-0.796875 -1.73437,-0.796875 -1.05469,0 -1.75,0.789063 -0.69531,0.789062 -0.69531,2.382812 z M 172.25,30 v -8.296875 h 1.26562 v 1.179687 q 0.91407,-1.367187 2.64063,-1.367187 0.75,0 1.375,0.273437 0.63281,0.265625 0.94531,0.703125 0.3125,0.4375 0.4375,1.039063 0.0781,0.390625 0.0781,1.367187 V 30 h -1.40625 v -5.046875 q 0,-0.859375 -0.16407,-1.28125 -0.16406,-0.429688 -0.58593,-0.679688 -0.41407,-0.257812 -0.97657,-0.257812 -0.89843,0 -1.55468,0.570312 -0.64844,0.570313 -0.64844,2.164063 V 30 Z m 14.57812,-2.671875 1.45313,0.179687 q -0.34375,1.273438 -1.27344,1.976563 -0.92969,0.703125 -2.375,0.703125 -1.82031,0 -2.89062,-1.117188 -1.0625,-1.125 -1.0625,-3.148437 0,-2.09375 1.07812,-3.25 1.07813,-1.15625 2.79688,-1.15625 1.66406,0 2.71875,1.132812 1.05468,1.132813 1.05468,3.1875 0,0.125 -0.008,0.375 h -6.1875 q 0.0781,1.367188 0.77344,2.09375 0.69531,0.726563 1.73437,0.726563 0.77344,0 1.32032,-0.40625 0.54687,-0.40625 0.86718,-1.296875 z m -4.61718,-2.273438 h 4.63281 q -0.0937,-1.046875 -0.53125,-1.570312 -0.67188,-0.8125 -1.74219,-0.8125 -0.96875,0 -1.63281,0.648437 -0.65625,0.648438 -0.72656,1.734375 z M 190.41406,30 v -1.601563 h 1.60156 V 30 q 0,0.882812 -0.3125,1.421875 -0.3125,0.546875 -0.99218,0.84375 l -0.39063,-0.601563 q 0.44531,-0.195312 0.65625,-0.578125 0.21094,-0.375 0.23438,-1.085937 z m 11.59375,-1.257813 0.20313,1.242188 q -0.59375,0.125 -1.0625,0.125 -0.76563,0 -1.1875,-0.242188 -0.42188,-0.242187 -0.59375,-0.632812 -0.17188,-0.398438 -0.17188,-1.664063 v -4.773437 h -1.03125 v -1.09375 h 1.03125 v -2.054688 l 1.39844,-0.84375 v 2.898438 h 1.41406 v 1.09375 h -1.41406 v 4.851562 q 0,0.601563 0.0703,0.773438 0.0781,0.171875 0.24219,0.273437 0.17187,0.101563 0.48437,0.101563 0.23438,0 0.61719,-0.05469 z M 204.91406,30 202.375,21.703125 h 1.45312 l 1.32032,4.789062 0.49218,1.78125 q 0.0312,-0.132812 0.42969,-1.710937 l 1.32031,-4.859375 h 1.44532 l 1.24218,4.8125 0.41407,1.585937 0.47656,-1.601562 1.42187,-4.796875 h 1.36719 L 211.16406,30 h -1.46094 L 208.38281,25.03125 208.0625,23.617187 206.38281,30 Z m 9.5,-4.148438 q 0,-2.304687 1.28125,-3.414062 1.07031,-0.921875 2.60938,-0.921875 1.71093,0 2.79687,1.125 1.08594,1.117187 1.08594,3.09375 0,1.601562 -0.48438,2.523437 -0.47656,0.914063 -1.39843,1.421875 -0.91407,0.507813 -2,0.507813 -1.74219,0 -2.82032,-1.117188 -1.07031,-1.117187 -1.07031,-3.21875 z m 1.44531,0 q 0,1.59375 0.69532,2.390625 0.69531,0.789063 1.75,0.789063 1.04687,0 1.74218,-0.796875 0.69532,-0.796875 0.69532,-2.429688 0,-1.539062 -0.70313,-2.328125 -0.69531,-0.796875 -1.73437,-0.796875 -1.05469,0 -1.75,0.789063 -0.69532,0.789062 -0.69532,2.382812 z M 224.20312,30 v -1.601563 h 1.60157 V 30 q 0,0.882812 -0.3125,1.421875 -0.3125,0.546875 -0.99219,0.84375 l -0.39063,-0.601563 q 0.44532,-0.195312 0.65625,-0.578125 Q 224.97656,30.710937 225,30 Z m 8,-4.148438 q 0,-2.304687 1.28125,-3.414062 1.07032,-0.921875 2.60938,-0.921875 1.71094,0 2.79687,1.125 1.08594,1.117187 1.08594,3.09375 0,1.601562 -0.48437,2.523437 -0.47657,0.914063 -1.39844,1.421875 -0.91406,0.507813 -2,0.507813 -1.74219,0 -2.82031,-1.117188 -1.07032,-1.117187 -1.07032,-3.21875 z m 1.44532,0 q 0,1.59375 0.69531,2.390625 0.69531,0.789063 1.75,0.789063 1.04687,0 1.74219,-0.796875 0.69531,-0.796875 0.69531,-2.429688 0,-1.539062 -0.70313,-2.328125 -0.69531,-0.796875 -1.73437,-0.796875 -1.05469,0 -1.75,0.789063 -0.69531,0.789062 -0.69531,2.382812 z M 241.625,30 v -8.296875 h 1.26562 v 1.179687 q 0.91407,-1.367187 2.64063,-1.367187 0.75,0 1.375,0.273437 0.63281,0.265625 0.94531,0.703125 0.3125,0.4375 0.4375,1.039063 0.0781,0.390625 0.0781,1.367187 V 30 h -1.40625 v -5.046875 q 0,-0.859375 -0.16407,-1.28125 -0.16406,-0.429688 -0.58593,-0.679688 -0.41407,-0.257812 -0.97657,-0.257812 -0.89843,0 -1.55468,0.570312 -0.64844,0.570313 -0.64844,2.164063 V 30 Z m 14.57812,-2.671875 1.45313,0.179687 q -0.34375,1.273438 -1.27344,1.976563 -0.92969,0.703125 -2.375,0.703125 -1.82031,0 -2.89062,-1.117188 -1.0625,-1.125 -1.0625,-3.148437 0,-2.09375 1.07812,-3.25 1.07813,-1.15625 2.79688,-1.15625 1.66406,0 2.71875,1.132812 1.05468,1.132813 1.05468,3.1875 0,0.125 -0.008,0.375 h -6.1875 q 0.0781,1.367188 0.77344,2.09375 0.69531,0.726563 1.73437,0.726563 0.77344,0 1.32032,-0.40625 0.54687,-0.40625 0.86718,-1.296875 z m -4.61718,-2.273438 h 4.63281 q -0.0937,-1.046875 -0.53125,-1.570312 -0.67188,-0.8125 -1.74219,-0.8125 -0.96875,0 -1.63281,0.648437 -0.65625,0.648438 -0.72656,1.734375 z M 259.82031,30 v -1.601563 h 1.60156 V 30 Z"
     id="text1"
     style="font-size:16px;font-family:Arial"
     aria-label="One, two, one, two, one, two, one." />
</svg>
