<?xml version="1.0" encoding="UTF-8" standalone="no"?>
<svg
   width="800"
   height="100"
   version="1.1"
   id="svg2"
   xmlns="http://www.w3.org/2000/svg"
   xmlns:svg="http://www.w3.org/2000/svg">
  <defs
     id="defs2" />
  <rect
     width="100%"
     height="100%"
     fill="#FFF"
     id="rect1" />
  <path
     d="M 19.976562,30 24.375,18.546875 h 1.632812 L 30.695312,30 H 28.96875 L 27.632812,26.53125 H 22.84375 L 21.585937,30 Z m 3.304688,-4.703125 h 3.882812 L 25.96875,22.125 q -0.546875,-1.445313 -0.8125,-2.375 -0.21875,1.101562 -0.617188,2.1875 z M 31.695312,30 V 18.546875 h 1.40625 V 30 Z M 35.25,30 V 18.546875 h 1.40625 V 30 Z m 7.507812,-4.148438 q 0,-2.304687 1.28125,-3.414062 1.070313,-0.921875 2.609375,-0.921875 1.710938,0 2.796875,1.125 1.085938,1.117187 1.085938,3.09375 0,1.601562 -0.484375,2.523437 -0.476563,0.914063 -1.398438,1.421875 -0.914062,0.507813 -2,0.507813 -1.742187,0 -2.820312,-1.117188 -1.070313,-1.117187 -1.070313,-3.21875 z m 1.445313,0 q 0,1.59375 0.695312,2.390625 0.695313,0.789063 1.75,0.789063 1.046875,0 1.742188,-0.796875 0.695312,-0.796875 0.695312,-2.429688 0,-1.539062 -0.703125,-2.328125 -0.695312,-0.796875 -1.734375,-0.796875 -1.054687,0 -1.75,0.789063 -0.695312,0.789062 -0.695312,2.382812 z M 52.515625,30 v -7.203125 h -1.242188 v -1.09375 h 1.242188 v -0.882813 q 0,-0.835937 0.148437,-1.242187 0.203125,-0.546875 0.710938,-0.882813 0.515625,-0.34375 1.4375,-0.34375 0.59375,0 1.3125,0.140625 l -0.210938,1.226563 q -0.4375,-0.07813 -0.828125,-0.07813 -0.640625,0 -0.90625,0.273437 -0.265625,0.273438 -0.265625,1.023438 v 0.765625 h 1.617188 v 1.09375 H 53.914062 V 30 Z m 8.03125,-4.148438 q 0,-2.304687 1.28125,-3.414062 1.070312,-0.921875 2.609375,-0.921875 1.710937,0 2.796875,1.125 1.085937,1.117187 1.085937,3.09375 0,1.601562 -0.484375,2.523437 -0.476562,0.914063 -1.398437,1.421875 -0.914063,0.507813 -2,0.507813 -1.742188,0 -2.820313,-1.117188 -1.070312,-1.117187 -1.070312,-3.21875 z m 1.445312,0 q 0,1.59375 0.695313,2.390625 0.695312,0.789063 1.75,0.789063 1.046875,0 1.742187,-0.796875 Q 66.875,27.4375 66.875,25.804687 q 0,-1.539062 -0.703125,-2.328125 -0.695313,-0.796875 -1.734375,-0.796875 -1.054688,0 -1.75,0.789063 -0.695313,0.789062 -0.695313,2.382812 z M 75.40625,30 v -1.21875 q -0.96875,1.40625 -2.632813,1.40625 -0.734375,0 -1.375,-0.28125 Q 70.765625,29.625 70.453125,29.203125 70.148437,28.773437 70.023437,28.15625 69.9375,27.742187 69.9375,26.84375 v -5.140625 h 1.40625 v 4.601562 q 0,1.101563 0.08594,1.484375 0.132813,0.554688 0.5625,0.875 0.429688,0.3125 1.0625,0.3125 0.632813,0 1.1875,-0.320312 0.554688,-0.328125 0.78125,-0.882813 0.234375,-0.5625 0.234375,-1.625 v -4.445312 h 1.40625 V 30 Z m 3.445312,0 v -8.296875 h 1.265625 v 1.257812 q 0.484375,-0.882812 0.890625,-1.164062 0.414063,-0.28125 0.90625,-0.28125 0.710938,0 1.445313,0.453125 L 82.875,23.273437 q -0.515625,-0.304687 -1.03125,-0.304687 -0.460938,0 -0.828125,0.28125 -0.367188,0.273437 -0.523438,0.765625 -0.234375,0.75 -0.234375,1.640625 V 30 Z m 9.226563,-2.476563 1.390625,-0.21875 q 0.117187,0.835938 0.648437,1.28125 0.539063,0.445313 1.5,0.445313 0.96875,0 1.4375,-0.390625 0.46875,-0.398438 0.46875,-0.929688 0,-0.476562 -0.414062,-0.75 -0.289063,-0.1875 -1.4375,-0.476562 Q 90.125,26.09375 89.523437,25.8125 88.929687,25.523437 88.617187,25.023437 88.3125,24.515625 88.3125,23.90625 q 0,-0.554688 0.25,-1.023438 0.257812,-0.476562 0.695312,-0.789062 0.328125,-0.242188 0.890625,-0.40625 0.570313,-0.171875 1.21875,-0.171875 0.976563,0 1.710938,0.28125 0.742187,0.28125 1.09375,0.765625 0.351562,0.476562 0.484375,1.28125 l -1.375,0.1875 q -0.09375,-0.640625 -0.546875,-1 -0.445313,-0.359375 -1.265625,-0.359375 -0.96875,0 -1.382813,0.320312 -0.414062,0.320313 -0.414062,0.75 0,0.273438 0.171875,0.492188 0.171875,0.226562 0.539062,0.375 0.210938,0.07813 1.242188,0.359375 1.492187,0.398437 2.078125,0.65625 0.59375,0.25 0.929687,0.734375 0.335938,0.484375 0.335938,1.203125 0,0.703125 -0.414063,1.328125 -0.40625,0.617187 -1.179687,0.960937 -0.773438,0.335938 -1.75,0.335938 -1.617188,0 -2.46875,-0.671875 Q 88.3125,28.84375 88.078125,27.523437 Z M 96.640625,30 V 18.546875 h 1.40625 v 4.109375 q 0.984375,-1.140625 2.484375,-1.140625 0.92188,0 1.60156,0.367187 0.67969,0.359375 0.96875,1 0.29688,0.640625 0.29688,1.859375 V 30 h -1.40625 v -5.257813 q 0,-1.054687 -0.46094,-1.53125 -0.45312,-0.484375 -1.28906,-0.484375 -0.625003,0 -1.17969,0.328125 -0.546875,0.320313 -0.78125,0.875 -0.234375,0.554688 -0.234375,1.53125 V 30 Z m 8.375005,-4.148438 q 0,-2.304687 1.28125,-3.414062 1.07031,-0.921875 2.60937,-0.921875 1.71094,0 2.79688,1.125 1.08593,1.117187 1.08593,3.09375 0,1.601562 -0.48437,2.523437 -0.47656,0.914063 -1.39844,1.421875 -0.91406,0.507813 -2,0.507813 -1.74219,0 -2.82031,-1.117188 -1.07031,-1.117187 -1.07031,-3.21875 z m 1.44531,0 q 0,1.59375 0.69531,2.390625 0.69531,0.789063 1.75,0.789063 1.04688,0 1.74219,-0.796875 0.69531,-0.796875 0.69531,-2.429688 0,-1.539062 -0.70312,-2.328125 -0.69532,-0.796875 -1.73438,-0.796875 -1.05469,0 -1.75,0.789063 -0.69531,0.789062 -0.69531,2.382812 z m 7.97656,7.328125 V 21.703125 h 1.28125 v 1.078125 q 0.45313,-0.632813 1.02344,-0.945313 0.57031,-0.320312 1.38281,-0.320312 1.0625,0 1.875,0.546875 0.8125,0.546875 1.22656,1.546875 0.41407,0.992187 0.41407,2.179687 0,1.273438 -0.46094,2.296875 -0.45313,1.015625 -1.32813,1.5625 -0.86718,0.539063 -1.82812,0.539063 -0.70313,0 -1.26563,-0.296875 -0.55468,-0.296875 -0.91406,-0.75 v 4.039062 z m 1.27344,-7.28125 q 0,1.601563 0.64844,2.367188 0.64843,0.765625 1.57031,0.765625 0.9375,0 1.60156,-0.789063 0.67188,-0.796875 0.67188,-2.460937 0,-1.585938 -0.65625,-2.375 -0.64844,-0.789063 -1.55469,-0.789063 -0.89844,0 -1.59375,0.84375 -0.6875,0.835938 -0.6875,2.4375 z m 7.625,7.28125 V 21.703125 h 1.28125 v 1.078125 q 0.45312,-0.632813 1.02344,-0.945313 0.57031,-0.320312 1.38281,-0.320312 1.0625,0 1.875,0.546875 0.8125,0.546875 1.22656,1.546875 0.41406,0.992187 0.41406,2.179687 0,1.273438 -0.46094,2.296875 -0.45312,1.015625 -1.32812,1.5625 -0.86719,0.539063 -1.82812,0.539063 -0.70313,0 -1.26563,-0.296875 -0.55469,-0.296875 -0.91406,-0.75 v 4.039062 z m 1.27344,-7.28125 q 0,1.601563 0.64843,2.367188 0.64844,0.765625 1.57032,0.765625 0.9375,0 1.60156,-0.789063 0.67187,-0.796875 0.67187,-2.460937 0,-1.585938 -0.65625,-2.375 -0.64843,-0.789063 -1.55468,-0.789063 -0.89844,0 -1.59375,0.84375 -0.6875,0.835938 -0.6875,2.4375 z m 7.63281,-5.734375 v -1.617187 h 1.40625 v 1.617187 z m 0,9.835938 v -8.296875 h 1.40625 V 30 Z m 3.54687,0 v -8.296875 h 1.26563 v 1.179687 q 0.91406,-1.367187 2.64062,-1.367187 0.75,0 1.375,0.273437 0.63281,0.265625 0.94531,0.703125 0.3125,0.4375 0.4375,1.039063 0.0781,0.390625 0.0781,1.367187 V 30 H 141.125 v -5.046875 q 0,-0.859375 -0.16406,-1.28125 -0.16407,-0.429688 -0.58594,-0.679688 -0.41406,-0.257812 -0.97656,-0.257812 -0.89844,0 -1.55469,0.570312 -0.64844,0.570313 -0.64844,2.164063 V 30 Z m 8.64063,0.6875 1.36718,0.203125 q 0.0859,0.632812 0.47657,0.921875 0.52343,0.390625 1.42968,0.390625 0.97657,0 1.50782,-0.390625 0.53125,-0.390625 0.71875,-1.09375 0.10937,-0.429688 0.10156,-1.804688 Q 149.10937,30 147.73437,30 q -1.71093,0 -2.64843,-1.234375 -0.9375,-1.234375 -0.9375,-2.960938 0,-1.1875 0.42968,-2.1875 0.42969,-1.007812 1.24219,-1.554687 0.82031,-0.546875 1.92188,-0.546875 1.46875,0 2.42187,1.1875 v -1 h 1.29688 V 28.875 q 0,1.9375 -0.39844,2.742187 -0.39063,0.8125 -1.25,1.28125 -0.85156,0.46875 -2.10156,0.46875 -1.48438,0 -2.39844,-0.671875 -0.91406,-0.664062 -0.88281,-2.007812 z m 1.16406,-4.984375 q 0,1.632812 0.64844,2.382812 0.64843,0.75 1.625,0.75 0.96875,0 1.625,-0.742187 0.65625,-0.75 0.65625,-2.34375 0,-1.523438 -0.67969,-2.296875 -0.67188,-0.773438 -1.625,-0.773438 -0.9375,0 -1.59375,0.765625 -0.65625,0.757813 -0.65625,2.257813 z m 11.91406,0.148437 q 0,-2.304687 1.28125,-3.414062 1.07031,-0.921875 2.60938,-0.921875 1.71093,0 2.79687,1.125 1.08594,1.117187 1.08594,3.09375 0,1.601562 -0.48438,2.523437 -0.47656,0.914063 -1.39843,1.421875 -0.91407,0.507813 -2,0.507813 -1.74219,0 -2.82032,-1.117188 -1.07031,-1.117187 -1.07031,-3.21875 z m 1.44531,0 q 0,1.59375 0.69532,2.390625 0.69531,0.789063 1.75,0.789063 1.04687,0 1.74218,-0.796875 0.69532,-0.796875 0.69532,-2.429688 0,-1.539062 -0.70313,-2.328125 -0.69531,-0.796875 -1.73437,-0.796875 -1.05469,0 -1.75,0.789063 -0.69532,0.789062 -0.69532,2.382812 z m 7.97657,7.328125 V 21.703125 h 1.28125 v 1.078125 q 0.45312,-0.632813 1.02343,-0.945313 0.57032,-0.320312 1.38282,-0.320312 1.0625,0 1.875,0.546875 0.8125,0.546875 1.22656,1.546875 0.41406,0.992187 0.41406,2.179687 0,1.273438 -0.46094,2.296875 -0.45312,1.015625 -1.32812,1.5625 -0.86719,0.539063 -1.82813,0.539063 -0.70312,0 -1.26562,-0.296875 -0.55469,-0.296875 -0.91406,-0.75 v 4.039062 z m 1.27343,-7.28125 q 0,1.601563 0.64844,2.367188 0.64844,0.765625 1.57031,0.765625 0.9375,0 1.60157,-0.789063 0.67187,-0.796875 0.67187,-2.460937 0,-1.585938 -0.65625,-2.375 -0.64844,-0.789063 -1.55469,-0.789063 -0.89843,0 -1.59375,0.84375 -0.6875,0.835938 -0.6875,2.4375 z m 10.69532,2.84375 0.20312,1.242188 q -0.59375,0.125 -1.0625,0.125 -0.76562,0 -1.1875,-0.242188 -0.42187,-0.242187 -0.59375,-0.632812 -0.17187,-0.398438 -0.17187,-1.664063 v -4.773437 h -1.03125 v -1.09375 h 1.03125 v -2.054688 l 1.39843,-0.84375 v 2.898438 h 1.41407 v 1.09375 h -1.41407 v 4.851562 q 0,0.601563 0.0703,0.773438 0.0781,0.171875 0.24218,0.273437 0.17188,0.101563 0.48438,0.101563 0.23437,0 0.61719,-0.05469 z m 1.38281,-8.578125 v -1.617187 h 1.40625 v 1.617187 z m 0,9.835938 v -8.296875 h 1.40625 V 30 Z m 3.02344,-4.148438 q 0,-2.304687 1.28125,-3.414062 1.07031,-0.921875 2.60937,-0.921875 1.71094,0 2.79688,1.125 1.08593,1.117187 1.08593,3.09375 0,1.601562 -0.48437,2.523437 -0.47656,0.914063 -1.39844,1.421875 -0.91406,0.507813 -2,0.507813 -1.74219,0 -2.82031,-1.117188 -1.07031,-1.117187 -1.07031,-3.21875 z m 1.44531,0 q 0,1.59375 0.69531,2.390625 0.69531,0.789063 1.75,0.789063 1.04688,0 1.74219,-0.796875 0.69531,-0.796875 0.69531,-2.429688 0,-1.539062 -0.70312,-2.328125 -0.69532,-0.796875 -1.73438,-0.796875 -1.05469,0 -1.75,0.789063 Q 184.75,24.257812 184.75,25.851562 Z M 192.72656,30 v -8.296875 h 1.26563 v 1.179687 q 0.91406,-1.367187 2.64062,-1.367187 0.75,0 1.375,0.273437 0.63281,0.265625 0.94531,0.703125 0.3125,0.4375 0.4375,1.039063 0.0781,0.390625 0.0781,1.367187 V 30 h -1.40625 v -5.046875 q 0,-0.859375 -0.16406,-1.28125 -0.16407,-0.429688 -0.58594,-0.679688 -0.41406,-0.257812 -0.97656,-0.257812 -0.89844,0 -1.55469,0.570312 -0.64844,0.570313 -0.64844,2.164063 V 30 Z m 8.33594,-2.476563 1.39062,-0.21875 q 0.11719,0.835938 0.64844,1.28125 0.53906,0.445313 1.5,0.445313 0.96875,0 1.4375,-0.390625 0.46875,-0.398438 0.46875,-0.929688 0,-0.476562 -0.41406,-0.75 -0.28906,-0.1875 -1.4375,-0.476562 -1.54688,-0.390625 -2.14844,-0.671875 -0.59375,-0.289063 -0.90625,-0.789063 -0.30469,-0.507812 -0.30469,-1.117187 0,-0.554688 0.25,-1.023438 0.25782,-0.476562 0.69532,-0.789062 0.32812,-0.242188 0.89062,-0.40625 0.57031,-0.171875 1.21875,-0.171875 0.97656,0 1.71094,0.28125 0.74219,0.28125 1.09375,0.765625 0.35156,0.476562 0.48437,1.28125 l -1.375,0.1875 q -0.0937,-0.640625 -0.54687,-1 -0.44531,-0.359375 -1.26563,-0.359375 -0.96875,0 -1.38281,0.320312 -0.41406,0.320313 -0.41406,0.75 0,0.273438 0.17187,0.492188 0.17188,0.226562 0.53907,0.375 0.21093,0.07813 1.24218,0.359375 1.49219,0.398437 2.07813,0.65625 0.59375,0.25 0.92969,0.734375 0.33593,0.484375 0.33593,1.203125 0,0.703125 -0.41406,1.328125 -0.40625,0.617187 -1.17969,0.960937 -0.77343,0.335938 -1.75,0.335938 -1.61718,0 -2.46875,-0.671875 -0.84375,-0.671875 -1.07812,-1.992188 z M 214.07031,30 v -8.296875 h 1.25781 v 1.164062 q 0.39063,-0.609375 1.03907,-0.976562 0.64843,-0.375 1.47656,-0.375 0.92187,0 1.50781,0.382812 0.59375,0.382813 0.83594,1.070313 0.98437,-1.453125 2.5625,-1.453125 1.23437,0 1.89844,0.6875 0.66406,0.679687 0.66406,2.101562 V 30 h -1.39844 v -5.226563 q 0,-0.84375 -0.14062,-1.210937 -0.13282,-0.375 -0.49219,-0.601563 -0.35938,-0.226562 -0.84375,-0.226562 -0.875,0 -1.45313,0.585937 -0.57812,0.578125 -0.57812,1.859375 V 30 H 219 v -5.390625 q 0,-0.9375 -0.34375,-1.40625 -0.34375,-0.46875 -1.125,-0.46875 -0.59375,0 -1.10156,0.3125 -0.5,0.3125 -0.72657,0.914062 -0.22656,0.601563 -0.22656,1.734375 V 30 Z m 18.74219,-1.023438 q -0.78125,0.664063 -1.50781,0.9375 -0.71875,0.273438 -1.54688,0.273438 -1.36719,0 -2.10156,-0.664063 -0.73438,-0.671875 -0.73438,-1.710937 0,-0.609375 0.27344,-1.109375 0.28125,-0.507813 0.72656,-0.8125 0.45313,-0.304688 1.01563,-0.460938 0.41406,-0.109375 1.25,-0.210937 1.70312,-0.203125 2.50781,-0.484375 0.008,-0.289063 0.008,-0.367188 0,-0.859375 -0.39843,-1.210937 -0.53907,-0.476563 -1.60157,-0.476563 -0.99218,0 -1.46875,0.351563 -0.46875,0.34375 -0.69531,1.226562 l -1.375,-0.1875 q 0.1875,-0.882812 0.61719,-1.421875 0.42969,-0.546875 1.24219,-0.835937 0.8125,-0.296875 1.88281,-0.296875 1.0625,0 1.72656,0.25 0.66406,0.25 0.97656,0.632812 0.3125,0.375 0.4375,0.953125 0.0703,0.359375 0.0703,1.296875 v 1.875 q 0,1.960938 0.0859,2.484375 0.0937,0.515625 0.35938,0.992188 h -1.46875 Q 232.875,29.5625 232.8125,28.976562 Z m -0.11719,-3.140625 q -0.76562,0.3125 -2.29687,0.53125 -0.86719,0.125 -1.22657,0.28125 -0.35937,0.15625 -0.55468,0.460938 -0.19532,0.296875 -0.19532,0.664062 0,0.5625 0.42188,0.9375 0.42969,0.375 1.25,0.375 0.8125,0 1.44531,-0.351562 0.63281,-0.359375 0.92969,-0.976563 0.22656,-0.476562 0.22656,-1.40625 z m 3.53906,7.359375 -0.15625,-1.320312 q 0.46094,0.125 0.80469,0.125 0.46875,0 0.75,-0.15625 0.28125,-0.15625 0.46094,-0.4375 0.13281,-0.210938 0.42969,-1.046875 0.0391,-0.117188 0.125,-0.34375 L 235.5,21.703125 h 1.51562 l 1.72657,4.804687 q 0.33593,0.914063 0.60156,1.921875 0.24219,-0.96875 0.57812,-1.890625 l 1.77344,-4.835937 h 1.40625 l -3.15625,8.4375 q -0.50781,1.367187 -0.78906,1.882812 -0.375,0.695313 -0.85938,1.015625 -0.48437,0.328125 -1.15625,0.328125 -0.40625,0 -0.90625,-0.171875 z M 250.03906,30 h -1.30469 V 18.546875 h 1.40625 v 4.085937 q 0.89063,-1.117187 2.27344,-1.117187 0.76563,0 1.44531,0.3125 0.6875,0.304687 1.125,0.867187 0.44532,0.554688 0.69532,1.34375 0.25,0.789063 0.25,1.6875 0,2.132813 -1.05469,3.296875 -1.05469,1.164063 -2.53125,1.164063 -1.46875,0 -2.30469,-1.226563 z m -0.0156,-4.210938 q 0,1.492188 0.40625,2.15625 0.66406,1.085938 1.79687,1.085938 0.92188,0 1.59375,-0.796875 0.67188,-0.804688 0.67188,-2.390625 0,-1.625 -0.64844,-2.398438 -0.64063,-0.773437 -1.55469,-0.773437 -0.92187,0 -1.59375,0.804687 -0.67187,0.796875 -0.67187,2.3125 z m 13.29687,1.539063 1.45313,0.179687 q -0.34375,1.273438 -1.27344,1.976563 -0.92969,0.703125 -2.375,0.703125 -1.82031,0 -2.89063,-1.117188 -1.0625,-1.125 -1.0625,-3.148437 0,-2.09375 1.07813,-3.25 1.07812,-1.15625 2.79687,-1.15625 1.66407,0 2.71875,1.132812 1.05469,1.132813 1.05469,3.1875 0,0.125 -0.008,0.375 h -6.1875 q 0.0781,1.367188 0.77344,2.09375 0.69531,0.726563 1.73437,0.726563 0.77344,0 1.32031,-0.40625 0.54688,-0.40625 0.86719,-1.296875 z m -4.61719,-2.273438 h 4.63282 q -0.0937,-1.046875 -0.53125,-1.570312 -0.67188,-0.8125 -1.74219,-0.8125 -0.96875,0 -1.63281,0.648437 -0.65625,0.648438 -0.72657,1.734375 z m 12.28907,-4.890625 v -1.617187 h 1.40625 v 1.617187 z m 0,9.835938 v -8.296875 h 1.40625 V 30 Z m 3.54687,0 v -8.296875 h 1.25781 v 1.164062 q 0.39063,-0.609375 1.03907,-0.976562 0.64843,-0.375 1.47656,-0.375 0.92187,0 1.50781,0.382812 0.59375,0.382813 0.83594,1.070313 0.98437,-1.453125 2.5625,-1.453125 1.23437,0 1.89844,0.6875 0.66406,0.679687 0.66406,2.101562 V 30 h -1.39844 v -5.226563 q 0,-0.84375 -0.14062,-1.210937 -0.13282,-0.375 -0.49219,-0.601563 -0.35938,-0.226562 -0.84375,-0.226562 -0.875,0 -1.45313,0.585937 -0.57812,0.578125 -0.57812,1.859375 V 30 h -1.40625 v -5.390625 q 0,-0.9375 -0.34375,-1.40625 -0.34375,-0.46875 -1.125,-0.46875 -0.59375,0 -1.10156,0.3125 -0.5,0.3125 -0.72657,0.914062 -0.22656,0.601563 -0.22656,1.734375 V 30 Z m 13.32813,3.179687 V 21.703125 h 1.28125 v 1.078125 q 0.45312,-0.632813 1.02343,-0.945313 0.57032,-0.320312 1.38282,-0.320312 1.0625,0 1.875,0.546875 0.8125,0.546875 1.22656,1.546875 0.41406,0.992187 0.41406,2.179687 0,1.273438 -0.46094,2.296875 -0.45312,1.015625 -1.32812,1.5625 -0.86719,0.539063 -1.82813,0.539063 -0.70312,0 -1.26562,-0.296875 -0.55469,-0.296875 -0.91406,-0.75 v 4.039062 z m 1.27343,-7.28125 q 0,1.601563 0.64844,2.367188 0.64844,0.765625 1.57031,0.765625 0.9375,0 1.60157,-0.789063 0.67187,-0.796875 0.67187,-2.460937 0,-1.585938 -0.65625,-2.375 -0.64844,-0.789063 -1.55469,-0.789063 -0.89843,0 -1.59375,0.84375 -0.6875,0.835938 -0.6875,2.4375 z M 296.73437,30 V 18.546875 h 1.40625 V 30 Z M 306,27.328125 l 1.45312,0.179687 q -0.34375,1.273438 -1.27343,1.976563 -0.92969,0.703125 -2.375,0.703125 -1.82032,0 -2.89063,-1.117188 -1.0625,-1.125 -1.0625,-3.148437 0,-2.09375 1.07813,-3.25 1.07812,-1.15625 2.79687,-1.15625 1.66406,0 2.71875,1.132812 1.05469,1.132813 1.05469,3.1875 0,0.125 -0.008,0.375 h -6.1875 q 0.0781,1.367188 0.77343,2.09375 0.69532,0.726563 1.73438,0.726563 0.77344,0 1.32031,-0.40625 0.54688,-0.40625 0.86719,-1.296875 z m -4.61719,-2.273438 h 4.63281 q -0.0937,-1.046875 -0.53125,-1.570312 -0.67187,-0.8125 -1.74218,-0.8125 -0.96875,0 -1.63282,0.648437 -0.65625,0.648438 -0.72656,1.734375 z M 309.21875,30 v -8.296875 h 1.25781 v 1.164062 q 0.39063,-0.609375 1.03906,-0.976562 0.64844,-0.375 1.47657,-0.375 0.92187,0 1.50781,0.382812 0.59375,0.382813 0.83594,1.070313 0.98437,-1.453125 2.5625,-1.453125 1.23437,0 1.89843,0.6875 0.66407,0.679687 0.66407,2.101562 V 30 h -1.39844 v -5.226563 q 0,-0.84375 -0.14063,-1.210937 -0.13281,-0.375 -0.49218,-0.601563 -0.35938,-0.226562 -0.84375,-0.226562 -0.875,0 -1.45313,0.585937 -0.57812,0.578125 -0.57812,1.859375 V 30 h -1.40625 v -5.390625 q 0,-0.9375 -0.34375,-1.40625 -0.34375,-0.46875 -1.125,-0.46875 -0.59375,0 -1.10157,0.3125 -0.5,0.3125 -0.72656,0.914062 Q 310.625,24.5625 310.625,25.695312 V 30 Z m 19.00781,-2.671875 1.45313,0.179687 q -0.34375,1.273438 -1.27344,1.976563 -0.92969,0.703125 -2.375,0.703125 -1.82031,0 -2.89063,-1.117188 -1.0625,-1.125 -1.0625,-3.148437 0,-2.09375 1.07813,-3.25 1.07812,-1.15625 2.79687,-1.15625 1.66407,0 2.71875,1.132812 1.05469,1.132813 1.05469,3.1875 0,0.125 -0.008,0.375 h -6.1875 q 0.0781,1.367188 0.77344,2.09375 0.69531,0.726563 1.73437,0.726563 0.77344,0 1.32031,-0.40625 0.54688,-0.40625 0.86719,-1.296875 z m -4.61719,-2.273438 h 4.63282 q -0.0937,-1.046875 -0.53125,-1.570312 -0.67188,-0.8125 -1.74219,-0.8125 -0.96875,0 -1.63281,0.648437 -0.65625,0.648438 -0.72657,1.734375 z M 331.44531,30 v -8.296875 h 1.26563 v 1.179687 q 0.91406,-1.367187 2.64062,-1.367187 0.75,0 1.375,0.273437 0.63281,0.265625 0.94531,0.703125 0.3125,0.4375 0.4375,1.039063 0.0781,0.390625 0.0781,1.367187 V 30 h -1.40625 v -5.046875 q 0,-0.859375 -0.16406,-1.28125 -0.16407,-0.429688 -0.58594,-0.679688 -0.41406,-0.257812 -0.97656,-0.257812 -0.89844,0 -1.55469,0.570312 -0.64844,0.570313 -0.64844,2.164063 V 30 Z m 11.96875,-1.257813 0.20313,1.242188 q -0.59375,0.125 -1.0625,0.125 -0.76563,0 -1.1875,-0.242188 -0.42188,-0.242187 -0.59375,-0.632812 -0.17188,-0.398438 -0.17188,-1.664063 v -4.773437 h -1.03125 v -1.09375 h 1.03125 V 19.648437 L 342,18.804687 v 2.898438 h 1.41406 v 1.09375 H 342 v 4.851562 q 0,0.601563 0.0703,0.773438 0.0781,0.171875 0.24219,0.273437 0.17187,0.101563 0.48437,0.101563 0.23438,0 0.61719,-0.05469 z m 7.05469,-1.414062 1.45312,0.179687 q -0.34375,1.273438 -1.27343,1.976563 -0.92969,0.703125 -2.375,0.703125 -1.82032,0 -2.89063,-1.117188 -1.0625,-1.125 -1.0625,-3.148437 0,-2.09375 1.07813,-3.25 1.07812,-1.15625 2.79687,-1.15625 1.66406,0 2.71875,1.132812 1.05469,1.132813 1.05469,3.1875 0,0.125 -0.008,0.375 h -6.1875 q 0.0781,1.367188 0.77343,2.09375 0.69532,0.726563 1.73438,0.726563 0.77344,0 1.32031,-0.40625 0.54688,-0.40625 0.86719,-1.296875 z m -4.61719,-2.273438 h 4.63281 q -0.0937,-1.046875 -0.53125,-1.570312 -0.67187,-0.8125 -1.74218,-0.8125 -0.96875,0 -1.63282,0.648437 -0.65625,0.648438 -0.72656,1.734375 z M 359.07031,30 V 28.953125 Q 358.28125,30.1875 356.75,30.1875 q -0.99219,0 -1.82813,-0.546875 -0.82812,-0.546875 -1.28906,-1.523438 -0.45312,-0.984375 -0.45312,-2.257812 0,-1.242188 0.41406,-2.25 0.41406,-1.015625 1.24219,-1.554688 0.82812,-0.539062 1.85156,-0.539062 0.75,0 1.33594,0.320312 0.58593,0.3125 0.95312,0.820313 V 18.546875 H 360.375 V 30 Z M 354.625,25.859375 q 0,1.59375 0.67187,2.382812 0.67188,0.789063 1.58594,0.789063 0.92188,0 1.5625,-0.75 0.64844,-0.757813 0.64844,-2.304688 0,-1.703125 -0.65625,-2.5 -0.65625,-0.796875 -1.61719,-0.796875 -0.9375,0 -1.57031,0.765625 -0.625,0.765625 -0.625,2.414063 z m 11.88281,-0.0078 q 0,-2.304687 1.28125,-3.414062 1.07031,-0.921875 2.60938,-0.921875 1.71093,0 2.79687,1.125 1.08594,1.117187 1.08594,3.09375 0,1.601562 -0.48438,2.523437 -0.47656,0.914063 -1.39843,1.421875 -0.91407,0.507813 -2,0.507813 -1.74219,0 -2.82032,-1.117188 -1.07031,-1.117187 -1.07031,-3.21875 z m 1.44531,0 q 0,1.59375 0.69532,2.390625 0.69531,0.789063 1.75,0.789063 1.04687,0 1.74218,-0.796875 0.69532,-0.796875 0.69532,-2.429688 0,-1.539062 -0.70313,-2.328125 -0.69531,-0.796875 -1.73437,-0.796875 -1.05469,0 -1.75,0.789063 -0.69532,0.789062 -0.69532,2.382812 z M 375.92969,30 v -8.296875 h 1.26562 v 1.179687 q 0.91406,-1.367187 2.64063,-1.367187 0.75,0 1.375,0.273437 0.63281,0.265625 0.94531,0.703125 0.3125,0.4375 0.4375,1.039063 0.0781,0.390625 0.0781,1.367187 V 30 h -1.40625 v -5.046875 q 0,-0.859375 -0.16406,-1.28125 -0.16406,-0.429688 -0.58594,-0.679688 -0.41406,-0.257812 -0.97656,-0.257812 -0.89844,0 -1.55469,0.570312 -0.64843,0.570313 -0.64843,2.164063 V 30 Z m 16.41406,-1.257813 0.20312,1.242188 q -0.59375,0.125 -1.0625,0.125 -0.76562,0 -1.1875,-0.242188 -0.42187,-0.242187 -0.59375,-0.632812 -0.17187,-0.398438 -0.17187,-1.664063 V 22.796875 H 388.5 v -1.09375 h 1.03125 v -2.054688 l 1.39844,-0.84375 v 2.898438 h 1.41406 v 1.09375 h -1.41406 v 4.851562 q 0,0.601563 0.0703,0.773438 0.0781,0.171875 0.24219,0.273437 0.17187,0.101563 0.48437,0.101563 0.23438,0 0.61719,-0.05469 z M 393.71875,30 V 18.546875 h 1.40625 v 4.109375 q 0.98437,-1.140625 2.48437,-1.140625 0.92188,0 1.60157,0.367187 0.67968,0.359375 0.96875,1 0.29687,0.640625 0.29687,1.859375 V 30 h -1.40625 v -5.257813 q 0,-1.054687 -0.46094,-1.53125 -0.45312,-0.484375 -1.28906,-0.484375 -0.625,0 -1.17969,0.328125 -0.54687,0.320313 -0.78125,0.875 -0.23437,0.554688 -0.23437,1.53125 V 30 Z m 14.57812,-2.671875 1.45313,0.179687 q -0.34375,1.273438 -1.27344,1.976563 -0.92969,0.703125 -2.375,0.703125 -1.82031,0 -2.89062,-1.117188 -1.0625,-1.125 -1.0625,-3.148437 0,-2.09375 1.07812,-3.25 1.07813,-1.15625 2.79688,-1.15625 1.66406,0 2.71875,1.132812 1.05468,1.132813 1.05468,3.1875 0,0.125 -0.008,0.375 h -6.1875 q 0.0781,1.367188 0.77344,2.09375 0.69531,0.726563 1.73437,0.726563 0.77344,0 1.32032,-0.40625 0.54687,-0.40625 0.86718,-1.296875 z m -4.61718,-2.273438 h 4.63281 q -0.0937,-1.046875 -0.53125,-1.570312 -0.67188,-0.8125 -1.74219,-0.8125 -0.96875,0 -1.63281,0.648437 -0.65625,0.648438 -0.72656,1.734375 z m 17.69531,1.90625 1.38281,0.179688 q -0.22656,1.429687 -1.16406,2.242187 -0.92969,0.804688 -2.28906,0.804688 -1.70313,0 -2.74219,-1.109375 -1.03125,-1.117188 -1.03125,-3.195313 0,-1.34375 0.44531,-2.351562 0.44531,-1.007813 1.35156,-1.507813 0.91407,-0.507812 1.98438,-0.507812 1.35156,0 2.21094,0.6875 0.85937,0.679687 1.10156,1.9375 l -1.36719,0.210937 q -0.19531,-0.835937 -0.69531,-1.257812 -0.49219,-0.421875 -1.19531,-0.421875 -1.0625,0 -1.72657,0.765625 -0.66406,0.757812 -0.66406,2.40625 0,1.671875 0.64063,2.429687 0.64062,0.757813 1.67187,0.757813 0.82813,0 1.38281,-0.507813 0.55469,-0.507812 0.70313,-1.5625 z m 2.0625,-1.109375 q 0,-2.304687 1.28125,-3.414062 1.07031,-0.921875 2.60937,-0.921875 1.71094,0 2.79688,1.125 1.08594,1.117187 1.08594,3.09375 0,1.601562 -0.48438,2.523437 -0.47656,0.914063 -1.39844,1.421875 -0.91406,0.507813 -2,0.507813 -1.74218,0 -2.82031,-1.117188 -1.07031,-1.117187 -1.07031,-3.21875 z m 1.44531,0 q 0,1.59375 0.69531,2.390625 0.69532,0.789063 1.75,0.789063 1.04688,0 1.74219,-0.796875 0.69531,-0.796875 0.69531,-2.429688 0,-1.539062 -0.70312,-2.328125 -0.69531,-0.796875 -1.73438,-0.796875 -1.05468,0 -1.75,0.789063 -0.69531,0.789062 -0.69531,2.382812 z M 438.29687,30 v -1.21875 q -0.96875,1.40625 -2.63281,1.40625 -0.73437,0 -1.375,-0.28125 -0.63281,-0.28125 -0.94531,-0.703125 -0.30469,-0.429688 -0.42969,-1.046875 -0.0859,-0.414063 -0.0859,-1.3125 v -5.140625 h 1.40625 v 4.601562 q 0,1.101563 0.0859,1.484375 0.13281,0.554688 0.5625,0.875 0.42969,0.3125 1.0625,0.3125 0.63281,0 1.1875,-0.320312 0.55469,-0.328125 0.78125,-0.882813 0.23438,-0.5625 0.23438,-1.625 v -4.445312 h 1.40625 V 30 Z m 3.46094,0 v -8.296875 h 1.26563 v 1.179687 q 0.91406,-1.367187 2.64062,-1.367187 0.75,0 1.375,0.273437 0.63281,0.265625 0.94531,0.703125 0.3125,0.4375 0.4375,1.039063 0.0781,0.390625 0.0781,1.367187 V 30 h -1.40625 v -5.046875 q 0,-0.859375 -0.16406,-1.28125 -0.16407,-0.429688 -0.58594,-0.679688 -0.41406,-0.257812 -0.97656,-0.257812 -0.89844,0 -1.55469,0.570312 -0.64844,0.570313 -0.64844,2.164063 V 30 Z m 11.96875,-1.257813 0.20313,1.242188 q -0.59375,0.125 -1.0625,0.125 -0.76563,0 -1.1875,-0.242188 -0.42188,-0.242187 -0.59375,-0.632812 -0.17188,-0.398438 -0.17188,-1.664063 v -4.773437 h -1.03125 v -1.09375 h 1.03125 v -2.054688 l 1.39844,-0.84375 v 2.898438 h 1.41406 v 1.09375 h -1.41406 v 4.851562 q 0,0.601563 0.0703,0.773438 0.0781,0.171875 0.24219,0.273437 0.17187,0.101563 0.48437,0.101563 0.23438,0 0.61719,-0.05469 z m 1.3125,4.453125 L 454.88281,31.875 Q 455.34375,32 455.6875,32 q 0.46875,0 0.75,-0.15625 0.28125,-0.15625 0.46094,-0.4375 0.13281,-0.210938 0.42968,-1.046875 0.0391,-0.117188 0.125,-0.34375 l -3.14843,-8.3125 h 1.51562 l 1.72656,4.804687 q 0.33594,0.914063 0.60157,1.921875 0.24218,-0.96875 0.57812,-1.890625 L 460.5,21.703125 h 1.40625 l -3.15625,8.4375 q -0.50781,1.367187 -0.78906,1.882812 -0.375,0.695313 -0.85938,1.015625 -0.48437,0.328125 -1.15625,0.328125 -0.40625,0 -0.90625,-0.171875 z M 462.28125,30 v -1.601563 h 1.60156 V 30 q 0,0.882812 -0.3125,1.421875 -0.3125,0.546875 -0.99219,0.84375 l -0.39062,-0.601563 q 0.44531,-0.195312 0.65625,-0.578125 0.21094,-0.375 0.23437,-1.085937 z m 8,-4.148438 q 0,-2.304687 1.28125,-3.414062 1.07031,-0.921875 2.60937,-0.921875 1.71094,0 2.79688,1.125 1.08594,1.117187 1.08594,3.09375 0,1.601562 -0.48438,2.523437 -0.47656,0.914063 -1.39844,1.421875 -0.91406,0.507813 -2,0.507813 -1.74218,0 -2.82031,-1.117188 -1.07031,-1.117187 -1.07031,-3.21875 z m 1.44531,0 q 0,1.59375 0.69531,2.390625 0.69532,0.789063 1.75,0.789063 1.04688,0 1.74219,-0.796875 0.69531,-0.796875 0.69531,-2.429688 0,-1.539062 -0.70312,-2.328125 -0.69531,-0.796875 -1.73438,-0.796875 -1.05468,0 -1.75,0.789063 -0.69531,0.789062 -0.69531,2.382812 z M 479.6875,30 v -8.296875 h 1.26562 v 1.257812 q 0.48438,-0.882812 0.89063,-1.164062 0.41406,-0.28125 0.90625,-0.28125 0.71094,0 1.44531,0.453125 l -0.48437,1.304687 q -0.51563,-0.304687 -1.03125,-0.304687 -0.46094,0 -0.82813,0.28125 -0.36719,0.273437 -0.52344,0.765625 -0.23437,0.75 -0.23437,1.640625 V 30 Z m 9.79687,-9.835938 v -1.617187 h 1.40625 v 1.617187 z m 0,9.835938 v -8.296875 h 1.40625 V 30 Z m 3.54688,0 v -8.296875 h 1.26562 v 1.179687 q 0.91407,-1.367187 2.64063,-1.367187 0.75,0 1.375,0.273437 0.63281,0.265625 0.94531,0.703125 0.3125,0.4375 0.4375,1.039063 0.0781,0.390625 0.0781,1.367187 V 30 h -1.40625 v -5.046875 q 0,-0.859375 -0.16407,-1.28125 -0.16406,-0.429688 -0.58593,-0.679688 -0.41407,-0.257812 -0.97657,-0.257812 -0.89843,0 -1.55468,0.570312 Q 494.4375,23.875 494.4375,25.46875 V 30 Z m 16.41406,-1.257813 0.20313,1.242188 q -0.59375,0.125 -1.0625,0.125 -0.76563,0 -1.1875,-0.242188 -0.42188,-0.242187 -0.59375,-0.632812 -0.17188,-0.398438 -0.17188,-1.664063 v -4.773437 h -1.03125 v -1.09375 h 1.03125 v -2.054688 l 1.39844,-0.84375 v 2.898438 h 1.41406 v 1.09375 h -1.41406 v 4.851562 q 0,0.601563 0.0703,0.773438 0.0781,0.171875 0.24219,0.273437 0.17187,0.101563 0.48437,0.101563 0.23438,0 0.61719,-0.05469 z M 510.82031,30 V 18.546875 h 1.40625 v 4.109375 q 0.98438,-1.140625 2.48438,-1.140625 0.92187,0 1.60156,0.367187 0.67969,0.359375 0.96875,1 0.29687,0.640625 0.29687,1.859375 V 30 h -1.40625 v -5.257813 q 0,-1.054687 -0.46093,-1.53125 -0.45313,-0.484375 -1.28907,-0.484375 -0.625,0 -1.17968,0.328125 -0.54688,0.320313 -0.78125,0.875 -0.23438,0.554688 -0.23438,1.53125 V 30 Z m 14.57813,-2.671875 1.45312,0.179687 q -0.34375,1.273438 -1.27344,1.976563 -0.92968,0.703125 -2.375,0.703125 -1.82031,0 -2.89062,-1.117188 -1.0625,-1.125 -1.0625,-3.148437 0,-2.09375 1.07812,-3.25 1.07813,-1.15625 2.79688,-1.15625 1.66406,0 2.71875,1.132812 1.05469,1.132813 1.05469,3.1875 0,0.125 -0.008,0.375 h -6.1875 q 0.0781,1.367188 0.77344,2.09375 0.69531,0.726563 1.73438,0.726563 0.77343,0 1.32031,-0.40625 0.54687,-0.40625 0.86719,-1.296875 z m -4.61719,-2.273438 h 4.63281 q -0.0937,-1.046875 -0.53125,-1.570312 -0.67187,-0.8125 -1.74219,-0.8125 -0.96875,0 -1.63281,0.648437 -0.65625,0.648438 -0.72656,1.734375 z"
     id="text1"
     style="font-size:16px;font-family:Arial"
     aria-label="All of our shopping options may be implemented on the county, or in the" />
  <path
     d="m 26.46875,52.976562 q -0.78125,0.664063 -1.507813,0.9375 -0.71875,0.273438 -1.546875,0.273438 -1.367187,0 -2.101562,-0.664063 -0.734375,-0.671875 -0.734375,-1.710937 0,-0.609375 0.273437,-1.109375 0.28125,-0.507813 0.726563,-0.8125 0.453125,-0.304688 1.015625,-0.460938 0.414062,-0.109375 1.25,-0.210937 1.703125,-0.203125 2.507812,-0.484375 0.0078,-0.289063 0.0078,-0.367188 0,-0.859375 -0.398438,-1.210937 -0.539062,-0.476563 -1.601562,-0.476563 -0.992188,0 -1.46875,0.351563 -0.46875,0.34375 -0.695313,1.226562 l -1.375,-0.1875 q 0.1875,-0.882812 0.617188,-1.421875 0.429687,-0.546875 1.242187,-0.835937 0.8125,-0.296875 1.882813,-0.296875 1.0625,0 1.726562,0.25 0.664063,0.25 0.976563,0.632812 0.3125,0.375 0.4375,0.953125 0.07031,0.359375 0.07031,1.296875 v 1.875 q 0,1.960938 0.08594,2.484375 Q 27.953125,53.523437 28.21875,54 H 26.75 q -0.21875,-0.4375 -0.28125,-1.023438 z m -0.117188,-3.140625 q -0.765625,0.3125 -2.296875,0.53125 -0.867187,0.125 -1.226562,0.28125 -0.359375,0.15625 -0.554688,0.460938 -0.195312,0.296875 -0.195312,0.664062 0,0.5625 0.421875,0.9375 0.429687,0.375 1.25,0.375 0.8125,0 1.445312,-0.351562 Q 25.828125,52.375 26.125,51.757812 26.351562,51.28125 26.351562,50.351562 Z M 30.289062,54 v -7.203125 h -1.242187 v -1.09375 h 1.242187 v -0.882813 q 0,-0.835937 0.148438,-1.242187 0.203125,-0.546875 0.710937,-0.882813 0.515625,-0.34375 1.4375,-0.34375 0.59375,0 1.3125,0.140625 L 33.6875,43.71875 q -0.4375,-0.07813 -0.828125,-0.07813 -0.640625,0 -0.90625,0.273437 Q 31.6875,44.1875 31.6875,44.9375 v 0.765625 h 1.617187 v 1.09375 H 31.6875 V 54 Z m 7.179688,-1.257813 0.203125,1.242188 q -0.59375,0.125 -1.0625,0.125 -0.765625,0 -1.1875,-0.242188 Q 35,53.625 34.828125,53.234375 34.65625,52.835937 34.65625,51.570312 V 46.796875 H 33.625 v -1.09375 h 1.03125 v -2.054688 l 1.398437,-0.84375 v 2.898438 h 1.414063 v 1.09375 h -1.414063 v 4.851562 q 0,0.601563 0.07031,0.773438 0.07813,0.171875 0.242187,0.273437 0.171875,0.101563 0.484375,0.101563 0.234375,0 0.617188,-0.05469 z m 7.054687,-1.414062 1.453125,0.179687 q -0.34375,1.273438 -1.273437,1.976563 -0.929688,0.703125 -2.375,0.703125 -1.820313,0 -2.890625,-1.117188 -1.0625,-1.125 -1.0625,-3.148437 0,-2.09375 1.078125,-3.25 1.078125,-1.15625 2.796875,-1.15625 1.664062,0 2.71875,1.132812 1.054687,1.132813 1.054687,3.1875 0,0.125 -0.0078,0.375 h -6.1875 q 0.07813,1.367188 0.773437,2.09375 0.695313,0.726563 1.734375,0.726563 0.773438,0 1.320313,-0.40625 0.546875,-0.40625 0.867187,-1.296875 z M 39.90625,49.054687 h 4.632812 q -0.09375,-1.046875 -0.53125,-1.570312 -0.671875,-0.8125 -1.742187,-0.8125 -0.96875,0 -1.632813,0.648437 -0.65625,0.648438 -0.726562,1.734375 z M 47.726562,54 v -8.296875 h 1.265625 v 1.257812 q 0.484375,-0.882812 0.890625,-1.164062 0.414063,-0.28125 0.90625,-0.28125 0.710938,0 1.445313,0.453125 L 51.75,47.273437 q -0.515625,-0.304687 -1.03125,-0.304687 -0.460938,0 -0.828125,0.28125 -0.367188,0.273437 -0.523438,0.765625 -0.234375,0.75 -0.234375,1.640625 V 54 Z m 5.34375,0 v -8.296875 h 1.265625 v 1.179687 q 0.914063,-1.367187 2.640625,-1.367187 0.75,0 1.375,0.273437 0.632813,0.265625 0.945313,0.703125 0.3125,0.4375 0.4375,1.039063 0.07813,0.390625 0.07813,1.367187 V 54 h -1.40625 v -5.046875 q 0,-0.859375 -0.164063,-1.28125 -0.164062,-0.429688 -0.585937,-0.679688 -0.414063,-0.257812 -0.976563,-0.257812 -0.898437,0 -1.554687,0.570312 Q 54.476562,47.875 54.476562,49.46875 V 54 Z m 8.375,-4.148438 q 0,-2.304687 1.28125,-3.414062 1.070313,-0.921875 2.609375,-0.921875 1.710938,0 2.796875,1.125 1.085938,1.117187 1.085938,3.09375 0,1.601562 -0.484375,2.523437 -0.476563,0.914063 -1.398438,1.421875 -0.914062,0.507813 -2,0.507813 -1.742187,0 -2.820312,-1.117188 -1.070313,-1.117187 -1.070313,-3.21875 z m 1.445313,0 q 0,1.59375 0.695312,2.390625 0.695313,0.789063 1.75,0.789063 1.046875,0 1.742188,-0.796875 0.695312,-0.796875 0.695312,-2.429688 0,-1.539062 -0.703125,-2.328125 -0.695312,-0.796875 -1.734375,-0.796875 -1.054687,0 -1.75,0.789063 -0.695312,0.789062 -0.695312,2.382812 z m 7.453125,0 q 0,-2.304687 1.28125,-3.414062 1.070312,-0.921875 2.609375,-0.921875 1.710937,0 2.796875,1.125 1.085937,1.117187 1.085937,3.09375 0,1.601562 -0.484375,2.523437 -0.476562,0.914063 -1.398437,1.421875 -0.914063,0.507813 -2,0.507813 -1.742188,0 -2.820313,-1.117188 -1.070312,-1.117187 -1.070312,-3.21875 z m 1.445312,0 q 0,1.59375 0.695313,2.390625 0.695312,0.789063 1.75,0.789063 1.046875,0 1.742187,-0.796875 0.695313,-0.796875 0.695313,-2.429688 0,-1.539062 -0.703125,-2.328125 -0.695313,-0.796875 -1.734375,-0.796875 -1.054688,0 -1.75,0.789063 -0.695313,0.789062 -0.695313,2.382812 z M 79.765625,54 v -8.296875 h 1.265625 v 1.179687 q 0.914062,-1.367187 2.640625,-1.367187 0.75,0 1.375,0.273437 0.632812,0.265625 0.945312,0.703125 0.3125,0.4375 0.4375,1.039063 0.07813,0.390625 0.07813,1.367187 V 54 h -1.40625 v -5.046875 q 0,-0.859375 -0.164062,-1.28125 Q 84.773437,47.242187 84.351562,46.992187 83.9375,46.734375 83.375,46.734375 q -0.898438,0 -1.554688,0.570312 Q 81.171875,47.875 81.171875,49.46875 V 54 Z m 12.78125,-2.476563 1.390625,-0.21875 q 0.117187,0.835938 0.648437,1.28125 0.539063,0.445313 1.5,0.445313 0.96875,0 1.4375,-0.390625 0.46875,-0.398438 0.46875,-0.929688 0,-0.476562 -0.414062,-0.75 -0.289063,-0.1875 -1.4375,-0.476562 Q 94.59375,50.09375 93.992187,49.8125 93.398437,49.523437 93.085937,49.023437 92.78125,48.515625 92.78125,47.90625 q 0,-0.554688 0.25,-1.023438 0.257812,-0.476562 0.695312,-0.789062 0.328125,-0.242188 0.890625,-0.40625 0.570313,-0.171875 1.21875,-0.171875 0.976563,0 1.710938,0.28125 0.742187,0.28125 1.09375,0.765625 0.351562,0.476562 0.484375,1.28125 l -1.375,0.1875 q -0.09375,-0.640625 -0.546875,-1 -0.445313,-0.359375 -1.265625,-0.359375 -0.96875,0 -1.382813,0.320312 -0.414062,0.320313 -0.414062,0.75 0,0.273438 0.171875,0.492188 0.171875,0.226562 0.539062,0.375 0.210938,0.07813 1.242188,0.359375 1.492187,0.398437 2.078125,0.65625 0.59375,0.25 0.929687,0.734375 0.335938,0.484375 0.335938,1.203125 0,0.703125 -0.414063,1.328125 -0.40625,0.617187 -1.179687,0.960937 -0.773438,0.335938 -1.75,0.335938 -1.617188,0 -2.46875,-0.671875 -0.84375,-0.671875 -1.078125,-1.992188 z M 101.10938,54 V 42.546875 h 1.40625 V 46.65625 Q 103.5,45.515625 105,45.515625 q 0.92188,0 1.60156,0.367187 0.67969,0.359375 0.96875,1 0.29688,0.640625 0.29688,1.859375 V 54 h -1.40625 v -5.257813 q 0,-1.054687 -0.46094,-1.53125 -0.45312,-0.484375 -1.28906,-0.484375 -0.625,0 -1.17969,0.328125 -0.54687,0.320313 -0.78125,0.875 -0.23437,0.554688 -0.23437,1.53125 V 54 Z m 8.375,-4.148438 q 0,-2.304687 1.28125,-3.414062 1.07031,-0.921875 2.60937,-0.921875 1.71094,0 2.79688,1.125 1.08593,1.117187 1.08593,3.09375 0,1.601562 -0.48437,2.523437 -0.47656,0.914063 -1.39844,1.421875 -0.91406,0.507813 -2,0.507813 -1.74219,0 -2.82031,-1.117188 -1.07031,-1.117187 -1.07031,-3.21875 z m 1.44531,0 q 0,1.59375 0.69531,2.390625 0.69531,0.789063 1.75,0.789063 1.04688,0 1.74219,-0.796875 0.69531,-0.796875 0.69531,-2.429688 0,-1.539062 -0.70312,-2.328125 -0.69532,-0.796875 -1.73438,-0.796875 -1.05469,0 -1.75,0.789063 -0.69531,0.789062 -0.69531,2.382812 z m 7.97656,7.328125 V 45.703125 h 1.28125 v 1.078125 q 0.45313,-0.632813 1.02344,-0.945313 0.57031,-0.320312 1.38281,-0.320312 1.0625,0 1.875,0.546875 0.8125,0.546875 1.22656,1.546875 0.41407,0.992187 0.41407,2.179687 0,1.273438 -0.46094,2.296875 -0.45313,1.015625 -1.32813,1.5625 -0.86718,0.539063 -1.82812,0.539063 -0.70313,0 -1.26563,-0.296875 -0.55468,-0.296875 -0.91406,-0.75 v 4.039062 z m 1.27344,-7.28125 q 0,1.601563 0.64844,2.367188 0.64843,0.765625 1.57031,0.765625 0.9375,0 1.60156,-0.789063 0.67188,-0.796875 0.67188,-2.460937 0,-1.585938 -0.65625,-2.375 -0.64844,-0.789063 -1.55469,-0.789063 -0.89844,0 -1.59375,0.84375 -0.6875,0.835938 -0.6875,2.4375 z m 7.625,7.28125 V 45.703125 h 1.28125 v 1.078125 q 0.45312,-0.632813 1.02343,-0.945313 0.57032,-0.320312 1.38282,-0.320312 1.0625,0 1.875,0.546875 0.8125,0.546875 1.22656,1.546875 0.41406,0.992187 0.41406,2.179687 0,1.273438 -0.46094,2.296875 -0.45312,1.015625 -1.32812,1.5625 -0.86719,0.539063 -1.82813,0.539063 -0.70312,0 -1.26562,-0.296875 -0.55469,-0.296875 -0.91406,-0.75 v 4.039062 z m 1.27343,-7.28125 q 0,1.601563 0.64844,2.367188 0.64844,0.765625 1.57031,0.765625 0.9375,0 1.60157,-0.789063 0.67187,-0.796875 0.67187,-2.460937 0,-1.585938 -0.65625,-2.375 -0.64844,-0.789063 -1.55469,-0.789063 -0.89843,0 -1.59375,0.84375 -0.6875,0.835938 -0.6875,2.4375 z m 7.63282,-5.734375 v -1.617187 h 1.40625 v 1.617187 z m 0,9.835938 v -8.296875 h 1.40625 V 54 Z m 3.54687,0 v -8.296875 h 1.26563 v 1.179687 q 0.91406,-1.367187 2.64062,-1.367187 0.75,0 1.375,0.273437 0.63281,0.265625 0.94531,0.703125 0.3125,0.4375 0.4375,1.039063 Q 147,47.921875 147,48.898437 V 54 h -1.40625 v -5.046875 q 0,-0.859375 -0.16406,-1.28125 -0.16407,-0.429688 -0.58594,-0.679688 -0.41406,-0.257812 -0.97656,-0.257812 -0.89844,0 -1.55469,0.570312 -0.64844,0.570313 -0.64844,2.164063 V 54 Z m 8.64063,0.6875 1.36718,0.203125 q 0.0859,0.632812 0.47657,0.921875 0.52343,0.390625 1.42968,0.390625 0.97657,0 1.50782,-0.390625 0.53125,-0.390625 0.71875,-1.09375 Q 154.50781,54.289062 154.5,52.914062 153.57812,54 152.20312,54 q -1.71093,0 -2.64843,-1.234375 -0.9375,-1.234375 -0.9375,-2.960938 0,-1.1875 0.42968,-2.1875 0.42969,-1.007812 1.24219,-1.554687 0.82031,-0.546875 1.92188,-0.546875 1.46875,0 2.42187,1.1875 v -1 h 1.29688 V 52.875 q 0,1.9375 -0.39844,2.742187 -0.39063,0.8125 -1.25,1.28125 -0.85156,0.46875 -2.10156,0.46875 -1.48438,0 -2.39844,-0.671875 -0.91406,-0.664062 -0.88281,-2.007812 z m 1.16406,-4.984375 q 0,1.632812 0.64844,2.382812 0.64843,0.75 1.625,0.75 0.96875,0 1.625,-0.742187 0.65625,-0.75 0.65625,-2.34375 0,-1.523438 -0.67969,-2.296875 -0.67188,-0.773438 -1.625,-0.773438 -0.9375,0 -1.59375,0.765625 -0.65625,0.757813 -0.65625,2.257813 z M 166.375,48.625 q 0,2.054687 -0.77344,3.554687 -0.76562,1.5 -2.39062,2.796875 L 162.3125,54.0625 q 1.51562,-1.070313 2.17969,-2.289063 0.66406,-1.226562 0.66406,-3.164062 v -7.585938 h 1.21875 z m 5.84375,5.484375 h -6.5 V 52.945312 H 168.25 v -4.546875 h -1.52344 V 47.234375 H 168.25 v -4.0625 h -1.63281 V 42 h 5.16406 v 1.171875 h -2.32031 v 4.0625 h 1.71875 v 1.164062 h -1.71875 v 4.546875 h 2.75781 z m -8.5,-1.96875 -5.16406,2 -0.75782,-1.023438 q 1.41407,-0.429687 2.46875,-0.84375 v -4.164062 h -1.79687 v -1.164063 h 1.79687 V 43.21875 h -2.17968 v -1.171875 h 5.32812 v 1.171875 h -1.9375 v 3.726562 h 1.47656 v 1.164063 h -1.47656 v 3.648437 l 2.24219,-0.828125 z m 0.625,-2.554688 h -1.1875 v -5.359375 h 1.1875 z m 17.22656,3.15625 0.20313,1.242188 q -0.59375,0.125 -1.0625,0.125 -0.76563,0 -1.1875,-0.242188 -0.42188,-0.242187 -0.59375,-0.632812 -0.17188,-0.398438 -0.17188,-1.664063 v -4.773437 h -1.03125 v -1.09375 h 1.03125 v -2.054688 l 1.39844,-0.84375 v 2.898438 h 1.41406 v 1.09375 h -1.41406 v 4.851562 q 0,0.601563 0.0703,0.773438 0.0781,0.171875 0.24219,0.273437 0.17187,0.101563 0.48437,0.101563 0.23438,0 0.61719,-0.05469 z m 1.3125,4.453125 L 182.72656,55.875 Q 183.1875,56 183.53125,56 q 0.46875,0 0.75,-0.15625 0.28125,-0.15625 0.46094,-0.4375 0.13281,-0.210938 0.42968,-1.046875 0.0391,-0.117188 0.125,-0.34375 l -3.14843,-8.3125 h 1.51562 l 1.72656,4.804687 q 0.33594,0.914063 0.60157,1.921875 0.24218,-0.96875 0.57812,-1.890625 l 1.77344,-4.835937 H 189.75 l -3.15625,8.4375 q -0.50781,1.367187 -0.78906,1.882812 -0.375,0.695313 -0.85938,1.015625 -0.48437,0.328125 -1.15625,0.328125 -0.40625,0 -0.90625,-0.171875 z m 8.0625,-0.01563 V 45.703125 h 1.28125 v 1.078125 q 0.45313,-0.632813 1.02344,-0.945313 0.57031,-0.320312 1.38281,-0.320312 1.0625,0 1.875,0.546875 0.8125,0.546875 1.22656,1.546875 0.41407,0.992187 0.41407,2.179687 0,1.273438 -0.46094,2.296875 -0.45313,1.015625 -1.32813,1.5625 -0.86718,0.539063 -1.82812,0.539063 -0.70313,0 -1.26563,-0.296875 -0.55468,-0.296875 -0.91406,-0.75 v 4.039062 z m 1.27344,-7.28125 q 0,1.601563 0.64844,2.367188 0.64843,0.765625 1.57031,0.765625 0.9375,0 1.60156,-0.789063 0.67188,-0.796875 0.67188,-2.460937 0,-1.585938 -0.65625,-2.375 -0.64844,-0.789063 -1.55469,-0.789063 -0.89844,0 -1.59375,0.84375 -0.6875,0.835938 -0.6875,2.4375 z m 13.30469,1.429688 1.45312,0.179687 q -0.34375,1.273438 -1.27344,1.976563 -0.92968,0.703125 -2.375,0.703125 -1.82031,0 -2.89062,-1.117188 -1.0625,-1.125 -1.0625,-3.148437 0,-2.09375 1.07812,-3.25 1.07813,-1.15625 2.79688,-1.15625 1.66406,0 2.71875,1.132812 1.05469,1.132813 1.05469,3.1875 0,0.125 -0.008,0.375 h -6.1875 q 0.0781,1.367188 0.77344,2.09375 0.69531,0.726563 1.73438,0.726563 0.77343,0 1.32031,-0.40625 0.54687,-0.40625 0.86719,-1.296875 z m -4.61719,-2.273438 h 4.63281 q -0.0937,-1.046875 -0.53125,-1.570312 -0.67187,-0.8125 -1.74219,-0.8125 -0.96875,0 -1.63281,0.648437 -0.65625,0.648438 -0.72656,1.734375 z m 7.27344,2.46875 1.39062,-0.21875 q 0.11719,0.835938 0.64844,1.28125 0.53906,0.445313 1.5,0.445313 0.96875,0 1.4375,-0.390625 0.46875,-0.398438 0.46875,-0.929688 0,-0.476562 -0.41406,-0.75 -0.28907,-0.1875 -1.4375,-0.476562 -1.54688,-0.390625 -2.14844,-0.671875 -0.59375,-0.289063 -0.90625,-0.789063 -0.30469,-0.507812 -0.30469,-1.117187 0,-0.554688 0.25,-1.023438 0.25781,-0.476562 0.69531,-0.789062 0.32813,-0.242188 0.89063,-0.40625 0.57031,-0.171875 1.21875,-0.171875 0.97656,0 1.71094,0.28125 0.74218,0.28125 1.09375,0.765625 0.35156,0.476562 0.48437,1.28125 l -1.375,0.1875 q -0.0937,-0.640625 -0.54687,-1 -0.44532,-0.359375 -1.26563,-0.359375 -0.96875,0 -1.38281,0.320312 -0.41406,0.320313 -0.41406,0.75 0,0.273438 0.17187,0.492188 0.17188,0.226562 0.53906,0.375 0.21094,0.07813 1.24219,0.359375 1.49219,0.398437 2.07813,0.65625 0.59375,0.25 0.92968,0.734375 0.33594,0.484375 0.33594,1.203125 0,0.703125 -0.41406,1.328125 -0.40625,0.617187 -1.17969,0.960937 -0.77344,0.335938 -1.75,0.335938 -1.61719,0 -2.46875,-0.671875 -0.84375,-0.671875 -1.07812,-1.992188 z m 12.48437,-1.671875 q 0,-2.304687 1.28125,-3.414062 1.07031,-0.921875 2.60938,-0.921875 1.71093,0 2.79687,1.125 1.08594,1.117187 1.08594,3.09375 0,1.601562 -0.48438,2.523437 -0.47656,0.914063 -1.39843,1.421875 -0.91407,0.507813 -2,0.507813 -1.74219,0 -2.82032,-1.117188 -1.07031,-1.117187 -1.07031,-3.21875 z m 1.44531,0 q 0,1.59375 0.69532,2.390625 0.69531,0.789063 1.75,0.789063 1.04687,0 1.74218,-0.796875 0.69532,-0.796875 0.69532,-2.429688 0,-1.539062 -0.70313,-2.328125 -0.69531,-0.796875 -1.73437,-0.796875 -1.05469,0 -1.75,0.789063 -0.69532,0.789062 -0.69532,2.382812 z M 230.42187,54 v -7.203125 h -1.24218 v -1.09375 h 1.24218 v -0.882813 q 0,-0.835937 0.14844,-1.242187 0.20313,-0.546875 0.71094,-0.882813 0.51562,-0.34375 1.4375,-0.34375 0.59375,0 1.3125,0.140625 l -0.21094,1.226563 q -0.4375,-0.07813 -0.82812,-0.07813 -0.64063,0 -0.90625,0.273437 -0.26563,0.273438 -0.26563,1.023438 v 0.765625 h 1.61719 v 1.09375 h -1.61719 V 54 Z m 7.99219,-2.476563 1.39063,-0.21875 q 0.11718,0.835938 0.64843,1.28125 0.53907,0.445313 1.5,0.445313 0.96875,0 1.4375,-0.390625 0.46875,-0.398438 0.46875,-0.929688 0,-0.476562 -0.41406,-0.75 -0.28906,-0.1875 -1.4375,-0.476562 -1.54687,-0.390625 -2.14844,-0.671875 -0.59375,-0.289063 -0.90625,-0.789063 -0.30468,-0.507812 -0.30468,-1.117187 0,-0.554688 0.25,-1.023438 0.25781,-0.476562 0.69531,-0.789062 0.32812,-0.242188 0.89062,-0.40625 0.57032,-0.171875 1.21875,-0.171875 0.97657,0 1.71094,0.28125 0.74219,0.28125 1.09375,0.765625 0.35156,0.476562 0.48438,1.28125 l -1.375,0.1875 q -0.0937,-0.640625 -0.54688,-1 -0.44531,-0.359375 -1.26562,-0.359375 -0.96875,0 -1.38282,0.320312 -0.41406,0.320313 -0.41406,0.75 0,0.273438 0.17188,0.492188 0.17187,0.226562 0.53906,0.375 0.21094,0.07813 1.24219,0.359375 1.49218,0.398437 2.07812,0.65625 0.59375,0.25 0.92969,0.734375 0.33594,0.484375 0.33594,1.203125 0,0.703125 -0.41407,1.328125 -0.40625,0.617187 -1.17968,0.960937 -0.77344,0.335938 -1.75,0.335938 -1.61719,0 -2.46875,-0.671875 -0.84375,-0.671875 -1.07813,-1.992188 z M 246.97656,54 V 42.546875 h 1.40625 v 4.109375 q 0.98438,-1.140625 2.48438,-1.140625 0.92187,0 1.60156,0.367187 0.67969,0.359375 0.96875,1 0.29687,0.640625 0.29687,1.859375 V 54 h -1.40625 v -5.257813 q 0,-1.054687 -0.46093,-1.53125 -0.45313,-0.484375 -1.28907,-0.484375 -0.625,0 -1.17968,0.328125 -0.54688,0.320313 -0.78125,0.875 -0.23438,0.554688 -0.23438,1.53125 V 54 Z m 8.375,-4.148438 q 0,-2.304687 1.28125,-3.414062 1.07031,-0.921875 2.60938,-0.921875 1.71093,0 2.79687,1.125 1.08594,1.117187 1.08594,3.09375 0,1.601562 -0.48438,2.523437 -0.47656,0.914063 -1.39843,1.421875 -0.91407,0.507813 -2,0.507813 -1.74219,0 -2.82032,-1.117188 -1.07031,-1.117187 -1.07031,-3.21875 z m 1.44531,0 q 0,1.59375 0.69532,2.390625 0.69531,0.789063 1.75,0.789063 1.04687,0 1.74218,-0.796875 0.69532,-0.796875 0.69532,-2.429688 0,-1.539062 -0.70313,-2.328125 -0.69531,-0.796875 -1.73437,-0.796875 -1.05469,0 -1.75,0.789063 -0.69532,0.789062 -0.69532,2.382812 z m 7.97657,7.328125 V 45.703125 h 1.28125 v 1.078125 q 0.45312,-0.632813 1.02343,-0.945313 0.57032,-0.320312 1.38282,-0.320312 1.0625,0 1.875,0.546875 0.8125,0.546875 1.22656,1.546875 0.41406,0.992187 0.41406,2.179687 0,1.273438 -0.46094,2.296875 -0.45312,1.015625 -1.32812,1.5625 -0.86719,0.539063 -1.82813,0.539063 -0.70312,0 -1.26562,-0.296875 -0.55469,-0.296875 -0.91406,-0.75 v 4.039062 z m 1.27343,-7.28125 q 0,1.601563 0.64844,2.367188 0.64844,0.765625 1.57031,0.765625 0.9375,0 1.60157,-0.789063 0.67187,-0.796875 0.67187,-2.460937 0,-1.585938 -0.65625,-2.375 -0.64844,-0.789063 -1.55469,-0.789063 -0.89843,0 -1.59375,0.84375 -0.6875,0.835938 -0.6875,2.4375 z m 7.625,7.28125 V 45.703125 h 1.28125 v 1.078125 q 0.45313,-0.632813 1.02344,-0.945313 0.57031,-0.320312 1.38281,-0.320312 1.0625,0 1.875,0.546875 0.8125,0.546875 1.22657,1.546875 0.41406,0.992187 0.41406,2.179687 0,1.273438 -0.46094,2.296875 -0.45312,1.015625 -1.32812,1.5625 -0.86719,0.539063 -1.82813,0.539063 -0.70312,0 -1.26562,-0.296875 -0.55469,-0.296875 -0.91407,-0.75 v 4.039062 z m 1.27344,-7.28125 q 0,1.601563 0.64844,2.367188 0.64844,0.765625 1.57031,0.765625 0.9375,0 1.60156,-0.789063 0.67188,-0.796875 0.67188,-2.460937 0,-1.585938 -0.65625,-2.375 -0.64844,-0.789063 -1.55469,-0.789063 -0.89844,0 -1.59375,0.84375 -0.6875,0.835938 -0.6875,2.4375 z m 7.63281,-5.734375 v -1.617187 h 1.40625 v 1.617187 z m 0,9.835938 v -8.296875 h 1.40625 V 54 Z m 3.54688,0 v -8.296875 h 1.26562 v 1.179687 q 0.91407,-1.367187 2.64063,-1.367187 0.75,0 1.375,0.273437 0.63281,0.265625 0.94531,0.703125 0.3125,0.4375 0.4375,1.039063 0.0781,0.390625 0.0781,1.367187 V 54 h -1.40625 v -5.046875 q 0,-0.859375 -0.16407,-1.28125 -0.16406,-0.429688 -0.58593,-0.679688 -0.41407,-0.257812 -0.97657,-0.257812 -0.89843,0 -1.55468,0.570312 -0.64844,0.570313 -0.64844,2.164063 V 54 Z m 8.64062,0.6875 1.36719,0.203125 q 0.0859,0.632812 0.47656,0.921875 0.52344,0.390625 1.42969,0.390625 0.97656,0 1.50781,-0.390625 0.53125,-0.390625 0.71875,-1.09375 0.10938,-0.429688 0.10157,-1.804688 Q 299.44531,54 298.07031,54 q -1.71094,0 -2.64844,-1.234375 -0.9375,-1.234375 -0.9375,-2.960938 0,-1.1875 0.42969,-2.1875 0.42969,-1.007812 1.24219,-1.554687 0.82031,-0.546875 1.92187,-0.546875 1.46875,0 2.42188,1.1875 v -1 h 1.29687 V 52.875 q 0,1.9375 -0.39843,2.742187 -0.39063,0.8125 -1.25,1.28125 -0.85157,0.46875 -2.10157,0.46875 -1.48437,0 -2.39843,-0.671875 -0.91407,-0.664062 -0.88282,-2.007812 z m 1.16407,-4.984375 q 0,1.632812 0.64843,2.382812 0.64844,0.75 1.625,0.75 0.96875,0 1.625,-0.742187 0.65625,-0.75 0.65625,-2.34375 0,-1.523438 -0.67968,-2.296875 -0.67188,-0.773438 -1.625,-0.773438 -0.9375,0 -1.59375,0.765625 -0.65625,0.757813 -0.65625,2.257813 z M 308.70312,54 v -7.203125 h -1.24218 v -1.09375 h 1.24218 v -0.882813 q 0,-0.835937 0.14844,-1.242187 0.20313,-0.546875 0.71094,-0.882813 0.51562,-0.34375 1.4375,-0.34375 0.59375,0 1.3125,0.140625 l -0.21094,1.226563 q -0.4375,-0.07813 -0.82812,-0.07813 -0.64063,0 -0.90625,0.273437 -0.26563,0.273438 -0.26563,1.023438 v 0.765625 h 1.61719 v 1.09375 h -1.61719 V 54 Z m 9.52344,-1.023438 q -0.78125,0.664063 -1.50781,0.9375 Q 316,54.1875 315.17187,54.1875 q -1.36718,0 -2.10156,-0.664063 -0.73437,-0.671875 -0.73437,-1.710937 0,-0.609375 0.27343,-1.109375 0.28125,-0.507813 0.72657,-0.8125 0.45312,-0.304688 1.01562,-0.460938 0.41406,-0.109375 1.25,-0.210937 1.70313,-0.203125 2.50781,-0.484375 0.008,-0.289063 0.008,-0.367188 0,-0.859375 -0.39844,-1.210937 -0.53906,-0.476563 -1.60156,-0.476563 -0.99219,0 -1.46875,0.351563 -0.46875,0.34375 -0.69532,1.226562 l -1.375,-0.1875 q 0.1875,-0.882812 0.61719,-1.421875 0.42969,-0.546875 1.24219,-0.835937 0.8125,-0.296875 1.88281,-0.296875 1.0625,0 1.72656,0.25 0.66407,0.25 0.97657,0.632812 0.3125,0.375 0.4375,0.953125 0.0703,0.359375 0.0703,1.296875 v 1.875 q 0,1.960938 0.0859,2.484375 0.0937,0.515625 0.35937,0.992188 h -1.46875 q -0.21875,-0.4375 -0.28125,-1.023438 z m -0.11719,-3.140625 q -0.76562,0.3125 -2.29687,0.53125 -0.86719,0.125 -1.22656,0.28125 -0.35938,0.15625 -0.55469,0.460938 -0.19531,0.296875 -0.19531,0.664062 0,0.5625 0.42187,0.9375 0.42969,0.375 1.25,0.375 0.8125,0 1.44531,-0.351562 0.63282,-0.359375 0.92969,-0.976563 0.22656,-0.476562 0.22656,-1.40625 z m 9.01563,1.125 1.38281,0.179688 q -0.22656,1.429687 -1.16406,2.242187 -0.92969,0.804688 -2.28906,0.804688 -1.70313,0 -2.74219,-1.109375 -1.03125,-1.117188 -1.03125,-3.195313 0,-1.34375 0.44531,-2.351562 0.44531,-1.007813 1.35156,-1.507813 0.91407,-0.507812 1.98438,-0.507812 1.35156,0 2.21094,0.6875 0.85937,0.679687 1.10156,1.9375 l -1.36719,0.210937 q -0.19531,-0.835937 -0.69531,-1.257812 -0.49219,-0.421875 -1.19531,-0.421875 -1.0625,0 -1.72657,0.765625 -0.66406,0.757812 -0.66406,2.40625 0,1.671875 0.64063,2.429687 0.64062,0.757813 1.67187,0.757813 0.82813,0 1.38281,-0.507813 0.55469,-0.507812 0.70313,-1.5625 z m 2.59375,-6.796875 v -1.617187 h 1.40625 v 1.617187 z m 0,9.835938 V 45.703125 H 331.125 V 54 Z m 3.51562,0 V 42.546875 h 1.40625 V 54 Z m 3.59375,-9.835938 v -1.617187 h 1.40625 v 1.617187 z m 0,9.835938 v -8.296875 h 1.40625 V 54 Z m 6.61719,-1.257813 0.20313,1.242188 q -0.59375,0.125 -1.0625,0.125 -0.76563,0 -1.1875,-0.242188 -0.42188,-0.242187 -0.59375,-0.632812 -0.17188,-0.398438 -0.17188,-1.664063 v -4.773437 h -1.03125 v -1.09375 h 1.03125 v -2.054688 l 1.39844,-0.84375 v 2.898438 h 1.41406 v 1.09375 h -1.41406 v 4.851562 q 0,0.601563 0.0703,0.773438 0.0781,0.171875 0.24219,0.273437 0.17187,0.101563 0.48437,0.101563 0.23438,0 0.61719,-0.05469 z m 1.38281,-8.578125 v -1.617187 h 1.40625 v 1.617187 z m 0,9.835938 v -8.296875 h 1.40625 V 54 Z m 9.22657,-2.671875 1.45312,0.179687 q -0.34375,1.273438 -1.27344,1.976563 -0.92968,0.703125 -2.375,0.703125 -1.82031,0 -2.89062,-1.117188 -1.0625,-1.125 -1.0625,-3.148437 0,-2.09375 1.07812,-3.25 1.07813,-1.15625 2.79688,-1.15625 1.66406,0 2.71875,1.132812 1.05469,1.132813 1.05469,3.1875 0,0.125 -0.008,0.375 h -6.1875 q 0.0781,1.367188 0.77344,2.09375 0.69531,0.726563 1.73438,0.726563 0.77343,0 1.32031,-0.40625 0.54687,-0.40625 0.86719,-1.296875 z m -4.61719,-2.273438 h 4.63281 q -0.0937,-1.046875 -0.53125,-1.570312 -0.67187,-0.8125 -1.74219,-0.8125 -0.96875,0 -1.63281,0.648437 -0.65625,0.648438 -0.72656,1.734375 z m 7.27344,2.46875 1.39062,-0.21875 q 0.11719,0.835938 0.64844,1.28125 0.53906,0.445313 1.5,0.445313 0.96875,0 1.4375,-0.390625 0.46875,-0.398438 0.46875,-0.929688 0,-0.476562 -0.41406,-0.75 -0.28907,-0.1875 -1.4375,-0.476562 -1.54688,-0.390625 -2.14844,-0.671875 -0.59375,-0.289063 -0.90625,-0.789063 -0.30469,-0.507812 -0.30469,-1.117187 0,-0.554688 0.25,-1.023438 0.25781,-0.476562 0.69531,-0.789062 0.32813,-0.242188 0.89063,-0.40625 0.57031,-0.171875 1.21875,-0.171875 0.97656,0 1.71094,0.28125 0.74218,0.28125 1.09375,0.765625 0.35156,0.476562 0.48437,1.28125 l -1.375,0.1875 q -0.0937,-0.640625 -0.54687,-1 -0.44532,-0.359375 -1.26563,-0.359375 -0.96875,0 -1.38281,0.320312 -0.41406,0.320313 -0.41406,0.75 0,0.273438 0.17187,0.492188 0.17188,0.226562 0.53906,0.375 0.21094,0.07813 1.24219,0.359375 1.49219,0.398437 2.07813,0.65625 0.59375,0.25 0.92968,0.734375 0.33594,0.484375 0.33594,1.203125 0,0.703125 -0.41406,1.328125 -0.40625,0.617187 -1.17969,0.960937 -0.77344,0.335938 -1.75,0.335938 -1.61719,0 -2.46875,-0.671875 -0.84375,-0.671875 -1.07812,-1.992188 z M 365.67187,54 v -1.601563 h 1.60157 V 54 Z"
     id="text2"
     style="font-size:16px;font-family:Arial"
     aria-label="afternoon shopping types of shopping facilities." />
</svg>
