<?xml version="1.0" encoding="UTF-8" standalone="no"?>
<svg
   width="800"
   height="100"
   version="1.1"
   id="svg1"
   xmlns="http://www.w3.org/2000/svg"
   xmlns:svg="http://www.w3.org/2000/svg">
  <defs
     id="defs1" />
  <rect
     width="100%"
     height="100%"
     fill="#FFF"
     id="rect1" />
  <path
     d="M 21.28125,30 V 18.546875 h 1.515625 V 23.25 H 28.75 v -4.703125 h 1.515625 V 30 H 28.75 V 24.601562 H 22.796875 V 30 Z m 17.007812,-2.671875 1.453125,0.179687 q -0.34375,1.273438 -1.273437,1.976563 -0.929688,0.703125 -2.375,0.703125 -1.820313,0 -2.890625,-1.117188 -1.0625,-1.125 -1.0625,-3.148437 0,-2.09375 1.078125,-3.25 1.078125,-1.15625 2.796875,-1.15625 1.664062,0 2.71875,1.132812 1.054687,1.132813 1.054687,3.1875 0,0.125 -0.0078,0.375 h -6.1875 q 0.07813,1.367188 0.773437,2.09375 0.695313,0.726563 1.734375,0.726563 0.773438,0 1.320313,-0.40625 0.546875,-0.40625 0.867187,-1.296875 z m -4.617187,-2.273438 h 4.632812 q -0.09375,-1.046875 -0.53125,-1.570312 -0.671875,-0.8125 -1.742187,-0.8125 -0.96875,0 -1.632813,0.648437 -0.65625,0.648438 -0.726562,1.734375 z M 41.476562,30 V 18.546875 h 1.40625 V 30 Z m 3.554688,0 V 18.546875 H 46.4375 V 30 Z m 3.0625,-4.148438 q 0,-2.304687 1.28125,-3.414062 1.070312,-0.921875 2.609375,-0.921875 1.710937,0 2.796875,1.125 1.085937,1.117187 1.085937,3.09375 0,1.601562 -0.484375,2.523437 -0.476562,0.914063 -1.398437,1.421875 -0.914063,0.507813 -2,0.507813 -1.742188,0 -2.820313,-1.117188 -1.070312,-1.117187 -1.070312,-3.21875 z m 1.445312,0 q 0,1.59375 0.695313,2.390625 0.695312,0.789063 1.75,0.789063 1.046875,0 1.742187,-0.796875 0.695313,-0.796875 0.695313,-2.429688 0,-1.539062 -0.703125,-2.328125 -0.695313,-0.796875 -1.734375,-0.796875 -1.054688,0 -1.75,0.789063 -0.695313,0.789062 -0.695313,2.382812 z"
     id="text1"
     style="font-size:16px;font-family:Arial"
     aria-label="Hello" />
</svg>
