<?xml version="1.0" encoding="UTF-8" standalone="no"?>
<svg
   width="800"
   height="100"
   version="1.1"
   id="svg1"
   xmlns="http://www.w3.org/2000/svg"
   xmlns:svg="http://www.w3.org/2000/svg">
  <defs
     id="defs1" />
  <rect
     width="100%"
     height="100%"
     fill="#FFF"
     id="rect1" />
  <path
     d="M 21.171875,30 V 18.546875 H 22.6875 v 10.101562 h 5.640625 V 30 Z m 8.257812,-4.148438 q 0,-2.304687 1.28125,-3.414062 1.070313,-0.921875 2.609375,-0.921875 1.710938,0 2.796875,1.125 1.085938,1.117187 1.085938,3.09375 0,1.601562 -0.484375,2.523437 -0.476563,0.914063 -1.398438,1.421875 -0.914062,0.507813 -2,0.507813 -1.742187,0 -2.820312,-1.117188 -1.070313,-1.117187 -1.070313,-3.21875 z m 1.445313,0 q 0,1.59375 0.695312,2.390625 0.695313,0.789063 1.75,0.789063 1.046875,0 1.742188,-0.796875 0.695312,-0.796875 0.695312,-2.429688 0,-1.539062 -0.703125,-2.328125 -0.695312,-0.796875 -1.734375,-0.796875 -1.054687,0 -1.75,0.789063 Q 30.875,24.257812 30.875,25.851562 Z M 40.382812,30 37.84375,21.703125 h 1.453125 l 1.320312,4.789062 0.492188,1.78125 q 0.03125,-0.132812 0.429687,-1.710937 l 1.320313,-4.859375 h 1.445312 l 1.242188,4.8125 0.414062,1.585937 L 46.4375,26.5 47.859375,21.703125 h 1.367187 L 46.632812,30 H 45.171875 L 43.851562,25.03125 43.53125,23.617187 41.851562,30 Z m 9.507813,0 v -1.601563 h 1.601562 V 30 q 0,0.882812 -0.3125,1.421875 -0.3125,0.546875 -0.992187,0.84375 L 49.796875,31.664062 Q 50.242187,31.46875 50.453125,31.085937 50.664062,30.710937 50.6875,30 Z m 8.492187,0 V 18.546875 h 1.40625 V 30 Z m 3.0625,-4.148438 q 0,-2.304687 1.28125,-3.414062 1.070313,-0.921875 2.609375,-0.921875 1.710938,0 2.796875,1.125 1.085938,1.117187 1.085938,3.09375 0,1.601562 -0.484375,2.523437 -0.476563,0.914063 -1.398438,1.421875 -0.914062,0.507813 -2,0.507813 -1.742187,0 -2.820312,-1.117188 -1.070313,-1.117187 -1.070313,-3.21875 z m 1.445313,0 q 0,1.59375 0.695312,2.390625 0.695313,0.789063 1.75,0.789063 1.046875,0 1.742188,-0.796875 0.695312,-0.796875 0.695312,-2.429688 0,-1.539062 -0.703125,-2.328125 -0.695312,-0.796875 -1.734375,-0.796875 -1.054687,0 -1.75,0.789063 -0.695312,0.789062 -0.695312,2.382812 z M 72.398437,30 69.859375,21.703125 H 71.3125 l 1.320312,4.789062 0.492188,1.78125 Q 73.15625,28.140625 73.554687,26.5625 L 74.875,21.703125 h 1.445312 l 1.242188,4.8125 0.414062,1.585937 L 78.453125,26.5 79.875,21.703125 h 1.367187 L 78.648437,30 H 77.1875 L 75.867187,25.03125 75.546875,23.617187 73.867187,30 Z m 9.539063,0 v -1.601563 h 1.601562 V 30 Z"
     id="text1"
     style="font-size:16px;font-family:Arial"
     aria-label="Low, low." />
</svg>
